{"glyphs":{"0":{"ha":705,"x_min":119,"x_max":781,"o":"m 134 202 q 126 233 134 202 q 119 338 119 264 q 136 493 120 413 q 195 685 156 595 q 286 843 234 774 q 406 951 338 911 q 546 991 473 991 q 635 973 595 991 q 703 922 675 955 q 749 843 731 889 q 774 742 767 798 q 778 624 781 686 q 762 493 775 561 q 704 302 743 392 q 612 143 665 212 q 492 35 560 75 q 353 -5 425 -5 q 251 21 296 -5 q 177 93 205 47 q 134 202 149 140 m 263 495 q 242 323 245 405 q 252 181 240 241 q 291 85 264 121 q 357 50 318 50 q 448 86 404 50 q 528 185 492 122 q 592 329 564 248 q 639 503 621 410 q 659 673 656 593 q 649 811 661 753 q 609 903 637 869 q 543 937 582 937 q 428 877 484 937 q 329 717 372 817 q 263 495 287 617 z "},"1":{"ha":705,"x_min":195,"x_max":628,"o":"m 199 -5 q 199 21 195 1 q 209 40 203 40 q 269 50 227 40 q 315 71 311 60 q 340 159 327 97 l 448 716 q 457 759 454 743 q 463 793 460 775 q 465 821 465 811 q 463 840 465 831 q 457 853 462 849 q 446 857 452 857 q 401 846 436 857 q 347 826 366 836 q 335 839 338 830 q 332 857 331 848 q 337 866 332 865 q 612 993 605 993 l 615 993 q 625 982 621 993 q 628 963 628 972 q 585 818 603 912 l 467 209 q 452 71 450 115 q 490 50 452 60 q 541 40 527 40 q 541 12 545 40 q 539 2 540 6 q 536 -5 538 -3 q 366 3 393 3 q 315 2 340 3 q 252 -2 289 1 q 199 -5 216 -4 z "},"2":{"ha":705,"x_min":62,"x_max":750,"o":"m 62 23 q 258 217 125 81 q 459 431 391 353 q 576 597 539 522 q 612 751 612 673 q 596 826 612 794 q 552 875 581 858 q 486 892 524 892 q 420 881 453 892 q 361 854 387 870 q 313 819 336 839 q 277 785 290 800 q 255 759 264 771 q 240 769 248 759 q 233 784 232 779 q 248 808 237 793 q 275 842 258 823 q 313 882 292 862 q 360 923 334 903 q 414 958 386 943 q 474 983 441 974 q 536 993 506 993 q 642 968 593 993 q 720 897 690 943 q 750 791 750 850 q 738 694 750 741 q 699 605 725 648 q 643 525 673 562 q 568 442 612 488 q 521 396 547 421 q 471 347 496 371 q 419 298 446 323 q 369 250 393 273 q 322 207 345 227 q 281 169 299 186 q 249 139 262 152 q 228 120 235 127 q 221 113 220 113 l 484 113 q 646 227 595 113 q 667 241 652 241 q 673 240 669 241 q 682 238 677 239 q 689 235 686 236 q 692 232 692 233 q 574 0 594 47 l 71 0 q 62 23 62 9 z "},"3":{"ha":705,"x_min":98,"x_max":713,"o":"m 98 74 q 117 137 98 109 q 162 164 137 164 q 194 156 180 164 q 213 138 207 148 q 229 113 220 128 q 243 92 237 98 q 284 62 261 69 q 342 54 308 54 q 398 67 368 54 q 457 104 428 79 q 509 163 486 130 q 547 242 532 196 q 562 338 562 288 q 522 461 562 416 q 411 506 481 506 q 320 490 382 506 q 314 512 314 500 q 319 538 314 531 q 382 555 350 544 q 447 584 415 567 q 506 623 478 600 q 554 671 533 646 q 588 729 576 697 q 600 793 600 760 q 567 881 600 853 q 481 909 534 909 q 430 901 455 909 q 385 879 405 892 q 351 854 366 866 q 324 830 336 842 q 309 817 312 819 q 300 830 302 817 q 302 854 298 843 q 557 993 416 993 q 601 986 579 993 q 643 966 623 980 q 679 933 663 952 q 704 885 694 913 q 713 824 713 857 q 696 750 713 787 q 653 683 680 713 q 596 628 626 652 q 534 586 566 604 q 612 548 575 581 q 671 470 650 516 q 692 377 692 423 q 671 266 692 320 q 614 171 650 212 q 534 96 579 130 q 443 39 490 61 q 352 5 396 17 q 274 -7 308 -7 q 111 31 167 -7 q 102 50 106 37 q 98 74 98 62 z "},"4":{"ha":705,"x_min":86,"x_max":758,"o":"m 90 298 l 685 957 q 712 982 695 968 q 736 996 728 996 q 752 986 746 996 q 756 968 758 977 l 637 357 l 724 357 q 733 338 731 357 q 731 294 736 318 q 720 269 728 281 l 620 269 l 568 -1 q 501 -9 557 -9 q 461 -7 473 -9 q 450 3 449 -5 l 503 269 l 98 269 q 90 298 86 277 m 199 357 l 519 357 l 608 810 l 199 357 z "},"5":{"ha":705,"x_min":98,"x_max":753,"o":"m 98 74 q 117 137 98 109 q 162 164 137 164 q 194 156 180 164 q 213 138 207 148 q 229 113 220 128 q 243 92 237 98 q 284 62 261 69 q 342 54 308 54 q 398 67 368 54 q 457 104 428 79 q 509 163 486 130 q 547 242 532 196 q 562 338 562 288 q 558 378 562 359 q 543 424 555 398 q 512 468 532 450 q 457 500 493 487 q 374 513 422 513 q 337 510 359 513 q 294 503 315 507 q 258 493 273 498 q 237 515 249 499 q 296 705 267 603 q 347 879 326 806 q 376 976 367 951 q 424 977 383 976 q 484 979 465 978 q 543 981 503 979 q 606 984 582 983 q 659 987 629 985 q 707 991 688 989 q 738 996 726 994 q 748 986 744 992 q 753 976 753 981 q 735 924 753 958 q 702 867 718 889 q 532 856 661 859 q 399 852 404 853 q 382 799 397 848 q 348 684 368 749 q 315 583 328 618 q 388 602 339 592 q 465 611 437 611 q 548 597 510 611 q 613 560 587 583 q 657 507 639 537 q 684 446 675 477 q 692 382 692 414 q 671 271 692 325 q 614 175 650 216 q 535 98 579 133 q 444 40 490 63 q 353 5 397 18 q 274 -7 309 -7 q 111 31 167 -7 q 102 50 106 37 q 98 74 98 62 z "},"6":{"ha":705,"x_min":125,"x_max":768,"o":"m 125 267 q 174 488 125 366 q 317 718 222 609 q 430 821 362 769 q 583 918 498 872 q 756 994 669 964 q 763 986 760 994 q 767 970 766 979 q 767 956 768 961 q 661 904 710 931 q 559 840 611 878 q 464 760 507 802 q 382 661 421 717 q 317 541 344 605 q 266 386 280 454 q 252 248 252 317 q 258 175 252 210 q 278 110 264 140 q 315 60 291 79 q 371 42 339 42 q 439 64 403 42 q 507 125 475 87 q 559 222 538 163 q 580 347 580 281 q 544 469 580 423 q 431 515 507 515 q 357 493 396 515 q 348 509 348 499 q 375 537 348 518 q 440 572 402 556 q 503 587 478 587 q 607 555 560 587 q 678 471 653 524 q 703 355 703 418 q 672 223 703 290 q 592 105 641 156 q 478 23 543 55 q 353 -9 414 -9 q 188 65 250 -9 q 125 267 125 139 z "},"7":{"ha":705,"x_min":157,"x_max":844,"o":"m 159 22 q 391 346 250 136 q 628 709 532 555 l 724 861 l 365 861 q 332 853 349 861 q 304 834 316 845 q 278 805 292 823 q 257 774 264 787 q 238 742 249 761 q 227 738 236 738 q 195 745 208 738 q 243 850 198 753 q 297 979 288 947 l 739 979 q 798 981 761 979 q 836 983 836 983 q 844 979 843 983 q 843 970 844 975 q 834 950 841 962 q 821 927 827 938 q 801 897 814 917 q 781 866 787 876 l 233 -5 q 218 -9 229 -9 q 179 1 201 -9 q 159 22 157 12 z "},"8":{"ha":705,"x_min":106,"x_max":754,"o":"m 128 238 q 145 290 134 264 q 171 335 157 315 q 204 375 184 355 q 241 410 225 396 q 281 439 257 423 q 317 464 304 456 q 350 484 329 471 q 355 487 353 486 q 359 489 357 488 q 363 492 361 490 q 368 497 367 494 q 366 501 369 500 q 334 530 349 513 q 302 570 318 547 q 277 619 286 593 q 263 677 267 645 q 266 742 259 709 q 323 865 279 807 q 430 959 368 924 q 553 994 492 994 q 641 978 602 994 q 707 932 681 962 q 744 858 734 901 q 744 759 754 814 q 538 532 721 642 q 536 523 530 530 q 593 474 567 502 q 642 413 620 447 q 673 338 663 379 q 674 258 682 298 q 609 120 660 183 q 488 21 558 57 q 347 -14 418 -14 q 167 56 228 -14 q 128 238 106 126 m 243 243 q 240 158 234 195 q 264 95 246 121 q 307 56 281 69 q 360 42 332 42 q 483 89 431 42 q 549 214 534 135 q 545 286 555 249 q 518 348 535 322 q 476 400 502 374 q 438 436 450 426 q 412 455 426 446 q 411 456 412 456 q 404 459 405 459 q 397 458 399 459 q 293 366 330 416 q 243 243 256 316 m 376 761 q 487 563 355 656 q 495 559 493 559 q 504 563 499 559 q 639 751 615 632 q 639 840 647 798 q 604 911 631 882 q 535 940 576 940 q 437 890 482 940 q 376 761 392 841 z "},"9":{"ha":705,"x_min":128,"x_max":772,"o":"m 130 29 q 219 72 177 50 q 305 122 261 94 q 387 183 349 150 q 461 256 426 217 q 527 343 496 295 q 580 444 557 391 q 631 600 617 531 q 645 738 645 668 q 638 810 645 775 q 619 875 632 844 q 582 925 606 906 q 526 943 558 943 q 458 921 494 943 q 390 860 422 899 q 338 763 359 821 q 317 639 317 704 q 353 516 317 562 q 465 470 389 470 q 540 492 500 470 q 549 476 549 486 q 522 448 549 467 q 457 413 494 429 q 394 397 419 397 q 290 429 336 397 q 218 514 243 461 q 193 629 193 567 q 225 762 193 694 q 306 879 256 829 q 419 962 355 930 q 545 994 483 994 q 664 961 612 994 q 743 866 715 928 q 772 718 772 803 q 723 497 772 619 q 580 267 675 376 q 391 112 511 189 q 140 -9 272 36 q 131 5 134 -9 q 130 29 128 20 z "},"\u0000":{"ha":1389,"x_min":0,"x_max":0,"o":""},"\r":{"ha":1389,"x_min":0,"x_max":0,"o":""}," ":{"ha":351,"x_min":0,"x_max":0,"o":""},"!":{"ha":361,"x_min":31,"x_max":345,"o":"m 31 56 q 61 128 31 98 q 133 158 90 158 q 180 136 161 158 q 199 87 199 115 q 171 10 199 42 q 99 -22 142 -22 q 51 1 70 -22 q 31 56 31 24 m 123 256 q 137 368 123 260 q 171 632 151 476 q 205 892 191 789 q 236 947 210 918 q 297 976 263 976 q 332 956 319 976 q 345 909 345 936 q 337 866 345 899 q 317 786 330 832 q 287 675 304 740 q 252 547 269 611 q 213 405 234 483 q 176 263 193 327 q 157 239 173 249 q 133 229 140 229 q 123 256 123 229 z "},"\"":{"ha":511,"x_min":164,"x_max":551,"o":"m 165 691 q 172 807 172 753 q 169 912 172 862 q 165 983 165 962 q 181 1021 168 999 q 219 1061 195 1042 q 269 1079 243 1079 q 289 1078 281 1079 q 303 1074 296 1077 q 313 1063 310 1070 q 318 1045 317 1057 q 318 1018 319 1034 q 313 979 317 1002 q 268 833 303 930 q 221 694 233 736 q 208 677 218 684 q 189 671 198 671 q 172 677 180 671 q 165 691 164 682 m 397 691 q 404 807 404 753 q 400 912 404 862 q 397 983 397 962 q 413 1021 400 999 q 451 1061 427 1042 q 501 1079 475 1079 q 524 1077 515 1079 q 539 1070 532 1076 q 549 1054 547 1065 q 550 1024 551 1042 q 545 979 549 1006 q 527 912 538 949 q 504 843 515 875 q 477 770 492 812 q 453 694 463 728 q 440 677 450 684 q 420 671 430 671 q 404 677 412 671 q 397 691 396 682 z "},"#":{"ha":691,"x_min":20,"x_max":673,"o":"m 20 280 q 33 326 20 298 q 56 353 46 353 l 178 353 l 224 495 l 102 495 q 96 496 97 495 q 94 499 94 496 q 101 529 94 511 q 116 559 107 547 q 130 572 124 572 l 252 572 l 331 808 q 333 812 331 810 q 348 817 336 814 q 379 819 359 819 q 408 813 396 819 q 387 750 407 809 q 347 635 367 692 q 328 578 328 579 l 325 572 l 469 572 l 547 808 q 550 812 547 810 q 564 817 552 814 q 595 819 576 819 q 625 813 612 819 q 611 772 624 810 q 583 692 598 735 q 556 614 568 650 q 545 578 545 578 l 541 572 l 665 572 q 672 572 671 572 q 673 569 673 571 q 660 523 673 550 q 637 495 646 495 l 515 495 l 469 353 l 591 353 q 595 352 594 353 q 597 351 597 352 q 598 348 598 350 q 585 302 598 330 q 563 275 572 275 l 441 275 l 362 39 q 359 35 362 37 q 345 31 357 33 q 314 28 334 28 q 285 33 294 28 q 306 97 286 39 q 346 212 326 156 q 365 269 365 269 l 368 275 l 224 275 l 145 39 q 143 35 145 37 q 129 31 140 33 q 98 28 117 28 q 68 33 77 28 q 90 97 69 39 q 129 212 110 156 q 149 269 149 269 l 151 275 l 28 275 q 22 276 23 275 q 20 280 20 277 m 252 353 l 394 353 l 441 495 l 298 495 l 252 353 z "},"$":{"ha":672,"x_min":28,"x_max":646,"o":"m 33 139 q 30 166 33 139 q 28 225 28 193 q 29 274 28 258 q 45 280 33 278 q 66 283 57 283 q 82 274 77 283 q 92 204 82 241 q 126 130 102 168 q 186 70 151 92 l 314 441 q 282 465 305 448 q 249 491 259 482 q 219 516 239 499 q 190 546 199 534 q 166 578 180 558 q 146 615 153 597 q 135 657 140 633 q 130 708 130 682 q 140 778 130 744 q 168 840 150 812 q 209 891 185 867 q 261 934 233 916 q 319 965 289 952 q 381 984 350 978 q 442 991 412 991 q 506 988 465 991 l 529 1056 q 576 1045 578 1056 l 553 979 q 646 956 587 972 q 633 845 643 917 q 615 741 623 774 q 602 730 614 730 q 569 741 580 730 q 527 905 576 859 l 405 551 q 411 546 408 549 q 418 541 415 543 q 452 515 429 532 q 490 488 475 499 q 525 459 505 476 q 557 425 545 441 q 582 387 570 408 q 600 340 594 366 q 606 286 606 315 q 585 184 606 233 q 529 101 564 136 q 450 40 494 66 q 358 1 406 14 q 266 -12 311 -12 q 210 -7 238 -12 l 186 -81 q 154 -77 171 -81 q 138 -66 136 -73 l 162 3 q 46 50 125 14 q 33 139 37 86 m 231 48 q 288 40 259 40 q 353 52 321 40 q 413 85 386 63 q 456 141 439 106 q 473 218 473 176 q 467 270 473 245 q 451 311 460 294 q 424 347 441 328 q 393 378 407 366 q 355 408 378 390 l 231 48 m 246 773 q 255 711 246 739 q 282 659 264 682 q 318 618 300 635 q 363 581 336 602 l 484 929 q 420 939 458 939 q 342 924 377 939 q 287 884 307 909 q 256 831 267 859 q 246 773 246 803 z "},"%":{"ha":974,"x_min":3,"x_max":1000,"o":"m 3 -1 l 924 1008 q 959 1025 942 1025 q 1000 1005 992 1025 l 79 0 q 57 -12 73 -5 q 26 -18 41 -18 q 3 -1 7 -18 m 115 725 q 137 838 115 781 q 196 940 159 895 q 286 1013 233 985 q 396 1040 338 1040 q 473 1023 439 1040 q 528 978 507 1006 q 559 913 549 949 q 570 836 570 877 q 548 725 570 781 q 489 624 526 669 q 400 551 452 579 q 294 523 349 523 q 196 552 237 523 q 134 626 154 581 q 115 725 115 671 m 212 739 q 217 679 212 708 q 234 623 223 649 q 266 582 245 597 q 313 566 286 566 q 378 591 347 566 q 428 655 408 616 q 459 743 448 695 q 470 836 470 790 q 466 893 470 866 q 452 944 461 920 q 424 984 442 969 q 380 999 406 999 q 294 959 334 999 q 233 860 254 919 q 212 739 212 800 m 442 190 q 464 303 442 247 q 523 405 486 360 q 613 478 560 450 q 724 506 667 506 q 801 489 767 506 q 856 443 835 472 q 888 378 877 414 q 899 302 899 342 q 876 190 899 246 q 817 89 854 134 q 729 16 781 44 q 622 -12 677 -12 q 544 4 579 -12 q 488 50 509 21 q 454 114 466 78 q 442 190 442 150 m 540 204 q 545 143 540 173 q 562 88 551 114 q 593 47 573 62 q 640 31 614 31 q 706 56 675 31 q 755 120 736 81 q 786 208 775 160 q 798 302 798 255 q 793 358 798 331 q 779 409 789 385 q 751 449 770 434 q 708 464 733 464 q 622 424 661 464 q 561 325 583 384 q 540 204 540 265 z "},"&":{"ha":1207,"x_min":-11,"x_max":1204,"o":"m -11 165 q 33 292 -11 238 q 158 368 77 345 q 188 376 167 371 q 216 383 210 382 q 238 492 221 437 q 283 595 256 546 q 349 687 311 644 q 433 761 388 730 q 533 811 478 793 q 646 829 588 829 q 738 790 700 829 q 777 699 777 752 q 760 618 777 657 q 715 550 743 580 q 650 494 688 521 q 573 448 612 467 q 490 411 535 429 q 411 384 446 394 q 342 365 377 374 q 424 123 349 204 q 634 42 499 42 q 739 62 687 42 q 832 115 791 81 q 898 197 873 149 q 923 297 923 245 q 921 318 923 307 q 915 339 918 329 q 907 357 911 349 q 900 368 903 365 q 851 350 875 360 q 804 327 828 340 q 763 297 781 313 q 735 263 746 282 q 724 224 724 244 q 730 190 724 201 q 715 189 726 187 q 699 198 704 191 q 676 234 686 209 q 667 286 667 258 q 710 375 667 336 q 844 453 753 414 q 931 495 892 473 q 1013 552 970 517 q 1083 627 1055 587 q 1127 721 1111 666 q 1139 838 1143 776 q 1171 826 1156 840 q 1204 680 1204 758 q 1178 567 1204 621 q 1110 474 1152 513 q 1011 408 1067 435 q 1021 353 1021 390 q 984 218 1021 284 q 888 102 947 152 q 748 23 829 53 q 585 -7 668 -7 q 470 4 523 -7 q 370 41 416 15 q 289 105 323 66 q 236 202 256 144 q 215 334 216 260 q 157 317 181 326 q 111 298 134 309 q 78 271 89 286 q 66 238 66 256 q 68 223 66 230 q 74 212 70 217 q 81 204 78 207 q 90 197 83 201 q 98 190 96 192 q 112 177 106 182 q 122 161 117 172 q 127 139 127 151 q 107 90 127 107 q 59 73 88 73 q 20 81 34 73 q -2 118 6 92 q -11 165 -11 144 m 342 424 q 633 673 633 524 q 553 764 633 764 q 479 738 515 764 q 413 669 442 713 q 365 561 384 625 q 342 424 345 496 z "},"'":{"ha":279,"x_min":164,"x_max":319,"o":"m 165 691 q 172 807 172 753 q 169 912 172 862 q 165 983 165 962 q 181 1021 168 999 q 219 1061 195 1042 q 269 1079 243 1079 q 289 1078 281 1079 q 303 1074 296 1077 q 313 1063 310 1070 q 318 1045 317 1057 q 318 1018 319 1034 q 313 979 317 1002 q 268 833 303 930 q 221 694 233 736 q 208 677 218 684 q 189 671 198 671 q 172 677 180 671 q 165 691 164 682 z "},"(":{"ha":401,"x_min":67,"x_max":439,"o":"m 76 274 q 76 461 67 368 q 106 630 85 554 q 159 779 127 706 q 225 907 191 852 q 297 1013 258 962 q 367 1097 336 1064 q 429 1156 398 1129 q 439 1137 439 1152 q 371 1041 408 1101 q 293 891 334 981 q 220 703 252 801 q 173 485 189 605 q 167 254 157 366 q 216 -3 180 96 q 314 -169 252 -102 q 306 -187 314 -184 q 235 -137 271 -174 q 166 -45 199 -101 q 109 94 133 11 q 76 274 84 178 z "},")":{"ha":401,"x_min":-9,"x_max":364,"o":"m -7 -167 q 61 -71 24 -131 q 139 79 98 -12 q 211 267 180 169 q 258 485 242 365 q 264 716 274 604 q 215 972 251 873 q 117 1138 179 1072 q 125 1156 117 1154 q 197 1107 161 1143 q 266 1015 233 1071 q 323 875 298 958 q 355 696 347 792 q 355 508 364 601 q 325 339 346 415 q 273 191 304 263 q 207 63 241 118 q 134 -43 173 7 q 64 -127 95 -94 q 3 -187 33 -160 q -6 -178 -3 -185 q -7 -167 -9 -172 z "},"*":{"ha":618,"x_min":99,"x_max":622,"o":"m 99 705 q 102 725 99 715 q 115 746 106 734 q 144 766 123 758 q 193 773 164 773 q 259 768 218 773 q 314 762 300 762 q 353 789 353 762 q 345 814 353 799 q 325 847 336 830 q 302 883 313 865 q 282 923 290 902 q 274 963 274 945 q 290 1009 274 991 q 326 1027 305 1027 q 347 1022 338 1027 q 361 1006 355 1017 q 370 985 366 996 q 375 958 373 974 q 377 928 376 941 q 377 897 377 915 q 377 893 377 896 q 396 795 376 795 q 422 814 406 795 q 457 860 439 833 q 496 914 475 887 q 540 960 516 941 q 586 979 564 979 q 612 968 602 979 q 622 942 622 958 q 601 894 622 917 q 549 853 579 871 q 489 820 519 836 q 437 788 458 804 q 416 759 416 772 q 430 742 416 749 q 466 730 444 735 q 512 719 487 726 q 558 705 536 712 q 593 682 579 697 q 608 648 608 667 q 600 621 608 633 q 579 600 592 608 q 551 592 566 592 q 513 605 532 592 q 478 637 494 618 q 447 675 462 656 q 419 707 433 694 q 394 720 405 720 q 374 693 379 720 q 363 613 368 665 q 348 527 359 562 q 320 477 338 494 q 285 460 302 460 q 259 473 269 460 q 249 504 249 485 q 264 558 249 525 q 299 619 280 591 q 334 675 318 647 q 349 718 349 704 q 336 731 349 731 q 300 721 325 731 q 250 700 275 711 q 195 678 225 688 q 145 668 165 668 q 112 677 125 668 q 99 705 99 687 z "},"+":{"ha":702,"x_min":28,"x_max":657,"o":"m 28 348 q 48 402 28 376 l 314 402 l 365 673 q 382 688 367 682 q 410 695 397 694 q 429 697 422 697 q 440 694 437 697 q 442 685 444 690 l 388 402 l 652 402 q 657 390 657 402 q 654 360 657 372 q 639 336 650 349 l 376 336 l 321 60 q 303 42 319 50 q 267 35 287 35 q 246 48 246 35 l 302 336 l 35 336 q 28 348 28 336 z "},",":{"ha":309,"x_min":-43,"x_max":169,"o":"m -43 -138 q -18 -122 -33 -133 q 16 -94 -3 -111 q 48 -52 35 -77 q 62 -3 62 -28 q 55 50 62 29 q 42 86 49 70 q 35 122 35 102 q 60 178 35 157 q 121 199 85 199 q 147 195 134 199 q 164 184 159 190 q 169 147 169 172 q 113 -43 169 48 q 44 -124 84 -91 q -22 -169 5 -158 q -35 -158 -26 -169 q -43 -138 -43 -146 z "},"-":{"ha":573,"x_min":82,"x_max":475,"o":"m 82 331 q 93 375 82 347 q 115 404 103 403 l 465 422 q 475 404 475 422 q 469 375 475 393 q 455 341 464 357 q 439 325 446 326 l 90 308 q 82 331 82 308 z "},".":{"ha":321,"x_min":12,"x_max":182,"o":"m 12 51 q 44 125 12 93 q 116 158 77 158 q 164 138 146 158 q 182 88 182 119 q 151 12 182 45 q 81 -22 119 -22 q 31 -1 50 -22 q 12 51 12 20 z "},"/":{"ha":590,"x_min":-50,"x_max":697,"o":"m -50 -43 l 608 1143 q 637 1165 614 1153 q 679 1177 659 1177 q 697 1167 691 1177 l 42 -18 q 15 -40 37 -27 q -31 -53 -7 -53 q -42 -50 -35 -53 q -50 -43 -48 -46 z "},":":{"ha":365,"x_min":29,"x_max":304,"o":"m 29 53 q 62 130 29 96 q 134 164 94 164 q 163 158 150 164 q 185 142 176 153 q 199 119 194 132 q 204 90 204 105 q 172 12 204 46 q 99 -22 139 -22 q 48 0 68 -22 q 29 53 29 21 m 128 568 q 161 644 128 611 q 235 677 195 677 q 285 657 266 677 q 304 604 304 636 q 272 526 304 561 q 199 492 239 492 q 148 513 168 492 q 128 568 128 535 z "},";":{"ha":389,"x_min":-26,"x_max":330,"o":"m -26 -138 q -1 -122 -16 -133 q 33 -94 14 -111 q 65 -52 52 -77 q 79 -3 79 -28 q 72 50 79 29 q 59 86 66 70 q 53 122 53 102 q 78 178 53 157 q 138 199 102 199 q 164 195 151 199 q 181 184 176 190 q 186 147 186 172 q 130 -43 186 48 q 61 -124 101 -91 q -5 -169 22 -158 q -18 -158 -9 -169 q -26 -138 -26 -146 m 153 568 q 186 644 153 611 q 260 677 220 677 q 310 657 291 677 q 330 604 330 636 q 297 526 330 561 q 224 492 264 492 q 187 502 203 492 q 162 529 171 511 q 153 568 153 546 z "},"<":{"ha":691,"x_min":18,"x_max":661,"o":"m 18 314 q 54 372 18 354 l 643 662 q 650 663 646 663 q 657 645 653 663 q 661 609 661 626 q 660 600 661 606 q 657 587 659 594 q 652 578 655 580 l 134 323 l 558 63 q 562 56 562 62 q 545 10 562 41 q 523 -22 529 -22 q 517 -20 519 -22 l 34 274 q 18 314 18 284 z "},"=":{"ha":865,"x_min":53,"x_max":783,"o":"m 53 190 q 66 232 53 197 q 88 267 79 267 l 731 267 q 741 260 741 267 q 739 253 741 258 q 734 240 737 248 q 728 225 731 233 q 720 208 725 218 q 713 190 715 197 q 709 186 711 188 q 706 183 707 184 q 704 181 705 182 q 703 181 703 181 l 702 181 l 60 181 q 59 181 60 181 q 58 181 59 181 q 55 183 56 182 q 54 186 54 184 q 53 190 53 188 m 98 410 q 110 451 98 416 q 132 487 123 487 l 773 487 q 783 479 783 487 q 756 410 783 472 q 751 403 754 406 q 746 401 748 401 l 744 401 l 104 401 q 98 410 98 401 z "},">":{"ha":692,"x_min":-11,"x_max":640,"o":"m -11 51 q -3 63 -11 58 l 524 323 l 104 578 q 100 585 100 580 q 118 629 100 593 q 140 665 135 665 q 142 664 141 665 q 144 663 143 664 q 147 662 146 663 l 622 372 q 640 342 640 362 q 639 331 640 338 q 634 313 637 324 q 623 290 631 301 q 603 274 615 279 l 7 -20 q -1 -23 1 -23 q -11 51 -11 -23 z "},"?":{"ha":494,"x_min":62,"x_max":507,"o":"m 62 50 q 70 91 62 71 q 93 126 79 111 q 125 149 107 140 q 162 158 144 158 q 212 137 193 158 q 232 87 232 117 q 199 12 232 45 q 127 -22 166 -22 q 92 -12 107 -22 q 70 13 77 -3 q 62 50 62 29 m 102 437 q 113 494 102 469 q 140 534 125 519 q 178 566 155 550 q 357 690 305 652 q 429 807 429 739 q 418 858 429 837 q 390 889 408 879 q 348 900 372 900 q 314 892 329 900 q 290 875 300 885 q 272 854 281 865 q 250 836 262 844 q 221 829 237 829 q 194 837 205 829 q 178 859 183 846 q 171 884 173 872 q 169 909 169 897 q 184 929 172 918 q 216 951 197 941 q 257 969 234 962 q 302 976 281 976 q 406 946 357 976 q 480 870 454 916 q 507 777 507 824 q 500 716 507 743 q 479 663 494 688 q 439 615 464 638 q 355 557 418 596 q 261 496 292 517 q 221 456 233 477 q 210 404 210 435 q 222 361 210 383 q 247 326 235 338 q 271 304 260 313 q 266 292 271 300 q 255 280 260 283 q 216 293 241 280 q 165 326 191 305 q 120 377 139 347 q 102 437 102 407 z "},"@":{"ha":1173,"x_min":45,"x_max":1079,"o":"m 45 218 q 67 403 45 313 q 131 566 90 492 q 228 701 171 640 q 351 804 284 762 q 495 869 418 846 q 651 892 572 892 q 805 869 734 892 q 926 803 876 845 q 1011 704 976 762 q 1062 579 1046 647 q 1079 436 1079 511 q 1069 326 1079 378 q 1042 232 1059 273 q 1000 155 1024 191 q 949 94 977 120 q 892 48 921 68 q 833 16 863 28 q 775 -3 803 3 q 724 -9 748 -9 q 643 20 671 -9 q 615 90 615 50 q 623 151 615 111 q 631 201 625 161 q 603 156 619 180 q 561 102 586 132 q 511 48 536 72 q 457 8 486 24 q 402 -7 427 -7 q 302 44 339 -7 q 266 178 266 95 q 284 300 266 238 q 335 416 303 362 q 410 518 366 470 q 503 600 454 566 q 606 653 551 633 q 713 673 661 673 q 826 652 771 673 l 727 162 q 722 113 721 134 q 728 77 722 92 q 744 54 734 62 q 768 46 755 46 q 856 81 810 46 q 935 169 901 116 q 992 288 970 222 q 1015 413 1015 354 q 972 637 1015 542 q 845 785 930 732 q 639 838 760 838 q 508 818 574 838 q 384 760 443 797 q 273 666 324 722 q 184 543 222 610 q 125 391 146 475 q 104 216 104 307 q 144 43 104 126 q 248 -90 184 -39 q 319 -134 287 -121 q 269 -145 306 -145 q 209 -122 243 -145 q 155 -76 175 -99 q 70 66 96 -6 q 45 218 45 138 m 380 232 q 459 82 380 82 q 542 136 496 82 q 625 269 588 190 q 675 422 661 348 l 708 587 q 677 605 699 598 q 639 611 656 611 q 548 576 595 611 q 465 488 501 542 q 404 366 428 435 q 380 232 380 297 z "},"A":{"ha":906,"x_min":-86,"x_max":854,"o":"m -85 -5 q -86 1 -86 -3 q -84 15 -86 5 q -76 40 -81 31 q -29 48 -58 40 q 12 70 0 56 q 38 100 26 84 q 63 137 50 117 q 85 173 76 158 q 109 215 94 189 l 535 981 q 565 1011 545 998 q 597 1025 586 1025 q 604 1021 600 1025 l 738 195 q 746 145 741 173 q 752 105 750 118 q 755 90 754 92 q 764 71 757 79 q 782 57 772 62 q 803 48 792 52 q 824 43 813 45 q 841 41 835 41 q 852 40 848 40 q 854 27 854 35 q 853 16 854 22 q 847 -5 850 0 q 797 -2 833 -4 q 734 2 760 1 q 679 3 707 3 q 634 2 656 3 q 598 0 613 1 q 561 -2 584 -1 q 518 -5 538 -3 q 517 18 513 1 q 527 40 520 35 q 574 45 554 40 q 605 62 594 51 q 615 88 615 73 q 611 164 615 134 l 576 396 l 269 396 q 159 193 195 262 q 115 77 115 106 q 127 58 115 66 q 159 46 140 50 q 190 41 177 43 q 210 40 203 40 q 210 20 212 37 q 204 -5 208 3 q 159 -1 183 -3 q 115 2 136 1 q 66 3 94 3 q 15 2 37 3 q -34 -1 -7 1 q -85 -5 -60 -3 m 297 447 l 568 447 l 509 827 l 297 447 z "},"B":{"ha":875,"x_min":-10,"x_max":806,"o":"m -8 18 q 1 40 -4 34 q 62 47 23 40 q 105 65 100 54 q 110 75 107 69 q 114 86 112 81 q 117 100 115 92 q 121 114 119 109 q 124 130 122 119 q 128 145 127 140 q 131 163 129 150 q 134 179 134 176 l 263 840 q 278 947 278 917 q 278 954 278 951 q 243 972 278 966 q 184 979 208 979 q 183 1001 180 984 q 192 1023 185 1018 q 245 1020 207 1023 q 309 1017 283 1018 q 360 1016 335 1016 q 451 1018 385 1016 q 564 1019 518 1019 q 658 1008 615 1019 q 734 975 701 997 q 787 916 768 953 q 806 830 806 879 q 620 566 806 663 q 663 553 641 564 q 706 523 686 543 q 743 479 727 504 q 769 420 760 454 q 779 349 779 386 q 745 205 779 272 q 649 93 710 139 q 505 21 589 47 q 323 -5 420 -5 l -7 -5 q -10 5 -10 -1 q -8 18 -9 10 m 247 95 q 246 81 246 87 q 249 66 246 70 q 285 45 260 50 q 357 40 310 40 q 468 60 417 40 q 555 118 518 81 q 612 213 591 155 q 633 340 633 270 q 633 342 633 341 q 632 361 633 354 q 630 385 632 369 q 625 411 628 400 q 613 437 621 422 q 595 464 606 453 q 568 488 585 475 q 530 507 551 500 q 479 519 509 515 q 414 524 450 524 l 326 524 l 258 176 q 252 141 255 163 q 247 95 249 119 m 337 572 l 482 572 q 577 603 534 572 q 645 688 620 634 q 669 807 669 743 q 660 870 669 842 q 631 923 651 899 q 576 960 612 947 q 493 974 541 974 q 418 959 426 974 q 414 951 416 956 q 411 942 412 947 q 407 931 409 936 q 404 918 406 926 q 401 904 402 910 q 397 889 399 899 q 394 874 395 880 q 391 858 393 869 q 388 843 389 848 l 337 572 z "},"C":{"ha":997,"x_min":92,"x_max":968,"o":"m 92 410 q 116 591 92 505 q 183 745 140 677 q 285 868 226 813 q 414 959 345 923 q 562 1013 484 994 q 703 1029 631 1030 q 719 1029 711 1029 q 809 1022 761 1029 q 887 1008 857 1015 q 968 989 918 1002 q 952 764 958 821 q 948 758 952 760 q 940 756 945 756 q 905 764 920 756 q 905 776 905 770 q 878 875 905 830 q 793 954 847 925 q 674 982 739 982 q 504 943 584 982 q 365 836 425 905 q 271 662 305 765 q 238 441 237 560 q 238 436 238 438 q 248 323 238 378 q 282 215 258 268 q 342 121 307 161 q 432 57 378 81 q 553 33 486 33 q 880 267 757 33 q 899 264 888 267 q 917 258 910 261 l 923 255 q 873 143 918 231 q 812 43 828 56 q 682 0 751 12 q 510 -12 614 -12 q 339 22 418 -12 q 207 113 260 56 q 122 247 153 170 q 92 410 92 324 z "},"D":{"ha":1057,"x_min":-10,"x_max":1009,"o":"m -8 18 q 1 40 -4 34 q 62 47 23 40 q 105 65 100 54 q 110 75 107 69 q 114 86 112 81 q 117 100 115 92 q 121 114 119 109 q 124 130 122 119 q 128 145 127 140 q 131 163 129 150 q 134 179 134 176 l 263 840 q 264 849 264 843 q 279 945 279 918 q 278 954 279 950 q 241 972 277 965 q 184 979 205 979 q 183 1001 180 984 q 192 1023 185 1018 q 245 1020 207 1023 q 309 1017 283 1018 q 360 1016 335 1016 q 462 1017 387 1016 q 569 1017 536 1017 q 720 1000 651 1017 q 840 951 789 983 q 929 874 891 920 q 985 773 966 829 q 1008 652 1004 718 q 1009 623 1008 637 q 998 517 1009 572 q 972 419 987 466 q 934 325 957 372 q 881 236 911 277 q 813 158 851 195 q 727 92 775 121 q 623 41 679 62 q 498 7 567 19 q 353 -5 429 -4 l -7 -5 q -10 5 -10 -1 q -8 18 -9 10 m 246 62 q 359 40 256 40 q 489 57 426 40 q 610 110 552 74 q 715 197 668 146 q 797 322 762 249 q 849 484 831 395 q 865 630 865 564 q 864 669 865 650 q 831 808 857 750 q 759 903 806 866 q 654 958 713 941 q 523 976 595 976 q 489 975 507 976 q 447 970 471 974 q 419 959 422 966 q 412 943 416 951 q 406 920 409 934 q 400 898 402 905 q 395 870 399 891 q 390 844 391 849 l 258 173 q 248 110 254 152 q 245 72 245 84 q 246 62 245 64 z "},"E":{"ha":857,"x_min":-11,"x_max":826,"o":"m -9 18 q 0 40 -7 34 q 13 41 5 40 q 33 43 22 41 q 56 46 44 44 q 78 51 68 48 q 96 57 88 54 q 105 65 103 61 q 110 75 107 69 q 114 86 112 81 q 117 100 115 92 q 121 114 119 109 q 124 130 122 119 q 128 145 127 140 q 131 163 129 150 q 134 179 134 176 l 263 840 q 277 943 277 912 q 277 954 277 949 q 240 972 276 965 q 182 979 204 979 q 182 1001 179 984 q 192 1023 185 1018 q 245 1020 207 1023 q 309 1017 283 1018 q 360 1016 335 1016 q 584 1021 425 1016 q 824 1027 743 1027 q 822 984 822 1016 q 823 918 822 958 q 826 817 826 829 q 798 808 818 808 q 781 819 781 808 q 767 896 778 865 q 738 943 757 926 q 697 967 720 960 q 645 974 675 974 l 521 974 q 488 973 506 974 q 446 968 469 972 q 419 957 422 964 q 388 846 403 924 l 331 549 q 347 542 330 544 q 391 540 363 540 l 467 540 q 510 540 494 540 q 544 543 527 540 q 569 547 560 545 q 588 555 578 548 q 603 567 598 562 q 615 584 608 571 q 627 607 623 597 q 640 637 631 616 q 646 651 644 646 q 671 662 650 662 q 692 654 688 662 l 637 362 q 612 355 631 355 q 592 368 595 355 q 585 449 589 430 q 572 476 581 469 q 422 488 556 488 q 315 475 319 488 l 255 169 q 241 76 241 101 q 244 62 241 64 q 265 51 252 54 q 293 47 278 47 q 343 46 307 46 l 411 46 q 603 94 530 46 q 724 250 671 140 q 747 260 728 260 q 768 257 758 260 q 781 250 779 254 q 737 169 771 231 q 683 65 703 106 q 652 -6 663 24 q 422 -3 579 -6 q 164 0 264 0 q 73 -2 128 0 q -7 -5 18 -5 q -10 7 -10 -1 q -9 18 -11 12 z "},"F":{"ha":785,"x_min":-11,"x_max":826,"o":"m -9 18 q 0 40 -7 34 q 13 41 5 40 q 33 43 22 41 q 56 46 44 44 q 78 51 68 48 q 96 57 88 54 q 105 65 103 61 q 110 75 107 69 q 114 86 112 81 q 117 100 115 92 q 121 114 119 109 q 124 130 122 119 q 128 145 127 140 q 131 163 129 150 q 134 179 134 176 l 263 840 q 277 943 277 912 q 277 954 277 949 q 240 972 276 965 q 182 979 204 979 q 182 1001 179 984 q 192 1023 185 1018 q 245 1020 207 1023 q 309 1017 283 1018 q 360 1016 335 1016 q 584 1021 425 1016 q 824 1027 743 1027 q 822 984 822 1016 q 823 918 822 958 q 826 817 826 829 q 798 808 818 808 q 781 819 781 808 q 767 896 778 865 q 738 943 757 926 q 697 967 720 960 q 645 974 675 974 l 521 974 q 488 973 506 974 q 446 968 469 972 q 419 957 422 964 q 388 846 403 924 l 331 549 q 347 542 330 544 q 391 540 363 540 l 467 540 q 510 540 494 540 q 544 543 527 540 q 569 547 560 545 q 588 555 578 548 q 603 567 598 562 q 615 584 608 571 q 627 607 623 597 q 640 637 631 616 q 646 651 644 646 q 671 662 650 662 q 692 654 688 662 l 637 362 q 612 355 631 355 q 592 368 595 355 q 585 449 589 430 q 572 476 581 469 q 422 488 556 488 q 315 475 319 488 l 258 179 q 243 75 243 106 q 244 65 243 69 q 287 47 245 54 q 353 40 329 40 q 353 18 356 35 q 343 -5 350 1 q 162 3 197 3 q 73 -1 127 3 q -7 -5 18 -5 q -10 7 -10 -1 q -9 18 -11 12 z "},"G":{"ha":1078,"x_min":92,"x_max":1030,"o":"m 92 410 q 116 591 92 505 q 183 745 140 677 q 285 868 226 813 q 414 959 345 923 q 562 1013 484 994 q 703 1029 631 1029 q 719 1029 711 1029 q 809 1022 761 1029 q 887 1008 857 1015 q 968 989 918 1002 q 963 920 966 965 q 957 827 960 875 q 952 764 954 779 q 948 758 952 760 q 940 756 945 756 q 905 764 920 756 q 905 776 905 770 q 878 875 905 829 q 793 954 847 925 q 674 982 739 982 q 504 943 584 982 q 365 835 425 905 q 271 662 306 766 q 238 441 238 561 q 238 436 238 439 q 249 323 238 379 q 283 215 259 268 q 342 121 307 161 q 431 57 378 81 q 549 33 484 33 q 645 48 599 33 q 722 85 692 64 q 738 111 735 94 l 768 271 q 770 280 769 274 q 785 378 785 351 q 784 385 785 382 q 744 403 783 396 q 682 410 705 410 q 681 432 678 415 q 690 454 683 449 q 743 451 705 454 q 806 448 780 449 q 857 447 831 447 q 908 448 882 447 q 972 451 935 449 q 1027 454 1010 454 q 1030 442 1030 451 q 1029 433 1030 438 q 1021 410 1027 416 q 963 403 1000 410 q 922 385 926 396 q 917 375 920 380 q 913 364 915 369 q 909 350 911 359 q 906 336 907 341 q 902 320 905 331 q 899 305 900 309 q 896 288 898 300 q 892 271 893 275 l 871 161 q 870 126 866 146 q 873 105 873 106 q 840 71 873 88 q 828 65 836 69 q 771 37 793 47 q 708 14 749 27 q 616 -6 667 0 q 501 -12 565 -12 q 337 22 414 -12 q 207 113 260 56 q 122 248 153 170 q 92 410 92 325 z "},"H":{"ha":1061,"x_min":-11,"x_max":1109,"o":"m -9 18 q 0 40 -7 34 q 13 41 5 40 q 33 43 22 41 q 56 46 44 44 q 78 51 68 48 q 96 57 88 54 q 105 65 103 61 q 110 75 107 69 q 114 86 112 81 q 117 100 115 92 q 121 114 119 109 q 124 130 122 119 q 128 145 127 140 q 131 163 129 150 q 134 179 134 176 l 263 840 q 277 943 277 912 q 277 954 277 949 q 240 972 276 965 q 182 979 204 979 q 182 1001 179 984 q 192 1023 185 1018 q 245 1020 207 1023 q 309 1017 283 1018 q 360 1016 335 1016 q 412 1017 385 1016 q 476 1020 438 1018 q 530 1023 514 1023 q 531 1001 534 1017 q 521 979 527 985 q 461 972 499 979 q 418 954 422 965 q 388 840 402 923 l 331 551 l 783 551 l 840 840 q 844 867 841 848 q 849 893 848 886 q 852 917 850 900 q 854 937 854 933 q 854 954 854 941 q 817 972 852 965 q 759 979 781 979 q 759 1001 755 984 q 768 1023 762 1018 q 822 1020 783 1023 q 886 1017 860 1018 q 937 1016 912 1016 q 988 1017 962 1016 q 1053 1020 1015 1018 q 1107 1023 1090 1023 q 1109 1013 1109 1020 q 1108 1001 1109 1008 q 1098 979 1104 985 q 1065 976 1086 979 q 1021 968 1044 974 q 994 954 998 962 q 990 946 992 950 q 987 937 989 941 q 984 927 986 933 q 981 917 983 921 q 978 905 980 912 q 976 893 977 898 q 973 880 975 888 q 970 867 971 872 q 967 853 969 862 q 965 840 966 844 l 836 179 q 835 170 836 176 q 821 75 821 102 q 821 65 821 69 q 858 47 822 54 q 916 40 894 40 q 916 18 919 35 q 906 -5 913 1 q 853 -2 890 -4 q 790 2 816 1 q 739 3 764 3 q 688 2 714 3 q 623 -2 661 1 q 569 -5 585 -4 q 568 18 565 1 q 576 40 571 34 q 610 42 588 40 q 655 51 631 45 q 682 65 678 57 q 686 74 684 69 q 690 84 688 78 q 693 95 692 90 q 696 108 694 100 q 699 120 698 115 q 702 135 701 125 q 705 149 704 144 q 708 164 706 154 q 711 179 710 175 l 772 488 l 320 488 l 260 179 q 258 170 259 176 q 243 73 243 100 q 244 65 243 68 q 281 47 245 54 q 338 40 317 40 q 339 18 342 35 q 330 -5 336 1 q 277 -2 313 -4 q 215 2 240 1 q 164 3 189 3 q 113 2 139 3 q 47 -2 86 1 q -7 -5 8 -4 q -10 7 -10 -1 q -9 18 -11 12 z "},"I":{"ha":484,"x_min":-11,"x_max":532,"o":"m -9 18 q 0 40 -7 34 q 13 41 5 40 q 33 43 22 41 q 56 46 44 44 q 78 51 68 48 q 96 57 88 54 q 105 65 103 61 q 110 75 107 69 q 114 86 112 81 q 117 100 115 92 q 121 114 119 109 q 124 130 122 119 q 128 145 127 140 q 131 163 129 150 q 134 179 134 176 l 263 840 q 277 943 277 912 q 277 954 277 949 q 240 972 276 965 q 182 979 204 979 q 182 1001 179 984 q 192 1023 185 1018 q 245 1020 207 1023 q 309 1017 283 1018 q 360 1016 335 1016 q 412 1017 385 1016 q 476 1020 438 1018 q 530 1023 514 1023 q 532 1015 532 1020 q 530 1001 532 1009 q 521 979 526 985 q 461 972 499 979 q 418 954 422 965 q 413 944 415 949 q 409 933 411 938 q 405 919 408 928 q 401 905 403 910 q 398 889 400 901 q 395 874 396 878 q 391 857 394 869 q 388 840 389 844 l 260 179 q 258 170 259 176 q 243 73 243 100 q 244 65 243 68 q 281 47 245 54 q 338 40 317 40 q 339 18 342 35 q 330 -5 336 1 q 277 -2 313 -4 q 215 2 240 1 q 164 3 189 3 q 113 2 139 3 q 47 -2 86 1 q -7 -5 8 -4 q -10 7 -10 -1 q -9 18 -11 12 z "},"J":{"ha":484,"x_min":-167,"x_max":524,"o":"m -167 -340 l -165 -331 q -73 -286 -113 -315 q -2 -218 -33 -258 q 53 -119 28 -178 q 95 7 77 -61 q 130 169 113 76 l 254 840 q 258 867 255 848 q 263 893 262 886 q 266 917 264 900 q 268 937 269 933 q 267 954 267 941 q 231 972 267 965 q 173 979 195 979 q 173 1001 170 984 q 182 1023 176 1018 q 236 1020 197 1023 q 300 1017 274 1018 q 351 1016 326 1016 q 402 1017 376 1016 q 467 1020 429 1018 q 521 1023 505 1023 q 524 1013 524 1020 q 522 1001 524 1008 q 512 979 518 985 q 452 972 490 979 q 408 954 413 965 q 379 840 393 923 l 254 179 q 219 39 239 105 q 173 -77 198 -26 q 121 -171 149 -128 q 63 -243 93 -213 q 3 -297 33 -274 q -56 -334 -26 -320 q -112 -354 -85 -347 q -162 -360 -138 -360 q -167 -340 -167 -353 z "},"K":{"ha":949,"x_min":-9,"x_max":1030,"o":"m -8 18 q 1 40 -5 34 q 62 47 23 40 q 105 65 100 54 q 110 75 107 69 q 114 86 112 81 q 117 100 115 92 q 121 114 119 109 q 124 130 122 119 q 128 145 127 140 q 131 163 129 150 q 134 179 134 176 l 263 840 q 264 849 264 843 q 279 945 279 918 q 278 954 279 950 q 241 972 277 965 q 184 979 205 979 q 183 1001 180 984 q 193 1023 186 1018 q 247 1020 208 1023 q 311 1017 285 1018 q 362 1016 337 1016 q 413 1017 387 1016 q 476 1020 439 1018 q 530 1023 513 1023 q 532 1001 535 1018 q 523 979 528 985 q 461 972 500 979 q 418 954 422 965 q 413 944 415 949 q 409 933 411 938 q 405 919 408 928 q 401 905 403 910 q 398 889 400 901 q 395 874 396 878 q 391 857 394 869 q 388 840 389 844 l 328 526 q 519 679 377 555 q 569 722 537 694 q 609 757 602 750 q 637 782 617 764 q 663 806 657 800 q 684 827 669 812 q 712 856 700 843 q 744 890 724 869 q 773 939 770 920 q 768 961 776 952 q 744 973 760 970 q 719 977 728 976 q 701 977 710 977 q 701 999 698 984 q 710 1023 704 1013 q 760 1020 726 1023 q 821 1016 794 1017 q 872 1015 848 1015 q 963 1019 909 1015 q 1029 1023 1016 1023 q 1030 1017 1030 1021 q 1027 996 1029 1009 q 1017 977 1023 977 q 1008 977 1017 977 q 991 975 1000 976 q 970 972 983 974 q 945 966 958 970 q 919 956 932 962 q 891 941 905 950 q 865 920 877 932 q 781 842 821 878 q 700 768 742 805 q 630 707 658 731 q 549 637 602 682 q 467 566 496 591 q 464 541 455 556 q 527 438 510 465 q 581 351 543 411 q 639 259 618 290 q 689 185 660 227 q 744 111 718 144 q 801 62 769 80 q 886 40 833 45 q 885 19 890 35 q 877 -5 880 3 q 675 12 717 -5 q 591 79 625 34 q 343 470 554 130 q 331 475 342 475 q 317 471 323 475 l 260 179 q 245 77 245 109 q 246 65 245 70 q 283 47 247 54 q 340 40 319 40 q 341 18 344 35 q 331 -5 338 1 q 278 -2 315 -4 q 215 2 241 1 q 164 3 189 3 q 113 2 139 3 q 48 -2 86 1 q -6 -5 10 -4 q -9 7 -9 -1 q -8 18 -9 12 z "},"L":{"ha":819,"x_min":-10,"x_max":781,"o":"m -8 18 q 1 40 -4 34 q 62 47 23 40 q 105 65 100 54 q 110 75 107 69 q 114 86 112 81 q 117 100 115 92 q 121 114 119 109 q 124 130 122 119 q 128 145 127 140 q 131 163 129 150 q 134 179 134 176 l 263 840 q 264 849 264 843 q 279 945 279 918 q 278 954 279 950 q 241 972 277 965 q 184 979 205 979 q 183 1001 180 984 q 192 1023 185 1018 q 245 1020 207 1023 q 309 1017 283 1018 q 360 1016 335 1016 q 412 1017 385 1016 q 476 1020 438 1018 q 530 1023 514 1023 q 531 1001 534 1017 q 521 979 527 985 q 461 972 499 979 q 418 954 422 965 q 413 944 415 949 q 409 933 411 938 q 405 919 408 928 q 401 905 403 910 q 398 889 400 901 q 395 874 396 878 q 391 857 394 869 q 388 840 389 844 l 256 173 q 242 74 242 99 q 244 62 242 64 q 265 51 252 54 q 293 47 278 47 q 343 46 307 46 l 425 46 q 512 57 467 46 q 592 88 557 68 q 724 250 667 131 q 747 260 728 260 q 768 257 758 260 q 781 250 779 254 q 737 169 771 231 q 683 65 703 106 q 652 -6 663 24 q 422 -3 579 -6 q 164 0 264 0 q 73 -2 128 0 q -7 -5 18 -5 q -10 5 -10 -1 q -8 18 -9 10 z "},"M":{"ha":1295,"x_min":-38,"x_max":1326,"o":"m -37 -5 q -38 -1 -38 -4 q -36 15 -38 4 q -28 40 -33 31 q 39 47 -5 40 q 93 68 82 55 q 125 145 113 91 q 186 412 155 277 q 238 645 216 547 q 273 808 259 743 q 289 884 288 873 q 296 935 296 917 q 295 946 296 942 q 257 968 294 958 q 201 979 220 979 q 200 989 200 982 q 202 1003 201 996 q 206 1016 203 1010 q 210 1023 208 1022 q 349 1017 300 1017 q 475 1023 410 1017 q 518 778 479 981 q 593 395 557 576 q 629 215 630 215 q 715 371 629 215 q 890 682 802 526 l 977 838 q 1020 916 995 869 q 1061 993 1044 962 l 1076 1023 q 1184 1017 1166 1017 q 1326 1023 1253 1017 l 1324 979 q 1263 970 1303 979 q 1215 951 1223 961 q 1197 892 1203 928 l 1079 216 q 1066 98 1066 143 q 1068 66 1066 80 q 1106 46 1070 53 q 1163 40 1141 40 q 1163 14 1166 28 q 1158 -5 1161 0 q 1107 -2 1145 -4 q 1043 2 1069 1 q 988 3 1017 3 q 931 2 958 3 q 870 -1 905 1 q 813 -5 836 -3 q 814 15 812 -1 q 823 40 817 32 q 873 45 840 40 q 920 57 907 50 q 945 122 932 64 q 966 251 947 132 q 1017 565 985 370 q 1067 875 1048 760 q 945 661 1058 861 q 723 269 831 461 l 614 76 q 580 30 605 60 q 545 -3 555 -1 q 541 -4 543 -4 q 538 -3 539 -3 q 535 -1 537 -2 q 532 0 533 -1 l 355 903 q 311 694 336 809 q 265 484 286 580 q 225 304 244 387 q 196 170 207 221 q 184 116 184 119 q 180 83 180 98 q 181 68 180 75 q 209 51 183 58 q 257 42 235 44 q 289 40 278 40 q 291 25 292 35 q 287 7 290 16 q 283 -5 285 -2 q 236 -1 264 -3 q 184 2 208 1 q 133 3 161 3 q 77 2 103 3 q 19 -1 52 1 q -37 -5 -14 -3 z "},"N":{"ha":1131,"x_min":-20,"x_max":1198,"o":"m -19 14 q -9 40 -16 28 q 55 50 11 40 q 109 71 99 59 q 128 110 121 88 q 144 176 136 132 l 274 847 q 283 913 282 895 q 280 952 285 932 q 237 971 276 964 q 175 979 197 979 q 174 1005 172 992 q 182 1023 177 1017 q 223 1021 203 1023 q 255 1019 243 1020 q 282 1018 267 1019 q 314 1017 297 1017 q 441 1023 360 1017 q 541 831 461 972 q 715 520 620 690 q 857 250 810 351 l 971 836 q 981 904 979 881 q 981 911 981 907 q 976 948 981 930 q 934 970 970 962 q 872 979 897 979 q 871 1002 869 987 q 877 1023 873 1017 q 1034 1017 991 1017 q 1079 1018 1058 1017 q 1114 1019 1100 1019 q 1152 1021 1128 1020 q 1195 1023 1177 1023 q 1198 1011 1198 1020 q 1198 1005 1198 1009 q 1189 979 1196 990 q 1125 970 1168 979 q 1073 949 1082 962 q 1054 911 1061 932 q 1039 844 1048 890 l 917 215 q 878 -1 888 66 q 852 -7 872 -7 q 830 2 842 -7 q 810 28 818 12 l 347 880 l 210 178 q 202 130 204 145 q 199 99 199 114 q 204 71 199 83 q 228 56 207 64 q 273 44 250 49 q 308 40 296 40 q 308 17 311 31 q 302 -5 306 3 q 252 -1 285 -3 q 194 2 220 1 q 140 3 169 3 q 87 2 111 3 q 35 -1 64 1 q -18 -5 5 -3 q -20 4 -20 -2 q -19 14 -20 8 z "},"O":{"ha":1097,"x_min":94,"x_max":1039,"o":"m 94 422 q 115 590 94 509 q 174 738 136 671 q 262 859 211 804 q 375 950 314 913 q 504 1008 435 987 q 642 1028 572 1028 q 807 995 732 1028 q 932 902 882 961 q 1011 763 983 844 q 1039 591 1039 683 q 1019 420 1039 502 q 964 272 1000 338 q 877 151 928 205 q 767 60 827 97 q 637 3 707 23 q 493 -17 567 -17 q 326 17 401 -17 q 199 111 250 52 q 122 250 149 170 q 94 422 94 330 m 239 414 q 243 337 239 374 q 256 260 247 299 q 278 188 264 221 q 313 124 292 154 q 361 73 334 94 q 426 40 389 52 q 507 28 463 28 q 618 52 565 28 q 713 117 671 75 q 789 214 755 158 q 846 334 823 270 q 881 469 869 399 q 894 608 894 538 q 890 675 894 642 q 879 747 887 709 q 858 818 871 785 q 824 881 845 850 q 776 934 803 912 q 711 969 749 956 q 628 982 673 982 q 513 955 570 982 q 407 875 456 927 q 320 755 358 823 q 261 598 283 686 q 239 414 239 509 z "},"P":{"ha":790,"x_min":-11,"x_max":808,"o":"m -9 18 q 0 40 -7 34 q 13 41 5 40 q 33 43 22 41 q 56 46 44 44 q 78 51 68 48 q 96 57 88 54 q 105 65 103 61 q 110 75 107 69 q 114 86 112 81 q 117 100 115 92 q 121 114 119 109 q 124 130 122 119 q 128 145 127 140 q 131 163 129 150 q 134 179 134 176 l 263 840 q 277 943 277 912 q 277 954 277 949 q 240 972 276 965 q 182 979 204 979 q 182 1001 179 984 q 192 1023 185 1018 q 363 1016 338 1016 q 435 1018 387 1016 q 529 1019 483 1019 q 730 955 652 1019 q 808 785 808 890 q 779 648 808 713 q 699 536 749 583 q 584 463 650 490 q 448 436 518 436 q 406 441 426 436 q 379 452 385 446 q 371 463 376 454 q 366 476 366 471 q 372 482 366 479 q 424 476 385 476 q 511 497 467 476 q 590 555 555 518 q 649 646 626 591 q 671 764 671 701 q 492 974 671 974 q 418 959 426 974 q 414 951 416 956 q 411 942 412 947 q 407 931 409 936 q 404 918 406 926 q 401 904 402 910 q 397 889 399 899 q 394 874 395 880 q 391 858 393 869 q 388 843 389 848 l 258 179 q 243 75 243 106 q 244 65 243 69 q 281 47 245 54 q 338 40 317 40 q 339 18 342 35 q 330 -5 336 1 q 277 -2 314 -4 q 213 2 239 1 q 162 3 187 3 q 111 2 137 3 q 47 -2 85 1 q -7 -5 9 -4 q -10 7 -10 -1 q -9 18 -11 12 z "},"Q":{"ha":1097,"x_min":94,"x_max":1059,"o":"m 94 422 q 115 590 94 509 q 174 738 136 671 q 262 859 211 804 q 375 950 314 913 q 504 1008 435 987 q 642 1028 572 1028 q 807 995 732 1028 q 932 902 882 961 q 1011 763 983 844 q 1039 591 1039 683 q 1005 371 1039 474 q 911 191 971 267 q 771 63 852 115 q 597 -6 690 12 q 656 -43 622 -21 q 709 -77 690 -66 q 757 -102 728 -89 q 817 -120 785 -115 q 889 -125 848 -125 q 969 -118 926 -125 q 1029 -105 1012 -111 q 1048 -113 1038 -105 q 1059 -125 1059 -121 q 787 -210 892 -210 q 702 -194 745 -210 q 619 -152 659 -178 q 540 -98 579 -125 q 450 -40 500 -70 q 353 6 400 -11 q 163 162 231 50 q 94 422 94 274 m 239 414 q 243 337 239 374 q 256 260 247 299 q 278 188 264 221 q 313 124 292 154 q 361 73 334 94 q 426 40 389 52 q 507 28 463 28 q 618 52 565 28 q 713 117 671 75 q 789 214 755 158 q 846 334 823 270 q 881 469 869 399 q 894 608 894 538 q 890 675 894 642 q 879 747 887 709 q 858 818 871 785 q 824 881 845 850 q 776 934 803 912 q 711 969 749 956 q 628 982 673 982 q 513 955 570 982 q 407 875 456 927 q 320 755 358 823 q 261 598 283 686 q 239 414 239 509 z "},"R":{"ha":895,"x_min":-11,"x_max":867,"o":"m -9 18 q 0 40 -7 34 q 13 41 5 40 q 33 43 22 41 q 56 46 44 44 q 78 51 68 48 q 96 57 88 54 q 105 65 103 61 q 110 75 107 69 q 114 86 112 81 q 117 100 115 92 q 121 114 119 109 q 124 130 122 119 q 128 145 127 140 q 131 163 129 150 q 134 179 134 176 l 263 840 q 277 943 277 912 q 277 954 277 949 q 240 972 276 965 q 182 979 204 979 q 182 1001 179 984 q 192 1023 185 1018 q 365 1016 338 1016 q 456 1018 389 1016 q 569 1019 523 1019 q 645 1010 609 1019 q 711 984 680 1002 q 763 940 741 966 q 798 879 785 914 q 810 801 810 843 q 788 697 810 747 q 728 608 765 646 q 647 541 690 570 q 557 495 603 511 q 641 292 593 397 q 720 133 688 188 q 778 64 748 84 q 865 40 808 45 q 866 35 866 38 q 865 26 867 31 q 860 7 863 15 q 855 -5 857 -1 q 794 -4 819 -5 q 740 0 768 -3 q 690 7 711 2 q 650 21 670 13 q 617 42 631 29 q 594 73 603 56 q 512 248 557 144 q 431 450 467 353 q 391 469 425 469 l 315 469 l 260 179 q 258 170 259 176 q 243 73 243 100 q 244 65 243 68 q 281 47 245 54 q 338 40 317 40 q 339 18 342 35 q 330 -5 336 1 q 277 -2 313 -4 q 215 2 240 1 q 164 3 189 3 q 113 2 139 3 q 47 -2 86 1 q -7 -5 8 -4 q -10 7 -10 -1 q -9 18 -11 12 m 325 515 l 402 515 q 455 520 429 515 q 509 537 482 526 q 560 564 536 548 q 605 604 584 581 q 640 654 625 627 q 664 717 655 682 q 673 791 673 752 q 670 836 673 814 q 655 883 667 857 q 625 928 644 909 q 573 961 607 947 q 493 974 538 974 q 418 959 426 974 q 414 951 416 956 q 411 942 412 947 q 407 931 409 936 q 404 918 406 926 q 401 904 402 910 q 397 889 399 899 q 394 874 395 880 q 391 858 393 869 q 388 843 389 848 l 325 515 z "},"S":{"ha":730,"x_min":52,"x_max":694,"o":"m 53 285 q 68 291 56 289 q 92 294 81 294 q 106 285 102 294 q 112 236 106 262 q 127 182 117 210 q 155 127 137 153 q 194 80 172 101 q 248 46 216 59 q 317 34 280 34 q 413 56 369 34 q 485 123 457 79 q 513 227 513 168 q 509 272 513 251 q 498 310 504 294 q 479 345 492 326 q 457 374 466 363 q 429 402 448 385 q 400 428 410 420 q 366 454 390 436 q 319 490 350 468 q 270 525 289 511 q 228 563 252 539 q 191 609 204 587 q 168 665 177 631 q 158 736 158 698 q 178 834 158 787 q 231 917 197 882 q 306 977 264 951 q 394 1016 348 1003 q 482 1029 439 1029 q 545 1026 514 1029 q 592 1019 576 1022 q 644 1006 608 1015 q 694 993 680 996 q 680 881 691 955 q 662 770 669 806 q 646 759 661 759 q 614 770 625 759 q 614 798 614 784 q 585 925 614 876 q 470 982 549 982 q 387 965 425 982 q 326 922 349 949 q 291 865 303 896 q 278 804 278 834 q 283 755 278 778 q 299 712 288 732 q 322 676 311 692 q 352 645 333 661 q 385 617 371 628 q 421 590 398 607 q 456 563 444 572 q 492 536 469 553 q 531 507 516 519 q 567 477 546 495 q 601 442 587 459 q 626 403 614 425 q 645 355 639 381 q 651 298 651 328 q 630 193 651 243 q 575 106 610 142 q 495 42 540 69 q 399 1 450 15 q 298 -12 349 -12 q 71 53 183 -12 q 54 186 58 107 q 52 254 52 229 q 53 285 52 275 z "},"T":{"ha":907,"x_min":92,"x_max":970,"o":"m 92 773 q 181 1039 135 884 q 212 1034 193 1045 q 249 1020 224 1027 q 289 1013 273 1013 l 850 1013 q 897 1021 867 1013 q 942 1036 927 1029 q 958 1042 953 1042 q 959 1042 959 1042 q 970 1039 964 1042 q 956 773 956 869 q 942 765 951 769 q 924 762 933 761 q 906 770 909 762 q 906 779 906 774 q 883 907 906 859 q 807 959 859 959 l 625 959 l 471 179 q 470 170 471 176 q 456 75 456 102 q 456 65 456 69 q 478 51 457 57 q 519 42 498 45 q 551 40 539 40 q 552 18 554 35 q 543 -5 549 1 q 490 -2 527 -4 q 427 2 452 1 q 376 3 401 3 q 324 2 351 3 q 259 -2 298 1 q 204 -5 220 -4 q 204 18 200 1 q 214 40 208 34 q 274 47 235 40 q 317 65 312 54 q 321 75 319 69 q 325 86 323 81 q 329 100 327 92 q 333 114 332 109 q 336 130 334 119 q 339 145 338 140 q 343 163 340 150 q 347 179 346 176 l 499 959 l 314 959 q 247 934 279 959 q 187 867 214 909 q 139 770 161 826 q 117 762 134 762 q 92 773 100 760 z "},"U":{"ha":1022,"x_min":141,"x_max":1114,"o":"m 151 388 l 239 840 q 241 849 240 843 q 256 947 256 920 q 255 954 256 951 q 218 972 254 965 q 161 979 182 979 q 160 1001 157 984 q 170 1023 163 1018 q 223 1020 186 1023 q 286 1017 260 1018 q 337 1016 312 1016 q 389 1017 362 1016 q 453 1020 415 1018 q 507 1023 491 1023 q 508 1001 511 1017 q 498 979 504 985 q 438 972 476 979 q 394 954 399 965 q 390 945 392 950 q 387 935 389 941 q 383 924 385 929 q 380 911 382 919 q 377 898 378 903 q 374 884 376 893 q 371 870 372 875 q 368 855 370 865 q 365 840 366 844 l 291 458 q 275 311 275 374 q 298 186 275 234 q 486 83 349 83 q 539 87 514 83 q 590 99 565 91 q 636 121 614 107 q 679 154 659 135 q 717 199 699 173 q 750 258 734 225 q 779 333 766 291 q 802 424 792 374 l 884 843 q 893 891 891 876 q 895 922 895 906 q 890 949 895 937 q 850 970 886 960 q 793 981 814 981 q 793 1003 791 990 q 800 1025 795 1017 q 848 1022 818 1024 q 902 1019 878 1020 q 954 1017 926 1017 q 1007 1019 983 1017 q 1059 1022 1030 1020 q 1112 1025 1088 1024 q 1114 1015 1114 1022 q 1114 1006 1114 1011 q 1104 981 1112 992 q 1039 971 1084 981 q 985 949 994 962 q 966 911 972 932 q 951 844 960 890 l 869 427 q 808 229 846 312 q 714 94 769 146 q 591 18 660 43 q 437 -6 523 -6 q 294 23 357 -6 q 193 105 232 52 q 141 286 141 180 q 151 388 141 334 z "},"V":{"ha":921,"x_min":95,"x_max":1052,"o":"m 96 979 q 95 981 95 979 q 96 989 95 983 q 101 1011 98 1000 q 105 1023 104 1022 q 159 1020 127 1023 q 216 1017 191 1018 q 271 1016 241 1016 q 450 1023 303 1016 q 447 998 451 1016 q 439 979 444 980 q 420 977 433 979 q 390 970 408 975 q 359 954 373 965 q 343 928 346 943 q 341 905 341 920 q 349 818 341 874 q 381 602 358 755 q 422 325 404 450 q 442 198 441 200 q 532 354 445 201 q 705 659 619 507 l 790 810 q 817 866 806 836 q 832 918 828 896 q 826 949 835 936 q 801 967 817 962 q 771 976 785 973 q 750 979 758 979 q 748 999 745 981 q 758 1023 751 1018 q 805 1020 771 1023 q 862 1017 838 1018 q 909 1016 886 1016 q 960 1017 939 1016 q 1006 1020 981 1018 q 1051 1023 1030 1023 q 1052 1017 1052 1021 q 1049 998 1052 1010 q 1040 979 1044 979 q 993 968 1025 979 q 940 939 960 958 q 920 913 932 930 q 893 874 907 896 q 865 828 879 852 q 838 783 850 804 l 416 50 q 351 -3 387 -3 q 346 1 348 -3 q 343 14 345 5 l 342 22 q 284 387 322 141 q 220 795 246 633 q 182 943 205 890 q 145 969 176 960 q 96 979 115 979 z "},"W":{"ha":1300,"x_min":99,"x_max":1421,"o":"m 100 979 q 100 981 100 979 q 100 989 99 983 q 105 1011 102 1000 q 110 1023 109 1022 q 152 1021 130 1023 q 188 1018 174 1019 q 222 1017 201 1017 q 266 1016 243 1016 q 321 1017 294 1016 q 388 1020 349 1018 q 441 1023 428 1023 q 437 998 442 1016 q 429 979 433 980 q 409 977 422 979 q 379 970 397 975 q 349 954 362 965 q 332 928 335 943 q 332 917 332 925 q 336 843 332 897 q 382 224 345 685 l 736 972 q 766 1008 747 994 q 798 1023 785 1023 q 804 1019 802 1023 q 810 999 806 1015 q 901 222 817 918 l 1166 810 q 1203 918 1196 876 q 1199 944 1206 932 q 1181 961 1192 955 q 1157 972 1171 968 q 1133 977 1143 976 q 1116 979 1123 979 q 1115 999 1112 981 q 1126 1023 1119 1018 q 1173 1020 1138 1023 q 1232 1017 1208 1018 q 1279 1016 1255 1016 q 1330 1017 1308 1016 q 1375 1020 1351 1018 q 1421 1023 1400 1023 q 1421 1017 1421 1021 q 1419 998 1421 1010 q 1410 979 1414 979 q 1365 967 1398 979 q 1310 939 1332 956 q 1236 821 1278 913 l 875 50 q 845 13 866 29 q 810 -3 825 -3 q 804 6 806 -3 q 801 22 801 15 q 707 790 788 134 l 354 50 q 325 13 345 29 q 291 -3 305 -3 q 283 6 287 -3 q 280 22 280 16 l 205 823 q 204 844 205 829 q 202 865 203 859 q 201 882 202 870 q 199 898 200 893 q 196 912 198 903 q 192 925 194 920 q 186 937 190 930 q 179 948 183 943 q 143 970 169 962 q 100 979 117 979 z "},"X":{"ha":958,"x_min":-92,"x_max":1051,"o":"m -92 -5 q -92 -1 -92 -3 q -88 18 -92 6 q -81 40 -83 35 q -57 42 -73 40 q -16 50 -41 44 q 36 69 9 56 q 81 102 63 83 l 447 513 l 309 847 q 277 913 293 890 q 235 954 261 936 q 210 967 225 962 q 181 976 195 973 q 159 979 168 979 q 159 1004 152 979 q 169 1023 163 1019 q 227 1020 193 1023 q 288 1017 260 1018 q 347 1016 315 1016 q 532 1023 385 1016 q 532 1008 533 1019 q 528 988 530 998 q 521 979 525 979 q 498 977 511 979 q 469 969 485 975 q 440 954 452 964 q 425 929 428 943 q 424 920 424 924 q 433 883 424 905 l 547 606 q 565 626 553 612 q 813 916 785 874 q 826 940 824 932 q 824 947 826 943 q 816 957 823 951 q 800 967 810 962 q 772 974 790 971 q 731 977 754 977 q 730 996 727 979 q 738 1022 732 1013 q 890 1015 833 1015 q 1050 1022 961 1015 q 1051 1015 1051 1019 q 1048 1000 1051 1009 q 1038 977 1044 983 q 1018 975 1031 977 q 984 967 1005 973 q 940 948 963 962 q 899 916 916 935 l 569 558 l 759 102 q 809 56 772 71 q 888 40 846 40 q 886 18 890 35 q 880 -5 882 1 q 832 -1 860 -3 q 783 2 805 1 q 734 3 761 3 q 666 2 699 3 q 591 -1 633 1 q 523 -5 549 -3 q 522 21 518 1 q 530 40 525 40 q 585 52 550 40 q 623 83 619 64 q 620 102 625 88 l 471 464 q 301 267 399 383 q 164 102 203 150 q 151 77 153 85 q 153 72 151 75 q 157 66 154 69 q 166 59 161 62 q 179 52 171 55 q 198 46 188 49 q 223 42 208 43 q 254 40 237 40 q 255 25 256 35 q 251 7 254 16 q 248 -5 249 -2 q 87 3 116 3 q 25 2 53 3 q -40 -2 -3 1 q -92 -5 -77 -4 z "},"Y":{"ha":859,"x_min":87,"x_max":982,"o":"m 91 1004 q 100 1023 95 1019 q 158 1020 125 1023 q 219 1017 192 1018 q 278 1016 247 1016 q 464 1023 317 1016 q 464 1013 465 1020 q 462 998 463 1005 q 458 984 460 990 q 453 979 456 979 q 430 977 444 979 q 401 969 417 975 q 372 954 385 964 q 357 929 360 943 q 357 922 357 926 q 365 883 357 909 l 490 512 q 596 665 537 578 q 702 822 656 751 q 761 916 748 892 q 770 939 768 926 q 768 946 770 942 q 760 956 766 951 q 742 966 753 962 q 713 974 732 971 q 673 977 695 977 q 672 999 669 981 q 679 1022 675 1017 q 725 1019 695 1021 q 777 1016 754 1017 q 823 1015 799 1015 q 881 1016 856 1015 q 934 1019 905 1017 q 982 1022 963 1021 q 977 997 982 1017 q 970 977 972 977 q 958 977 964 977 q 939 975 953 977 q 913 969 926 974 q 885 959 900 965 q 857 941 871 953 q 832 916 842 930 l 515 465 q 507 450 509 458 q 502 430 504 443 q 499 418 500 418 l 452 179 q 450 170 451 176 q 435 73 435 100 q 436 65 435 68 q 457 51 437 57 q 499 42 478 45 q 530 40 519 40 q 532 18 534 35 q 523 -5 529 1 q 470 -2 507 -4 q 407 2 433 1 q 355 3 380 3 q 304 2 330 3 q 238 -2 277 1 q 184 -5 199 -4 q 183 18 180 1 q 193 40 187 34 q 226 42 205 40 q 271 51 248 45 q 297 65 294 57 q 301 75 299 69 q 306 86 304 81 q 309 100 307 92 q 313 114 311 109 q 316 130 314 119 q 319 145 319 140 q 323 163 320 150 q 326 179 326 176 l 371 413 q 373 433 373 424 q 370 456 373 446 l 241 847 q 211 912 228 889 q 167 954 195 935 q 142 967 157 962 q 114 976 127 973 q 92 979 100 979 q 87 985 87 979 q 91 1004 87 991 z "},"Z":{"ha":930,"x_min":-18,"x_max":960,"o":"m -16 22 l 785 974 l 431 972 q 298 916 360 972 q 193 761 236 859 q 176 755 189 755 q 155 759 168 755 q 140 767 143 764 q 239 1034 191 859 q 355 1022 318 1022 l 635 1022 q 683 1022 661 1022 q 728 1024 705 1023 q 767 1025 751 1025 q 808 1028 782 1026 q 846 1030 833 1029 q 892 1034 859 1031 q 940 1038 925 1036 q 954 1024 945 1036 q 960 1007 960 1015 q 959 1004 960 1005 q 827 840 956 997 q 503 450 699 683 q 159 50 307 218 l 536 50 q 630 73 587 50 q 707 132 673 96 q 735 167 721 146 q 756 199 749 187 q 777 236 763 210 q 793 266 791 262 q 813 271 795 271 q 833 266 823 271 q 846 256 842 262 q 733 0 772 105 l 6 0 q -14 7 -5 0 q -18 16 -18 12 q -16 22 -18 19 z "},"[":{"ha":401,"x_min":9,"x_max":524,"o":"m 11 -140 q 107 362 48 50 q 208 892 167 675 l 249 1109 q 250 1111 249 1109 q 252 1116 250 1113 q 255 1123 253 1120 q 259 1131 256 1127 q 266 1138 262 1135 q 274 1142 269 1141 q 285 1144 279 1144 q 388 1147 336 1144 q 475 1155 440 1151 q 517 1158 509 1158 q 520 1158 519 1158 q 523 1155 522 1158 q 524 1149 524 1153 q 522 1133 524 1141 q 515 1119 519 1125 q 506 1108 511 1114 q 497 1100 501 1103 q 490 1094 494 1097 q 487 1092 487 1092 q 338 1075 416 1075 q 331 1072 334 1075 q 328 1065 328 1068 l 326 1062 l 104 -76 q 111 -88 102 -87 q 195 -105 150 -92 q 255 -127 239 -118 q 267 -140 259 -129 q 275 -159 275 -151 q 273 -173 275 -167 q 267 -180 270 -178 l 264 -182 q 226 -176 250 -180 q 138 -165 202 -172 q 22 -158 74 -158 q 13 -153 16 -158 q 11 -140 9 -149 z "},"\\":{"ha":569,"x_min":178,"x_max":450,"o":"m 178 1167 q 187 1175 180 1171 q 199 1178 193 1178 q 237 1158 221 1178 q 256 1121 254 1137 l 448 -6 q 444 -31 450 -18 q 426 -53 437 -45 q 407 -62 415 -62 q 388 -57 394 -62 l 178 1167 z "},"]":{"ha":399,"x_min":-90,"x_max":418,"o":"m -90 -162 q -87 -150 -90 -156 q -81 -137 -85 -143 q -73 -128 -77 -132 q -65 -120 -70 -125 q -59 -115 -60 -115 q 90 -88 17 -88 q 97 -85 94 -88 q 102 -79 101 -82 l 104 -76 l 325 1062 q 317 1075 326 1075 q 285 1076 301 1075 q 255 1078 269 1076 q 229 1081 241 1080 q 206 1085 216 1083 q 190 1088 197 1086 q 178 1090 182 1090 l 175 1092 q 172 1094 174 1092 q 167 1098 169 1096 q 162 1104 165 1101 q 158 1114 159 1108 q 156 1126 156 1119 q 160 1148 156 1137 q 169 1158 163 1158 q 182 1157 169 1158 q 217 1153 195 1155 q 266 1149 239 1151 q 329 1145 293 1147 q 397 1144 364 1144 q 418 1121 418 1144 q 416 1109 418 1114 l 178 -122 q 175 -132 178 -125 q 164 -149 172 -140 q 144 -158 155 -158 q 35 -162 92 -158 q -53 -172 -22 -167 l -83 -176 q -90 -162 -90 -172 z "},"^":{"ha":468,"x_min":20,"x_max":458,"o":"m 20 772 q 50 801 24 778 q 109 852 76 823 q 187 935 142 882 q 269 1047 232 987 q 274 1056 271 1051 q 278 1063 277 1061 q 281 1066 279 1065 q 288 1067 283 1067 q 302 1063 298 1067 q 312 1047 307 1059 q 321 1020 317 1036 q 337 974 326 1004 q 366 909 349 943 q 399 857 376 889 q 439 800 422 824 q 458 773 457 776 q 447 748 455 762 q 431 734 439 734 q 382 771 417 734 q 314 852 347 808 q 266 923 281 897 q 131 799 214 863 q 33 734 48 734 q 20 772 20 734 z "},"_":{"ha":734,"x_min":-60,"x_max":626,"o":"m -60 -57 q -46 -14 -60 -49 q -23 20 -31 20 l 617 20 q 626 14 626 20 q 598 -57 626 4 q 595 -62 597 -60 q 593 -64 594 -64 q 591 -66 592 -65 q 589 -66 590 -66 l -53 -66 q -55 -66 -54 -66 q -58 -63 -56 -66 q -60 -57 -60 -61 z "},"`":{"ha":311,"x_min":31,"x_max":295,"o":"m 31 913 q 42 942 31 930 q 66 957 54 953 q 92 960 79 960 q 149 945 126 960 q 194 898 158 938 q 263 819 231 859 q 295 773 295 779 q 291 764 295 770 q 283 758 286 758 q 209 790 271 758 q 89 862 147 823 q 31 913 31 901 z "},"a":{"ha":694,"x_min":29,"x_max":631,"o":"m 29 175 q 49 305 29 240 q 102 424 68 370 q 180 524 136 477 q 273 604 224 571 q 374 654 322 636 q 471 673 425 673 q 592 652 538 673 l 498 164 q 495 153 496 159 q 493 138 494 147 q 491 121 492 130 q 491 105 490 113 q 493 90 492 96 q 498 80 494 83 q 507 76 502 76 q 526 82 515 76 q 549 98 538 89 q 572 119 559 107 q 592 140 584 131 q 608 157 601 149 l 615 165 q 625 154 619 165 q 631 136 631 143 q 602 101 624 124 q 551 53 580 78 q 488 9 522 28 q 429 -9 454 -9 q 390 13 404 -9 q 376 71 376 36 q 387 153 376 96 q 394 201 393 190 q 368 158 384 182 q 327 104 351 134 q 277 50 302 74 q 222 9 252 25 q 167 -7 193 -7 q 67 43 104 -7 q 29 175 29 93 m 144 233 q 222 82 144 82 q 306 136 260 82 q 388 270 352 191 q 439 424 425 350 l 471 587 q 440 605 462 598 q 401 611 418 611 q 310 577 357 611 q 228 489 264 543 q 168 367 191 436 q 144 233 144 298 z "},"b":{"ha":663,"x_min":66,"x_max":600,"o":"m 66 172 q 76 244 66 189 l 198 865 q 212 946 212 927 q 117 976 212 976 q 116 992 114 981 q 123 1008 119 1003 q 328 1059 209 1016 q 337 1029 337 1054 q 317 913 337 1015 l 221 441 q 301 552 260 505 q 379 625 343 600 q 443 661 415 650 q 492 673 471 673 q 572 626 544 673 q 600 498 600 579 q 583 364 600 431 q 536 242 565 297 q 467 140 507 188 q 385 60 428 93 q 297 9 342 28 q 210 -9 252 -9 q 105 39 144 -9 q 66 172 66 87 m 182 95 q 254 42 199 42 q 328 74 291 42 q 392 156 364 106 q 441 263 419 205 q 474 375 463 321 q 486 467 486 429 q 485 502 486 487 q 480 534 484 517 q 470 562 476 551 q 452 580 464 573 q 425 587 441 587 q 364 557 401 587 q 291 479 327 526 q 224 367 255 431 q 182 241 194 302 q 173 155 173 193 q 182 95 173 121 z "},"c":{"ha":555,"x_min":37,"x_max":535,"o":"m 37 216 q 50 319 37 268 q 86 415 63 371 q 140 500 109 460 q 206 571 170 540 q 279 625 241 602 q 354 661 316 648 q 425 673 391 673 q 468 666 448 673 q 498 652 488 659 q 521 634 507 646 q 527 625 524 631 q 532 609 530 618 q 535 592 535 600 q 522 543 535 564 q 482 523 508 523 q 450 531 466 523 q 427 553 435 540 q 416 569 420 564 q 405 584 412 575 q 389 597 397 592 q 371 605 382 602 q 347 609 359 609 q 281 582 315 609 q 220 508 248 554 q 175 394 193 462 q 158 250 158 326 q 159 219 158 234 q 163 183 160 203 q 175 145 167 162 q 194 114 182 129 q 223 91 205 99 q 264 82 241 82 q 288 85 275 82 q 312 95 300 89 q 335 109 323 101 q 358 125 347 116 q 378 142 369 134 q 396 159 388 151 q 410 173 404 168 q 419 184 415 179 q 424 189 423 189 q 435 176 427 189 q 442 158 442 164 q 421 129 436 148 q 380 86 406 111 q 328 41 355 62 q 269 5 301 20 q 209 -9 236 -9 q 82 50 127 -9 q 37 216 37 109 z "},"d":{"ha":694,"x_min":29,"x_max":663,"o":"m 29 179 q 48 300 29 239 q 98 415 66 361 q 174 517 130 469 q 265 599 217 565 q 366 653 313 633 q 469 673 419 673 l 472 673 l 476 673 l 480 673 l 484 673 l 488 673 l 524 865 q 530 893 526 874 q 536 925 534 911 q 538 946 538 939 q 444 976 538 976 q 443 992 440 981 q 450 1008 445 1003 q 654 1059 535 1016 q 663 1029 663 1054 q 643 913 663 1015 l 498 164 q 494 139 496 159 q 492 113 492 119 q 507 76 492 76 q 526 82 515 76 q 549 98 538 89 q 572 119 559 107 q 592 140 584 131 q 608 157 601 149 l 615 165 q 625 154 619 165 q 631 136 631 143 q 602 101 624 124 q 551 53 580 78 q 488 9 522 28 q 429 -9 454 -9 q 390 13 404 -9 q 376 71 376 36 q 387 153 376 96 q 394 201 389 166 q 371 161 387 185 q 330 107 355 138 q 279 52 306 77 q 222 10 253 27 q 165 -7 192 -7 q 104 9 131 -7 q 61 53 77 25 q 37 112 45 80 q 29 179 29 144 m 144 232 q 163 123 144 163 q 222 82 182 82 q 307 137 260 82 q 389 272 353 192 q 439 427 425 352 l 458 527 q 459 541 459 534 q 448 584 459 564 q 404 611 433 611 q 311 576 358 611 q 227 488 263 542 q 167 366 190 435 q 144 232 144 297 z "},"e":{"ha":561,"x_min":35,"x_max":526,"o":"m 35 215 q 52 328 35 271 q 97 436 68 386 q 163 530 125 486 q 244 605 201 574 q 333 654 286 636 q 424 673 380 673 q 472 664 452 673 q 504 642 493 656 q 520 611 515 627 q 526 576 526 595 q 505 505 526 541 q 452 438 485 468 q 378 382 419 409 q 297 337 338 355 q 220 309 256 319 q 159 298 183 298 q 156 249 156 289 q 182 127 156 173 q 263 82 208 82 q 290 86 275 82 q 316 98 304 91 q 342 115 329 105 q 367 134 356 124 q 388 153 378 143 q 405 170 399 163 q 416 183 412 177 l 422 189 q 433 176 426 189 q 441 158 441 164 q 409 117 432 142 q 353 62 385 91 q 280 12 320 33 q 205 -9 239 -9 q 79 49 123 -9 q 35 215 35 107 m 162 337 q 211 348 181 337 q 276 378 241 358 q 341 424 311 399 q 391 482 372 449 q 411 547 411 515 q 391 593 411 576 q 347 609 371 609 q 287 588 316 609 q 237 536 258 568 q 200 467 216 505 q 174 396 183 429 q 162 337 165 362 z "},"f":{"ha":457,"x_min":-192,"x_max":603,"o":"m -192 -321 q -190 -297 -192 -304 q -175 -253 -186 -270 q -145 -235 -164 -235 q -122 -241 -133 -235 q -104 -253 -111 -247 q -87 -271 -98 -258 q -75 -282 -79 -278 q -61 -290 -70 -286 q -42 -294 -52 -294 q 30 -215 1 -294 q 98 60 59 -137 l 190 581 l 59 581 q 56 586 56 581 q 79 619 56 600 q 127 639 102 639 l 199 639 q 240 780 214 713 q 298 897 266 846 q 368 984 330 947 q 444 1040 405 1021 q 519 1059 483 1059 q 573 1048 551 1059 q 603 1021 594 1037 l 603 1006 q 589 955 600 977 q 557 934 577 934 q 533 940 545 934 q 515 951 522 945 q 498 970 509 957 q 486 981 490 977 q 472 989 481 985 q 453 993 463 993 q 381 914 410 993 q 314 639 353 836 l 469 639 q 476 620 476 639 q 463 581 476 604 l 303 581 q 212 66 249 261 q 158 -106 194 -26 q 79 -242 123 -187 q -13 -329 36 -297 q -109 -360 -62 -360 q -161 -349 -140 -360 q -192 -321 -183 -338 z "},"g":{"ha":637,"x_min":-74,"x_max":646,"o":"m -74 -209 q -59 -149 -74 -178 q -23 -98 -44 -120 q 31 -55 -1 -77 q 90 -19 64 -33 q 149 9 115 -6 l 121 28 q 102 42 109 35 q 89 59 95 48 q 82 83 82 71 q 99 114 82 97 q 140 146 116 132 q 191 172 165 161 q 237 189 217 184 q 199 195 221 189 q 154 217 178 202 q 109 253 130 233 q 75 304 89 273 q 62 370 62 335 q 87 491 62 433 q 154 588 113 548 q 248 651 195 627 q 354 674 300 674 q 407 669 382 674 q 446 658 431 664 q 486 640 461 652 q 514 641 495 635 q 555 654 534 646 q 583 663 576 663 q 601 655 591 661 q 622 642 612 649 q 639 625 632 634 q 646 609 646 616 q 642 594 646 600 q 628 587 637 587 q 576 589 625 587 q 527 589 543 589 q 515 589 519 589 q 519 574 515 587 q 526 548 522 562 q 533 515 530 534 q 536 482 536 497 q 525 394 536 436 q 496 326 513 353 q 458 276 480 299 q 422 242 436 253 q 396 224 409 232 q 329 194 376 213 q 249 159 281 176 q 218 127 218 142 q 231 109 218 118 q 267 92 245 100 q 316 74 288 84 q 374 52 345 63 q 431 24 403 41 q 480 -13 458 7 q 515 -60 502 -33 q 529 -121 529 -88 q 431 -295 529 -231 q 167 -360 333 -360 q -7 -320 60 -360 q -74 -209 -74 -279 m 40 -170 q 52 -224 40 -200 q 83 -263 63 -248 q 132 -288 103 -278 q 192 -302 160 -298 q 261 -306 224 -306 q 331 -296 299 -306 q 385 -269 363 -286 q 418 -229 406 -252 q 430 -182 430 -207 q 421 -143 430 -162 q 399 -111 412 -125 q 366 -82 387 -96 q 327 -58 345 -68 q 281 -39 308 -49 q 238 -23 255 -28 q 197 -9 220 -17 q 156 -28 174 -19 q 115 -52 138 -37 q 77 -84 92 -68 q 51 -122 62 -100 q 40 -170 40 -145 m 176 382 q 186 310 176 342 q 219 255 197 277 q 272 233 241 233 q 338 254 308 233 q 385 308 368 275 q 412 379 403 341 q 422 454 422 417 q 411 533 422 494 q 378 601 401 572 q 328 629 356 629 q 262 606 292 629 q 215 546 233 583 q 186 466 197 509 q 176 382 176 423 z "},"h":{"ha":726,"x_min":34,"x_max":667,"o":"m 34 0 l 201 865 q 207 893 203 874 q 213 925 210 911 q 215 946 215 939 q 121 976 215 976 q 120 992 117 981 q 127 1008 122 1003 q 331 1059 212 1016 q 340 1029 340 1054 q 320 913 340 1015 l 241 510 l 214 368 q 243 415 220 382 q 301 492 266 448 q 374 576 337 536 q 452 645 412 616 q 521 673 492 673 q 570 659 550 673 q 598 623 589 646 q 606 570 606 601 q 585 402 606 505 l 534 164 q 530 140 532 159 q 527 115 527 120 q 543 76 527 76 q 562 82 551 76 q 584 98 573 89 q 607 119 595 107 q 628 140 619 131 q 644 157 637 149 q 651 165 650 165 q 661 154 654 165 q 667 136 667 143 q 637 101 659 124 q 586 53 615 78 q 523 9 557 28 q 464 -9 489 -9 q 425 13 439 -9 q 411 71 411 35 q 422 153 411 108 l 476 408 q 483 450 479 420 q 487 492 487 480 q 486 517 487 507 q 482 538 485 528 q 473 553 479 548 q 458 558 467 558 q 411 537 441 558 q 346 478 381 516 q 278 394 311 440 q 218 292 245 349 q 181 184 191 235 q 142 0 170 127 q 87 -6 121 -6 q 34 0 59 -6 z "},"i":{"ha":405,"x_min":39,"x_max":337,"o":"m 39 527 q 66 563 46 540 q 115 611 87 585 q 175 654 142 636 q 233 673 208 673 q 257 667 245 673 q 276 650 268 661 q 289 624 284 640 q 294 592 294 609 q 283 510 294 567 l 204 164 q 198 115 198 133 q 214 76 198 76 q 229 80 220 76 q 249 93 239 85 q 268 110 258 100 q 288 128 278 119 q 304 145 297 138 q 316 159 311 153 q 321 165 321 165 q 331 154 325 165 q 337 136 337 143 q 308 101 330 124 q 257 53 286 78 q 194 9 228 28 q 134 -9 160 -9 q 96 13 111 -9 q 82 71 82 36 q 93 153 82 96 l 172 499 q 178 549 178 536 q 162 587 178 587 q 143 581 155 587 q 121 565 132 574 q 98 544 110 556 q 77 523 85 532 q 61 506 68 514 q 54 498 54 498 q 45 509 51 498 q 39 527 39 520 m 179 911 q 202 972 179 946 q 260 999 226 999 q 299 981 283 999 q 315 937 315 962 q 291 872 315 900 q 232 844 267 844 q 203 854 216 844 q 185 878 191 863 q 179 911 179 893 z "},"j":{"ha":385,"x_min":-132,"x_max":342,"o":"m -132 -332 q 4 -191 -54 -288 q 88 34 62 -94 l 181 499 q 187 549 187 536 q 172 587 187 587 q 153 581 164 587 q 130 565 141 574 q 107 544 119 556 q 86 523 95 532 q 71 506 78 514 q 63 498 64 498 q 54 509 60 498 q 48 527 48 520 q 76 563 55 540 q 124 611 96 585 q 185 654 152 636 q 243 673 218 673 q 266 667 255 673 q 285 650 277 661 q 298 624 293 640 q 303 592 303 609 q 292 510 303 567 l 208 70 q 169 -61 196 12 q 98 -192 142 -134 q -9 -298 52 -251 q -117 -363 -71 -345 q -127 -350 -122 -359 q -132 -332 -132 -340 m 205 911 q 229 972 205 946 q 286 999 252 999 q 326 981 310 999 q 342 937 342 962 q 318 872 342 900 q 258 844 294 844 q 230 854 242 844 q 212 878 218 863 q 205 911 205 893 z "},"k":{"ha":711,"x_min":34,"x_max":656,"o":"m 34 0 l 203 865 q 216 946 216 927 q 122 976 216 976 q 121 992 119 981 q 128 1008 123 1003 q 332 1059 214 1016 q 342 1029 342 1054 q 321 913 342 1015 l 241 498 q 258 518 241 498 q 299 562 275 538 q 355 612 323 587 q 426 655 386 638 q 503 673 465 673 q 584 642 549 673 q 618 568 618 612 q 601 491 618 526 q 553 430 583 456 q 481 384 524 404 q 392 349 439 363 q 292 326 346 336 q 403 170 362 221 q 473 99 444 119 q 535 79 502 79 q 587 110 552 79 q 640 165 621 142 q 650 154 644 165 q 656 136 656 142 q 630 105 650 127 q 583 57 610 83 q 523 13 555 32 q 467 -6 490 -6 q 423 2 445 -6 q 384 25 401 11 q 347 60 366 39 q 313 102 328 81 q 282 151 298 123 q 254 201 266 179 q 226 251 241 223 q 201 295 211 278 l 144 0 q 90 -7 115 -7 q 34 0 65 -7 m 214 355 q 283 363 245 355 q 358 386 320 370 q 428 424 397 402 q 478 478 458 446 q 498 547 498 511 q 496 567 498 559 q 489 584 494 576 q 473 596 484 592 q 447 600 463 600 q 352 559 404 600 q 261 460 299 517 q 214 355 222 403 z "},"l":{"ha":376,"x_min":57,"x_max":347,"o":"m 57 71 q 68 153 57 96 l 208 865 q 221 946 221 927 q 127 976 221 976 q 126 992 123 981 q 133 1008 128 1003 q 337 1059 218 1016 q 347 1029 347 1054 q 326 913 347 1015 l 179 164 q 176 140 178 159 q 173 115 173 120 q 189 76 173 76 q 208 82 196 76 q 230 98 219 89 q 253 119 241 107 q 274 140 265 131 q 290 157 283 149 q 297 165 296 165 q 307 154 300 165 q 313 136 313 143 q 283 101 305 124 q 232 53 261 78 q 169 9 203 28 q 110 -9 135 -9 q 71 13 85 -9 q 57 71 57 35 z "},"m":{"ha":1103,"x_min":34,"x_max":1044,"o":"m 34 527 q 62 563 41 540 q 110 611 83 585 q 171 654 138 636 q 229 673 203 673 q 252 667 241 673 q 271 650 263 661 q 284 624 279 640 q 289 592 289 609 q 277 510 289 575 q 246 366 269 473 q 288 436 264 399 q 344 516 312 473 q 406 593 376 559 q 467 650 435 627 q 521 673 498 673 q 566 664 547 673 q 596 641 585 654 q 614 606 608 627 q 623 567 621 586 q 625 526 625 549 q 617 453 625 498 q 603 388 610 408 q 646 455 621 418 q 704 530 672 492 q 769 601 736 569 q 833 652 801 632 q 888 673 865 673 q 944 660 922 673 q 975 626 966 648 q 983 570 983 604 q 962 402 983 501 l 911 164 q 905 115 905 133 q 920 76 905 76 q 939 82 928 76 q 961 98 950 89 q 985 119 972 107 q 1005 140 997 131 q 1021 157 1014 149 l 1028 165 q 1038 154 1031 165 q 1044 136 1044 143 q 1015 101 1037 124 q 964 53 993 78 q 901 9 935 28 q 841 -9 867 -9 q 803 13 817 -9 q 789 71 789 36 q 800 153 789 96 l 854 408 q 861 450 857 420 q 865 492 865 480 q 864 519 865 509 q 860 539 863 530 q 851 554 857 549 q 835 558 845 558 q 771 524 812 558 q 688 440 730 490 q 612 325 647 390 q 566 204 576 260 l 527 0 q 470 -5 495 -5 q 416 0 446 -5 l 503 439 q 509 498 509 472 q 478 558 509 558 q 387 497 444 558 q 279 348 330 437 q 214 189 229 260 l 175 0 q 119 -6 152 -6 q 65 0 102 -6 l 167 499 q 173 549 173 536 q 158 587 173 587 q 139 581 150 587 q 116 565 127 574 q 93 544 105 556 q 72 523 81 532 q 57 506 64 514 q 50 498 50 498 q 40 509 46 498 q 34 527 34 520 z "},"n":{"ha":768,"x_min":34,"x_max":708,"o":"m 34 527 q 62 563 41 540 q 110 611 83 585 q 171 654 138 636 q 229 673 203 673 q 252 667 241 673 q 271 650 263 661 q 284 624 279 640 q 289 592 289 609 q 277 510 289 562 l 249 380 q 267 409 254 389 q 300 455 279 428 q 344 512 320 482 q 395 570 368 541 q 450 622 423 599 q 504 659 477 644 q 552 673 531 673 q 608 660 587 673 q 639 626 630 648 q 648 570 648 604 q 626 402 648 507 l 575 164 q 569 115 569 133 q 585 76 569 76 q 604 82 592 76 q 626 98 615 89 q 649 119 637 107 q 670 140 661 131 q 685 157 678 149 l 692 165 q 702 154 696 165 q 708 136 708 143 q 679 101 701 124 q 628 53 657 78 q 565 9 600 28 q 506 -9 531 -9 q 467 13 481 -9 q 453 71 453 36 q 464 153 453 96 l 518 408 q 525 450 521 420 q 529 492 529 480 q 528 519 529 509 q 525 539 528 530 q 516 554 522 549 q 499 558 509 558 q 452 539 482 558 q 385 484 421 519 q 314 403 348 448 q 252 301 279 358 q 214 189 224 243 q 175 0 208 157 q 119 -6 150 -6 q 65 0 90 -6 l 167 499 q 173 549 173 536 q 158 587 173 587 q 139 581 150 587 q 116 565 127 574 q 93 544 105 556 q 72 523 81 532 q 57 506 64 514 q 50 498 50 498 q 40 509 46 498 q 34 527 34 520 z "},"o":{"ha":640,"x_min":37,"x_max":569,"o":"m 37 214 q 56 344 37 277 q 110 469 75 411 q 188 573 144 527 q 284 646 231 619 q 388 673 336 673 q 523 611 477 673 q 569 446 569 549 q 550 315 569 382 q 496 192 530 249 q 417 90 461 135 q 321 18 374 44 q 216 -7 269 -7 q 82 51 127 -7 q 37 214 37 110 m 158 244 q 181 96 158 151 q 246 42 204 42 q 316 66 283 42 q 373 131 349 91 q 414 221 397 172 q 440 323 431 271 q 448 422 448 375 q 428 570 448 517 q 366 623 408 623 q 295 599 329 623 q 237 534 261 574 q 194 445 212 494 q 167 343 176 395 q 158 244 158 291 z "},"p":{"ha":692,"x_min":-85,"x_max":629,"o":"m -85 -342 q -79 -319 -85 -322 q -17 -294 -37 -319 q 7 -227 -3 -275 l 130 387 l 56 313 q 46 343 46 324 q 51 354 46 349 l 142 452 l 182 669 q 241 675 205 675 q 291 665 269 675 q 266 535 271 574 q 495 673 414 673 q 557 659 531 673 q 600 620 584 645 q 622 561 615 594 q 629 486 629 528 q 607 342 629 415 q 546 208 585 270 q 458 97 507 146 q 352 20 410 48 q 239 -7 295 -7 q 169 12 180 -7 l 117 -224 q 113 -267 113 -245 q 115 -279 113 -272 q 122 -294 117 -286 q 134 -303 127 -301 q 208 -308 154 -308 q 210 -329 212 -309 q 203 -351 208 -349 q 174 -350 192 -351 q 149 -349 157 -349 q -81 -363 35 -349 q -85 -347 -85 -362 q -85 -342 -85 -345 m 199 203 q 195 161 195 181 q 212 92 195 122 q 272 46 235 46 q 365 86 319 46 q 443 189 411 127 q 495 325 475 250 q 515 469 515 400 q 433 587 515 587 q 339 548 395 587 q 250 464 283 509 l 199 203 z "},"q":{"ha":659,"x_min":29,"x_max":591,"o":"m 29 179 q 48 300 29 239 q 98 415 66 361 q 174 517 130 469 q 265 599 217 565 q 366 653 313 633 q 469 673 419 673 q 591 652 536 673 l 496 164 l 425 -232 q 422 -264 422 -256 q 424 -281 422 -275 q 432 -295 426 -288 q 454 -307 438 -303 q 493 -311 469 -311 q 497 -320 496 -311 q 496 -340 498 -330 q 490 -353 494 -351 q 459 -352 479 -353 q 429 -351 438 -351 q 197 -363 311 -351 q 194 -341 193 -361 q 201 -321 195 -321 q 306 -264 297 -312 l 393 201 q 366 158 382 182 q 325 104 350 134 q 275 50 300 74 q 221 9 250 25 q 165 -7 191 -7 q 104 9 131 -7 q 61 53 77 25 q 37 112 45 80 q 29 179 29 144 m 144 232 q 163 123 144 163 q 222 82 182 82 q 307 137 260 82 q 389 272 353 192 q 439 427 425 352 l 458 527 q 459 541 459 534 q 448 584 459 564 q 404 611 433 611 q 311 576 358 611 q 227 488 263 542 q 167 366 190 435 q 144 232 144 297 z "},"r":{"ha":550,"x_min":33,"x_max":564,"o":"m 33 527 q 60 563 40 540 q 109 611 81 585 q 169 654 136 636 q 227 673 202 673 q 251 667 239 673 q 270 650 262 661 q 283 624 278 640 q 288 592 288 609 q 275 510 288 575 q 249 380 268 469 q 293 470 267 422 q 350 565 319 518 q 415 642 382 611 q 475 673 449 673 q 518 663 498 673 q 551 640 538 653 q 557 629 553 636 q 562 613 560 622 q 564 597 564 604 q 550 548 564 566 q 509 529 535 529 q 485 535 498 529 q 463 552 471 542 q 431 564 452 564 q 398 548 418 564 q 357 503 378 531 q 314 437 336 475 q 273 358 292 399 q 239 272 254 317 q 216 189 224 228 l 182 0 q 130 -5 157 -5 q 73 0 100 -5 l 165 499 q 172 549 172 536 q 156 587 172 587 q 140 583 149 587 q 121 571 131 578 q 101 554 111 563 q 82 535 92 545 q 66 518 73 526 q 54 504 59 510 q 48 498 48 498 q 38 509 44 498 q 33 527 33 520 z "},"s":{"ha":498,"x_min":3,"x_max":456,"o":"m 3 83 q 20 135 3 116 q 60 155 36 155 q 81 148 71 155 q 96 133 90 140 q 111 109 102 125 q 127 85 121 93 q 209 40 159 40 q 247 49 231 40 q 270 73 262 58 q 281 102 278 88 q 285 130 285 116 q 283 146 285 138 q 280 161 281 154 q 274 176 279 168 q 268 190 270 184 q 259 204 266 195 q 250 217 252 214 q 239 232 248 221 q 228 244 231 242 q 216 258 226 247 q 204 272 206 270 q 176 303 184 294 q 152 333 168 313 q 127 368 135 354 q 110 401 120 382 q 97 441 100 421 q 93 482 93 461 q 109 550 93 515 q 151 612 124 584 q 220 659 178 641 q 308 677 261 677 q 362 673 338 677 q 405 659 387 668 q 441 635 424 650 q 451 611 446 628 q 456 586 456 595 q 441 541 456 559 q 404 523 427 523 q 331 576 370 523 q 325 586 330 578 q 319 595 320 593 q 313 603 317 597 q 305 610 308 608 q 296 616 302 612 q 286 621 291 620 q 274 623 281 622 q 258 625 267 625 q 215 609 233 625 q 190 575 197 594 q 182 538 182 556 q 187 508 182 523 q 198 481 192 492 q 216 453 203 469 q 236 428 229 437 q 261 400 244 418 q 285 374 277 382 q 313 340 301 355 q 338 304 325 325 q 359 266 351 284 q 373 226 368 248 q 379 181 379 203 q 316 43 379 96 q 155 -9 253 -9 q 18 37 73 -9 q 3 83 3 63 z "},"t":{"ha":429,"x_min":63,"x_max":414,"o":"m 63 586 q 86 619 63 600 q 134 639 110 639 l 181 639 l 198 730 q 253 793 216 753 q 298 832 290 832 q 325 823 313 832 l 291 639 l 407 639 q 414 620 414 639 q 401 581 414 604 l 280 581 l 198 164 q 192 115 192 133 q 208 76 192 76 q 226 82 215 76 q 249 98 237 89 q 272 119 260 107 q 293 140 284 131 q 308 157 301 149 l 315 165 q 321 160 317 165 q 328 148 325 155 q 331 136 331 140 q 302 101 324 124 q 251 53 280 78 q 188 9 222 28 q 128 -9 154 -9 q 90 13 104 -9 q 76 71 76 36 q 87 153 76 96 l 170 581 l 66 581 q 63 586 63 581 z "},"u":{"ha":759,"x_min":31,"x_max":696,"o":"m 31 527 q 59 563 38 540 q 107 611 79 585 q 167 654 134 636 q 226 673 200 673 q 249 667 238 673 q 268 650 260 661 q 281 624 276 640 q 286 592 286 609 q 275 510 286 567 l 221 255 q 214 213 218 243 q 210 172 210 183 q 211 146 210 157 q 215 125 212 136 q 224 110 218 115 q 239 105 230 105 q 286 126 256 105 q 351 186 316 148 q 419 273 386 225 q 479 379 452 320 q 517 493 506 438 q 533 574 522 521 q 551 663 544 628 q 598 669 571 669 q 659 663 634 669 l 563 164 q 557 115 557 133 q 572 76 557 76 q 591 82 580 76 q 613 98 602 89 q 637 119 625 107 q 657 140 649 131 q 673 157 666 149 l 680 165 q 690 154 684 165 q 696 136 696 143 q 667 101 689 124 q 616 53 645 78 q 553 9 587 28 q 493 -9 519 -9 q 455 13 469 -9 q 441 71 441 36 q 452 153 441 96 q 460 197 456 176 q 470 243 465 218 q 479 288 475 269 q 428 204 464 254 q 348 107 392 155 q 254 25 304 59 q 169 -9 205 -9 q 92 102 92 -9 q 113 261 92 157 l 164 499 q 170 549 170 536 q 155 587 170 587 q 136 581 147 587 q 113 565 124 574 q 90 544 102 556 q 70 523 78 532 q 54 506 61 514 q 46 498 47 498 q 37 509 43 498 q 31 527 31 520 z "},"v":{"ha":678,"x_min":26,"x_max":642,"o":"m 26 527 q 54 563 33 540 q 102 611 75 585 q 163 654 130 636 q 221 673 196 673 q 251 662 237 673 q 273 631 265 650 q 281 589 281 612 l 281 507 l 281 272 q 288 100 281 144 q 407 220 366 168 q 486 349 447 273 q 514 435 505 387 q 524 515 524 483 q 514 567 524 541 q 484 612 503 593 q 512 654 492 635 q 557 673 531 673 q 620 639 599 673 q 642 549 642 605 q 615 440 642 503 q 545 317 588 378 q 450 197 503 257 q 346 92 397 137 q 249 19 294 47 q 178 -9 204 -9 q 168 80 171 -1 q 165 229 165 161 l 165 549 q 150 587 165 587 q 131 581 142 587 q 109 565 119 574 q 85 544 98 556 q 65 523 73 532 q 49 506 56 514 q 42 498 42 498 q 32 509 38 498 q 26 527 26 520 z "},"w":{"ha":972,"x_min":26,"x_max":932,"o":"m 26 527 q 54 563 33 540 q 102 611 75 585 q 163 654 130 636 q 221 673 196 673 q 251 662 237 673 q 273 631 265 650 q 281 589 281 612 l 281 507 l 281 272 q 288 139 281 182 q 463 394 366 222 q 487 442 475 418 q 504 477 498 466 q 518 511 509 489 q 529 536 528 534 q 559 563 538 549 q 595 580 581 576 q 604 283 600 370 q 628 117 611 144 q 728 226 690 172 q 793 354 767 281 q 815 515 815 413 q 810 549 815 532 q 797 583 806 566 q 774 612 787 600 q 785 633 779 623 q 801 652 791 643 q 822 667 810 661 q 847 673 834 673 q 895 656 876 673 q 924 613 915 640 q 932 549 932 585 q 909 440 932 502 q 850 318 886 378 q 768 197 814 257 q 677 92 722 137 q 591 19 633 47 q 524 -9 550 -9 q 506 94 517 -1 q 493 232 494 189 l 490 331 q 178 -9 253 -9 q 168 80 171 -1 q 165 229 165 161 l 165 549 q 150 587 165 587 q 131 581 142 587 q 109 565 119 574 q 85 544 98 556 q 65 523 73 532 q 49 506 56 514 q 42 498 42 498 q 32 509 38 498 q 26 527 26 520 z "},"x":{"ha":745,"x_min":23,"x_max":674,"o":"m 23 63 q 39 112 23 92 q 81 132 54 132 q 100 125 91 132 q 115 110 109 118 q 131 95 121 102 q 151 87 141 87 q 172 92 162 86 q 186 104 181 97 q 198 122 191 111 q 304 315 252 213 l 261 529 q 244 571 256 555 q 212 587 231 587 q 152 555 191 587 q 94 501 112 523 q 89 507 92 501 q 82 520 85 513 q 79 530 79 527 q 104 562 84 540 q 152 609 125 584 q 212 654 179 635 q 267 673 244 673 q 333 637 304 673 q 374 540 361 602 l 396 435 q 415 473 403 448 q 436 516 429 502 q 456 553 444 530 q 475 588 468 576 q 494 616 483 600 q 515 641 506 633 q 536 657 524 649 q 559 669 547 666 q 585 673 571 673 q 657 654 627 673 q 674 602 674 631 q 659 553 674 572 q 617 534 643 534 q 597 540 606 534 q 582 555 588 547 q 566 570 576 563 q 546 578 557 577 q 526 573 535 579 q 511 561 517 568 q 499 543 506 554 q 407 377 426 415 l 456 138 q 510 81 467 81 q 567 113 528 81 q 623 165 607 144 q 633 154 627 165 q 639 136 639 142 q 613 105 633 127 q 566 57 593 83 q 506 13 538 32 q 450 -6 473 -6 q 385 30 414 -6 q 343 127 356 66 l 317 260 q 290 205 307 239 q 265 154 274 172 q 242 110 256 136 q 218 69 228 83 q 195 38 209 55 q 170 13 182 21 q 143 -2 158 4 q 113 -7 129 -7 q 40 11 70 -7 q 23 63 23 33 z "},"y":{"ha":691,"x_min":-172,"x_max":626,"o":"m -172 -297 q -162 -257 -172 -276 q -136 -229 -153 -238 q -78 -249 -119 -239 q -12 -258 -38 -258 q 105 -225 55 -258 q 198 -130 156 -191 q 215 -95 208 -115 q 223 -45 221 -75 q 227 1 225 -16 q 227 28 227 10 q 227 54 227 39 q 226 96 226 91 q 222 249 226 172 q 208 406 218 326 q 179 537 199 487 q 133 587 160 587 q 114 581 125 587 q 92 565 102 574 q 68 544 81 556 q 48 523 56 532 q 32 506 39 514 q 24 498 25 498 q 15 509 21 498 q 9 527 9 520 q 37 563 16 540 q 85 611 58 585 q 146 654 113 636 q 204 673 179 673 q 248 649 228 673 q 282 584 268 626 q 306 493 296 542 q 323 383 317 444 q 333 271 329 322 q 339 164 337 220 q 341 79 340 108 q 342 23 342 50 q 382 77 361 47 q 428 151 403 106 q 473 240 454 195 q 506 339 493 286 q 519 441 519 393 q 512 519 519 484 q 499 569 505 555 q 481 606 493 583 q 511 655 490 637 q 558 673 531 673 q 626 551 626 673 q 588 358 626 463 q 490 153 551 252 q 352 -40 429 54 q 197 -205 275 -135 q 46 -317 119 -275 q -79 -360 -28 -360 q -145 -341 -119 -360 q -172 -297 -172 -323 z "},"z":{"ha":598,"x_min":-16,"x_max":586,"o":"m -16 29 q 57 119 -16 37 q 217 294 130 201 q 377 466 304 387 q 452 546 451 544 q 354 513 403 513 q 333 515 345 513 q 315 519 322 517 q 295 525 309 520 q 278 532 281 530 q 260 540 275 533 q 176 566 204 566 q 145 551 161 566 q 118 519 128 536 q 97 483 108 503 q 85 460 86 463 q 66 486 69 460 q 85 528 71 500 q 122 590 100 557 q 171 648 143 624 q 224 673 199 673 q 258 669 240 673 q 284 663 277 665 q 317 652 292 661 q 343 642 342 642 q 430 625 391 625 q 487 636 455 625 q 542 661 519 648 q 569 673 565 673 q 586 642 586 664 q 517 555 586 634 q 366 386 448 476 q 213 220 283 296 q 142 142 143 143 q 214 159 176 159 q 309 133 254 159 q 323 127 313 131 q 338 121 334 123 q 352 115 343 119 q 366 111 360 112 q 378 108 372 109 q 391 106 385 106 q 411 113 401 106 q 430 130 422 120 q 448 153 439 140 q 463 177 456 166 q 474 198 469 188 q 481 210 479 208 q 499 186 496 210 q 479 143 490 163 q 452 95 469 123 q 418 48 435 68 q 379 14 401 28 q 337 0 358 0 q 295 6 320 0 q 257 17 271 12 q 214 34 243 22 q 163 45 195 41 q 104 50 132 50 q 66 41 83 50 q 30 19 48 33 q 1 0 12 5 q -16 29 -13 5 z "},"{":{"ha":324,"x_min":18,"x_max":408,"o":"m 45 -101 q 36 -83 45 -101 q 23 -19 28 -65 q 28 83 18 26 q 48 145 34 116 q 85 212 62 174 q 94 226 87 216 q 103 241 100 236 q 111 255 106 245 q 119 270 116 264 q 125 283 121 275 q 132 298 130 292 q 137 313 134 305 q 140 328 139 321 q 57 458 159 428 q 57 475 54 463 q 63 492 61 489 q 198 622 179 522 q 201 645 200 633 q 200 670 201 656 q 197 691 198 684 q 192 716 195 698 q 187 738 188 734 q 181 768 183 755 q 176 798 178 781 q 175 832 174 815 q 179 866 176 848 q 206 949 188 909 q 246 1021 224 990 q 293 1077 268 1051 q 342 1118 319 1102 q 387 1143 366 1135 q 401 1133 395 1143 q 405 1114 408 1124 q 366 1088 388 1105 q 320 1049 343 1072 q 280 997 298 1027 q 256 940 262 968 q 254 918 255 929 q 252 900 253 907 q 253 881 252 892 q 254 864 254 869 q 256 847 254 859 q 259 832 258 835 q 263 815 260 829 q 266 800 266 802 q 274 758 271 776 q 277 712 277 740 q 271 656 277 685 q 247 587 264 620 q 208 533 229 555 q 168 496 187 511 q 132 475 148 481 q 159 454 145 469 q 186 416 174 439 q 203 362 199 393 q 201 294 208 332 q 139 150 187 225 q 130 134 138 147 q 119 118 121 121 q 111 102 117 114 q 101 85 104 91 q 94 68 99 79 q 86 50 89 58 q 81 31 84 41 q 76 9 78 20 q 75 -37 71 -14 q 87 -80 79 -60 q 108 -117 96 -100 q 133 -145 120 -134 q 156 -164 145 -157 q 144 -184 154 -174 q 127 -193 135 -193 q 83 -160 104 -183 q 45 -101 62 -137 z "},"|":{"ha":319,"x_min":-1,"x_max":353,"o":"m 0 -178 l 261 1171 q 330 1195 286 1195 q 346 1192 338 1195 q 353 1184 353 1189 l 93 -164 q 63 -182 84 -174 q 22 -190 43 -190 q 6 -186 14 -190 q 0 -178 -1 -183 z "},"}":{"ha":328,"x_min":-58,"x_max":332,"o":"m -56 -164 q -16 -139 -38 -156 q 29 -100 6 -122 q 70 -48 52 -77 q 93 9 87 -18 q 96 31 95 20 q 97 50 97 41 q 97 69 98 58 q 96 85 96 80 q 93 102 96 90 q 91 118 91 115 q 87 134 90 121 q 83 150 84 148 q 75 191 78 173 q 73 237 73 210 q 79 294 73 264 q 103 362 86 330 q 141 416 120 394 q 182 454 162 439 q 218 475 201 469 q 190 495 204 481 q 163 533 176 510 q 146 587 150 557 q 149 656 142 617 q 210 800 162 724 q 220 815 212 802 q 230 832 228 828 q 239 847 232 836 q 248 864 245 859 q 255 881 250 870 q 263 900 260 892 q 269 919 266 908 q 274 940 272 929 q 273 997 279 968 q 253 1049 267 1027 q 223 1088 239 1072 q 193 1114 208 1105 q 204 1133 195 1124 q 221 1143 213 1143 q 265 1109 244 1133 q 304 1050 286 1086 q 327 969 321 1015 q 321 866 332 923 q 308 820 317 844 q 289 779 298 795 q 264 738 279 762 q 255 722 262 734 q 244 704 248 709 q 235 689 241 699 q 226 672 229 678 q 219 656 223 665 q 213 638 215 646 q 209 622 210 630 q 292 492 190 522 q 292 475 295 486 q 286 458 290 464 q 151 328 170 427 q 149 305 149 316 q 150 280 149 294 q 153 259 152 266 q 158 234 154 252 q 162 212 161 216 q 171 171 168 187 q 174 129 173 155 q 170 83 176 103 q 135 -19 159 30 q 79 -102 110 -68 q 18 -160 49 -136 q -39 -193 -12 -183 q -52 -184 -47 -193 q -56 -164 -58 -174 z "},"~":{"ha":842,"x_min":92,"x_max":779,"o":"m 92 416 q 105 453 92 433 q 142 488 119 472 q 193 518 165 505 q 250 539 220 532 q 304 547 279 547 q 376 539 342 547 q 438 518 411 530 q 493 494 465 507 q 554 474 520 482 q 626 465 589 465 q 676 475 651 465 q 718 495 702 485 q 762 528 733 506 q 770 534 767 532 q 773 531 770 533 q 776 528 775 529 q 778 524 777 527 q 779 518 779 522 q 762 478 779 500 q 716 435 744 455 q 649 400 688 414 q 570 387 610 387 q 498 395 533 387 q 435 415 463 404 q 379 439 408 427 q 316 460 351 452 q 244 469 281 469 q 194 459 220 469 q 153 438 169 449 q 109 406 138 428 q 106 405 107 406 q 105 404 106 404 q 103 402 104 403 q 100 401 102 401 q 98 402 100 401 q 96 405 97 404 q 94 407 95 406 q 92 411 92 409 q 92 416 92 413 z "},"":{"ha":351,"x_min":0,"x_max":0,"o":""},"":{"ha":313,"x_min":-57,"x_max":277,"o":"m -57 -345 q -50 -296 -57 -327 q -7 -124 -43 -265 q 127 396 62 143 q 138 422 131 411 q 151 430 145 433 q 172 415 167 422 q 178 397 178 409 q 83 -319 85 -308 q 54 -387 76 -358 q 0 -416 31 -416 q -42 -396 -28 -416 q -57 -345 -57 -376 m 110 570 q 141 647 110 613 q 210 680 172 680 q 258 659 240 680 q 277 608 277 638 q 246 533 277 564 q 176 501 215 501 q 128 520 146 501 q 110 570 110 540 z "},"":{"ha":553,"x_min":28,"x_max":526,"o":"m 28 216 q 34 289 28 253 q 53 359 41 326 q 82 424 65 392 q 119 484 98 456 q 162 537 139 512 q 211 584 186 563 q 262 621 235 604 q 314 649 288 637 q 366 667 340 661 q 416 673 392 673 q 459 666 439 673 q 488 652 479 659 q 512 634 498 646 q 521 616 516 628 q 526 592 526 604 q 520 558 526 574 q 503 533 515 543 q 473 523 490 523 q 441 531 456 523 q 418 553 425 540 q 408 569 412 564 q 396 584 404 575 q 380 597 388 592 q 361 605 372 602 q 337 609 350 609 q 272 582 305 609 q 211 508 238 554 q 166 394 184 462 q 149 250 149 326 q 150 219 149 234 q 155 183 151 203 q 165 145 158 162 q 184 114 173 129 q 214 91 195 99 q 255 82 232 82 q 276 85 265 82 q 298 93 288 87 q 319 104 309 98 q 340 118 330 111 q 359 134 349 125 q 376 149 369 142 q 391 164 384 157 q 403 176 398 171 q 411 185 408 181 q 414 189 414 189 q 425 176 418 189 q 433 158 433 164 q 402 119 425 144 q 347 64 380 94 q 274 12 315 34 q 199 -9 233 -9 q 73 50 117 -9 q 28 216 28 109 m 121 -56 l 393 733 q 405 732 398 733 q 421 731 412 732 q 436 727 430 730 q 441 720 441 724 l 169 -70 q 137 -66 154 -70 q 121 -56 119 -62 z "},"":{"ha":691,"x_min":-5,"x_max":623,"o":"m -3 16 q 45 77 16 42 q 87 127 75 113 q 156 366 125 207 q 164 433 161 385 l 77 433 q 104 493 68 458 l 169 493 q 184 645 175 599 q 254 818 202 741 q 376 939 305 895 q 524 982 448 982 q 623 924 600 982 q 606 863 623 892 q 563 833 589 833 q 535 842 547 833 q 516 863 524 850 q 502 887 509 875 q 483 908 494 900 q 454 917 471 917 q 403 904 427 917 q 364 870 380 890 q 335 819 348 849 q 314 760 322 788 q 300 696 307 731 q 293 649 296 676 q 288 601 290 621 q 282 544 286 580 q 278 493 279 509 l 481 493 q 481 480 483 491 q 471 453 479 469 q 454 433 463 438 l 272 433 q 266 383 269 398 q 214 241 250 304 q 134 136 177 178 q 150 141 142 139 q 170 144 158 143 q 190 144 182 144 q 218 144 197 144 q 250 144 238 144 q 326 132 283 144 q 406 107 368 119 q 467 94 444 94 q 502 102 485 94 q 532 124 518 110 q 555 151 546 139 q 577 182 565 163 q 594 208 589 201 q 600 204 597 208 q 606 195 604 201 q 608 181 608 189 q 604 167 608 173 q 401 -12 508 -12 q 311 2 361 -12 q 213 31 260 16 q 138 45 167 45 q 18 -14 88 45 q 1 -4 6 -14 q -3 16 -5 6 z "},"":{"ha":779,"x_min":56,"x_max":755,"o":"m 56 238 l 149 317 q 130 414 130 361 q 158 546 130 482 q 226 654 185 610 l 169 741 q 168 742 169 741 q 167 744 167 743 q 193 777 167 755 q 244 804 219 798 l 302 719 q 458 767 376 767 q 606 703 547 767 l 708 789 q 714 790 710 790 q 724 786 719 790 q 734 775 730 782 q 744 759 739 768 q 751 740 748 750 q 755 720 753 730 l 651 634 q 668 536 668 588 q 653 443 668 490 q 621 365 639 395 q 581 308 603 334 l 642 218 q 642 216 642 217 q 643 215 643 216 q 631 195 643 208 q 601 171 619 182 q 566 155 583 159 l 509 239 q 345 186 430 186 q 193 248 253 186 l 102 170 q 96 169 100 169 q 71 191 84 169 q 56 238 58 214 m 238 422 q 274 288 238 340 q 366 235 310 235 q 441 261 405 235 q 504 328 477 287 q 546 422 530 369 q 562 527 562 475 q 526 663 562 609 q 435 716 491 716 q 338 672 384 716 q 265 561 292 629 q 238 422 238 492 z "},"":{"ha":915,"x_min":129,"x_max":987,"o":"m 134 958 q 144 977 138 972 q 199 974 167 976 q 257 971 231 972 q 314 970 283 970 q 492 977 353 970 q 490 951 493 969 q 481 934 486 934 q 459 932 472 934 q 431 925 447 930 q 404 911 416 921 q 390 888 393 901 q 397 843 387 875 l 515 488 q 667 710 582 583 q 772 873 752 838 q 781 895 779 885 q 779 903 781 899 q 771 912 777 907 q 754 922 764 918 q 727 929 745 926 q 688 932 710 932 q 688 954 685 937 q 694 976 690 970 q 738 972 709 975 q 789 969 768 970 q 833 968 811 968 q 889 969 865 968 q 941 972 913 970 q 987 976 968 975 q 982 951 987 970 q 974 932 977 932 q 954 931 964 932 q 922 925 943 930 q 879 907 900 921 q 843 873 858 894 l 540 444 q 531 429 534 436 q 528 412 529 422 q 526 399 526 401 l 479 172 q 465 62 462 87 q 500 45 467 51 q 555 39 533 39 q 556 17 559 33 q 547 -5 554 1 q 507 -2 532 -4 q 466 0 482 -1 q 428 2 450 1 q 388 3 406 3 q 339 2 364 3 q 276 -2 314 1 q 224 -5 238 -4 q 223 17 220 1 q 233 39 227 33 q 292 45 256 39 q 332 62 328 51 q 341 84 337 70 q 347 107 345 98 q 354 140 349 117 q 360 172 359 164 l 404 394 q 402 436 407 419 l 278 808 q 249 871 264 849 q 209 911 234 893 q 173 928 195 922 q 136 934 151 934 q 134 958 129 934 m 238 226 q 244 250 238 235 q 258 272 251 266 l 639 272 q 643 261 643 272 q 638 238 643 253 q 625 214 634 222 l 244 214 q 238 226 238 214 m 261 347 q 268 371 261 355 q 281 393 274 387 l 662 393 q 667 382 667 393 q 662 358 667 373 q 648 334 657 343 l 267 334 q 261 347 261 334 z "},"":{"ha":326,"x_min":2,"x_max":355,"o":"m 3 -178 l 111 383 q 179 408 136 408 q 196 405 188 408 q 203 397 203 401 l 96 -164 q 66 -182 87 -174 q 24 -190 45 -190 q 9 -186 17 -190 q 3 -178 2 -183 m 155 604 l 263 1166 q 331 1191 288 1191 q 348 1187 340 1191 q 354 1180 355 1184 l 248 618 q 219 600 239 608 q 178 592 199 592 q 161 596 170 592 q 155 604 153 600 z "},"":{"ha":610,"x_min":22,"x_max":603,"o":"m 26 -68 q 51 -32 30 -51 q 88 -12 71 -12 q 105 -15 97 -12 q 116 -18 113 -17 q 127 -25 119 -20 q 136 -31 136 -31 q 179 -43 158 -43 q 231 -35 204 -43 q 283 -7 258 -27 q 313 40 307 13 q 307 100 317 65 q 275 171 296 134 q 232 238 253 208 q 187 297 211 267 q 161 331 173 315 q 135 369 149 347 q 112 410 122 390 q 93 455 102 431 q 81 505 85 480 q 77 557 77 529 q 82 612 77 585 q 125 720 92 663 q 208 829 159 776 q 319 928 258 882 q 541 1010 426 1010 q 598 998 574 1010 q 598 957 603 983 q 574 921 595 940 q 536 901 553 901 q 524 902 530 901 q 512 906 517 903 q 504 910 507 908 q 496 915 501 911 q 488 920 490 919 q 444 932 467 932 q 406 927 426 932 q 366 913 385 922 q 331 886 346 903 q 313 849 316 869 q 318 789 307 824 q 350 718 328 755 q 393 651 372 681 q 437 592 414 622 q 464 558 452 574 q 489 520 476 542 q 513 479 503 499 q 531 434 523 458 q 544 385 540 409 q 548 332 548 360 q 543 277 548 304 q 496 168 533 227 q 410 55 460 108 q 306 -39 361 3 q 204 -97 262 -73 q 83 -121 146 -121 q 26 -109 51 -121 q 26 -68 22 -94 m 173 680 q 168 627 168 654 q 171 576 168 600 q 182 529 175 553 q 199 485 190 505 q 222 444 209 465 q 247 406 235 423 q 274 371 259 389 q 291 351 279 366 q 310 328 303 336 q 328 305 316 320 q 346 280 339 290 q 361 254 352 270 q 375 227 370 239 q 386 199 380 215 q 393 169 391 183 q 395 138 395 155 q 391 105 395 121 q 389 97 391 101 q 387 87 388 92 q 385 79 386 83 q 408 111 401 100 q 426 138 416 121 q 442 172 436 155 q 452 209 448 189 q 457 262 456 235 q 453 313 457 289 q 442 360 450 336 q 425 404 435 384 q 403 445 416 425 q 378 483 390 466 q 351 518 366 500 q 334 538 346 524 q 315 561 321 553 q 297 584 309 569 q 279 609 286 600 q 263 635 273 619 q 249 662 254 650 q 239 690 244 674 q 232 720 233 706 q 230 751 230 734 q 233 784 231 768 q 236 797 234 789 q 239 810 239 806 q 210 768 219 783 q 189 730 200 754 q 173 680 178 707 z "},"":{"ha":440,"x_min":20,"x_max":429,"o":"m 37 794 q 29 805 37 794 q 26 844 20 816 q 57 894 32 873 q 109 916 81 916 q 151 893 135 916 q 161 843 167 871 q 145 808 157 824 q 115 782 132 791 q 81 773 98 773 q 37 794 54 773 m 300 794 q 292 805 300 794 q 289 844 283 816 q 320 894 295 873 q 372 916 346 916 q 414 894 399 916 q 424 843 429 872 q 394 793 418 814 q 343 773 370 773 q 300 794 316 773 z "},"":{"ha":932,"x_min":88,"x_max":889,"o":"m 88 442 q 107 573 88 508 q 158 693 125 637 q 237 797 191 749 q 336 879 283 845 q 450 931 389 912 q 570 951 510 951 q 736 907 663 951 q 849 787 809 863 q 889 615 889 711 q 870 485 889 550 q 818 365 851 420 q 739 261 785 309 q 640 179 693 213 q 526 126 587 145 q 405 106 465 106 q 240 150 313 106 q 128 271 168 194 q 88 442 88 347 m 134 452 q 170 300 134 368 q 269 194 205 233 q 416 155 334 155 q 507 167 461 155 q 595 203 553 180 q 675 257 637 226 q 744 329 713 289 q 797 412 774 368 q 832 505 819 456 q 844 604 844 555 q 809 757 844 689 q 708 864 773 825 q 562 903 644 903 q 404 866 482 903 q 267 767 326 828 q 171 622 208 706 q 134 452 134 538 m 277 475 q 297 574 277 524 q 352 661 318 623 q 432 723 385 699 q 529 747 479 747 q 578 744 551 747 q 633 734 604 741 q 684 718 662 727 q 686 705 686 711 q 688 628 688 684 q 683 615 688 620 q 672 610 677 611 q 663 609 667 609 q 654 612 657 609 q 653 623 654 617 q 648 637 652 629 q 640 653 645 646 q 626 668 635 661 q 605 682 616 676 q 575 691 593 687 q 536 694 557 694 q 474 678 505 694 q 417 634 442 662 q 377 568 393 607 q 362 487 362 529 q 373 427 362 454 q 401 384 383 400 q 439 359 418 368 q 482 351 460 351 q 533 356 511 351 q 569 368 555 361 q 592 385 582 374 q 607 402 603 395 q 616 419 612 410 q 623 431 621 429 q 629 433 626 433 q 639 431 633 433 q 648 429 644 430 l 651 427 q 628 374 647 415 q 603 331 610 334 q 446 302 531 302 q 323 350 370 302 q 277 475 277 399 z "},"":{"ha":587,"x_min":92,"x_max":553,"o":"m 92 513 q 106 604 92 559 q 147 687 121 649 q 207 757 173 724 q 279 813 241 790 q 356 848 317 836 q 431 861 396 861 q 524 847 482 861 l 452 506 q 449 489 450 503 q 447 471 447 475 q 458 446 447 446 q 543 507 481 446 q 549 499 545 507 q 553 487 553 492 q 520 452 546 475 q 459 407 495 429 q 397 385 422 385 q 368 401 379 385 q 357 442 357 417 q 365 499 357 460 q 368 514 366 508 q 371 525 370 521 q 372 532 372 529 q 344 492 361 514 q 301 445 326 471 q 249 403 277 420 q 197 387 220 387 q 120 421 148 387 q 92 513 92 456 m 179 555 q 239 448 179 448 q 304 487 269 448 q 367 581 339 525 q 407 688 395 636 l 431 802 q 408 814 424 810 q 377 818 391 818 q 308 794 344 818 q 244 733 272 770 q 197 648 216 696 q 179 555 179 600 z "},"":{"ha":748,"x_min":42,"x_max":718,"o":"m 42 374 q 49 396 42 386 q 65 411 56 406 q 155 465 115 439 q 231 516 195 490 q 290 558 268 542 q 351 607 311 575 q 411 654 391 638 q 428 646 418 652 q 439 631 437 640 q 409 598 437 626 q 344 536 382 571 q 269 467 307 501 q 205 408 231 432 l 179 385 q 340 140 340 153 q 308 113 331 125 q 199 230 272 159 q 57 353 125 300 q 42 374 42 363 m 320 374 q 327 396 320 386 q 343 411 334 406 q 421 458 385 435 q 485 498 458 481 q 541 538 511 515 q 589 575 570 560 q 638 614 607 589 q 690 654 669 639 q 706 646 697 652 q 718 631 715 640 q 649 561 714 623 q 521 442 584 500 l 458 385 q 577 209 458 385 q 618 140 618 146 q 586 113 610 125 q 477 230 551 159 q 336 353 404 300 q 320 374 320 363 z "},"":{"ha":835,"x_min":76,"x_max":762,"o":"m 76 507 q 79 525 76 517 q 87 539 82 534 q 97 549 92 545 q 109 552 103 552 l 762 552 l 690 178 q 667 166 685 173 q 635 159 650 159 q 620 162 627 159 q 614 172 613 165 l 671 486 l 81 486 q 76 507 76 498 z "},"":{"ha":572,"x_min":81,"x_max":473,"o":"m 81 331 q 91 375 81 347 q 113 404 102 403 l 464 422 q 473 404 473 422 q 461 356 473 387 q 437 325 448 326 l 88 308 q 81 331 81 308 z "},"":{"ha":932,"x_min":102,"x_max":913,"o":"m 142 379 q 129 406 142 379 q 109 496 115 433 q 115 629 102 559 q 177 793 131 715 q 287 928 224 871 q 430 1018 351 985 q 589 1051 509 1051 q 709 1030 653 1051 q 805 970 765 1008 q 873 879 846 932 q 907 763 901 826 q 901 629 913 700 q 872 532 892 580 q 825 443 853 485 q 763 365 798 401 q 689 299 729 328 q 607 249 650 270 q 517 217 564 228 q 425 205 471 205 q 306 227 361 205 q 210 288 250 249 q 142 379 170 326 m 162 629 q 155 530 151 578 q 173 441 159 482 q 212 365 186 399 q 271 307 238 331 q 346 269 304 282 q 436 255 389 255 q 577 285 507 255 q 703 365 647 315 q 801 484 760 415 q 857 629 842 553 q 862 747 867 692 q 832 849 857 802 q 773 930 808 896 q 688 983 737 964 q 581 1002 638 1002 q 441 972 511 1002 q 315 893 371 943 q 218 774 259 843 q 162 629 177 705 m 286 433 q 288 437 286 435 q 291 441 290 439 q 309 444 302 442 q 322 447 317 446 q 331 452 328 449 q 336 458 334 455 q 340 467 338 460 q 342 478 341 473 q 344 492 342 483 q 348 510 346 502 l 399 772 q 405 817 405 806 q 393 831 405 825 q 371 836 380 836 q 368 840 368 836 q 370 848 368 843 q 372 855 372 853 q 402 852 380 854 q 439 850 424 850 q 493 853 460 850 q 547 857 526 857 q 628 832 595 857 q 662 762 662 807 q 572 640 662 685 q 570 635 570 639 l 570 634 q 575 619 572 629 q 583 597 578 609 q 593 571 587 585 q 606 543 600 557 q 620 515 613 528 q 633 491 628 499 q 645 471 637 482 q 658 455 652 460 q 673 446 665 450 q 692 442 682 442 q 690 425 692 431 q 662 420 680 420 q 622 423 638 420 q 590 436 606 426 q 565 457 575 446 q 542 494 555 469 q 518 545 528 519 q 490 615 508 570 q 464 629 484 629 q 449 627 454 629 q 444 617 445 624 l 418 479 l 418 463 q 422 450 418 452 q 452 441 441 441 q 453 436 453 441 q 450 420 453 433 q 372 424 391 424 q 288 420 353 424 q 287 427 288 423 q 286 433 286 431 m 454 680 q 513 662 454 662 q 569 691 548 662 q 591 759 591 721 q 574 804 591 790 q 532 818 558 818 q 499 816 511 818 q 484 811 487 814 q 479 802 480 808 l 458 686 q 456 683 458 685 q 454 680 454 681 z "},"":{"ha":406,"x_min":31,"x_max":376,"o":"m 31 772 q 34 788 31 777 q 41 808 37 799 q 50 818 46 818 l 368 818 q 373 815 370 818 q 376 807 376 812 q 372 782 376 798 q 360 758 368 767 l 35 758 q 31 772 31 762 z "},"":{"ha":411,"x_min":139,"x_max":429,"o":"m 139 800 q 165 890 139 848 q 232 957 192 932 q 313 981 271 981 q 396 946 363 981 q 429 858 429 911 q 403 769 429 812 q 337 701 378 726 q 255 675 297 675 q 172 711 205 675 q 139 800 139 747 m 195 810 q 203 771 195 789 q 229 743 212 753 q 266 733 245 733 q 340 768 307 733 q 372 847 372 802 q 364 886 372 869 q 339 913 355 903 q 302 923 323 923 q 227 890 260 923 q 195 810 195 857 z "},"":{"ha":755,"x_min":-1,"x_max":714,"o":"m -1 45 q 18 99 -1 73 l 623 99 q 628 87 628 99 q 625 57 628 69 q 609 33 621 45 l 6 33 q -1 45 -1 33 m 85 486 q 105 540 85 513 l 370 540 l 422 810 q 449 829 425 823 q 486 835 472 835 q 497 831 494 835 q 499 823 500 828 l 444 540 l 708 540 q 714 527 714 540 q 711 498 714 510 q 696 473 707 486 l 431 473 l 379 198 q 360 180 376 187 q 323 173 343 173 q 303 186 303 173 l 357 473 l 92 473 q 85 486 85 473 z "},"":{"ha":533,"x_min":71,"x_max":521,"o":"m 71 419 q 196 537 117 460 q 314 657 275 614 q 401 843 401 756 q 374 906 401 881 q 311 931 347 931 q 193 859 245 931 q 191 857 192 859 l 189 854 q 179 865 184 854 q 175 880 174 877 q 196 909 180 890 q 236 948 212 927 q 297 985 261 970 q 371 1000 334 1000 q 424 992 398 1000 q 472 969 450 985 q 508 929 494 954 q 521 872 521 904 q 511 813 521 842 q 481 755 502 785 q 443 706 461 726 q 394 654 425 686 q 193 487 330 589 l 181 478 l 363 478 q 418 499 396 478 q 456 557 439 521 q 470 563 458 563 q 481 557 472 563 q 492 551 490 552 q 418 394 470 509 l 77 394 q 74 405 76 395 q 71 419 71 414 z "},"":{"ha":488,"x_min":70,"x_max":467,"o":"m 70 433 q 78 463 70 447 q 97 488 85 478 q 119 498 109 498 q 139 493 130 498 q 152 483 147 488 q 162 468 156 477 q 172 454 168 458 q 239 430 193 430 q 321 475 284 430 q 357 597 357 521 q 331 672 357 645 q 260 699 304 699 q 210 692 232 699 q 208 696 210 694 q 205 700 205 699 q 204 703 204 701 q 205 725 204 722 q 253 738 229 730 q 298 760 276 747 q 336 789 319 773 q 362 825 353 805 q 372 866 372 845 q 355 918 372 896 q 309 940 338 940 q 278 934 293 940 q 251 920 262 928 q 231 902 239 911 q 216 886 222 893 q 208 877 209 878 q 198 886 203 877 q 195 903 194 896 q 267 976 229 951 q 354 1002 305 1002 q 401 991 378 1002 q 441 956 424 981 q 458 899 458 932 q 447 852 458 876 q 417 810 435 829 q 379 777 399 791 q 340 750 360 762 q 429 706 390 747 q 467 622 467 666 q 447 534 467 575 q 395 466 427 493 q 327 419 364 439 q 255 391 289 399 q 193 382 220 382 q 79 405 111 382 q 70 433 70 419 z "},"":{"ha":311,"x_min":16,"x_max":280,"o":"m 16 773 q 48 819 16 779 q 117 898 81 859 q 162 945 153 938 q 220 960 184 960 q 244 957 231 960 q 269 942 257 953 q 280 913 280 930 q 222 862 280 901 q 102 790 163 823 q 28 758 40 758 q 20 764 24 758 q 16 773 16 770 z "},"":{"ha":762,"x_min":-17,"x_max":621,"o":"m -17 -226 q 29 26 -17 -157 q 110 315 75 208 q 139 483 114 336 q 169 654 164 630 q 185 668 174 661 q 204 675 196 675 q 239 659 218 675 q 271 617 261 642 q 238 512 267 597 q 179 345 210 427 q 167 232 167 281 q 180 140 167 178 q 215 102 193 102 q 237 105 226 102 q 259 117 248 109 q 280 133 271 125 q 302 156 290 140 q 323 181 315 171 q 344 211 331 191 q 363 242 357 231 q 384 276 370 253 q 402 309 397 300 q 420 343 407 319 q 461 509 438 410 q 496 654 485 609 q 513 668 502 661 q 532 675 524 675 q 553 669 540 675 q 579 648 566 662 q 598 617 592 633 q 562 524 591 597 q 507 388 533 451 l 481 325 q 468 211 468 260 q 484 132 467 161 q 534 102 501 102 q 611 140 572 102 q 618 124 615 138 q 620 106 621 111 q 567 29 604 64 q 493 -6 529 -6 q 462 1 475 -6 q 440 20 449 9 q 427 51 432 32 q 420 87 422 70 q 418 130 418 104 q 419 173 418 155 q 422 216 420 191 q 388 158 404 184 q 352 104 372 132 q 315 57 333 77 q 279 20 298 37 q 240 -6 260 3 q 201 -14 220 -14 q 125 136 125 -14 q 109 76 124 130 q 80 -43 94 22 q 66 -153 66 -109 q 117 -300 66 -220 q 105 -320 116 -311 q 78 -336 94 -330 q 50 -342 63 -342 q 30 -337 40 -342 q 9 -322 20 -333 q -10 -286 -3 -311 q -17 -226 -17 -261 z "},"":{"ha":747,"x_min":99,"x_max":814,"o":"m 99 680 q 117 783 99 734 q 164 867 134 831 q 232 933 194 903 q 310 981 269 962 q 390 1009 351 1000 q 463 1019 429 1019 q 575 1018 509 1019 q 665 1016 641 1016 q 711 1017 690 1016 q 761 1020 733 1018 q 810 1023 788 1023 q 811 1001 814 1017 q 801 979 807 985 q 773 976 791 979 q 738 968 755 974 q 716 954 720 962 q 686 840 701 923 q 589 288 614 420 q 536 115 571 195 q 457 -21 500 34 q 365 -107 414 -76 q 269 -139 315 -139 q 216 -128 237 -139 q 186 -100 195 -117 q 187 -76 186 -83 q 202 -32 191 -49 q 232 -14 214 -14 q 250 -17 241 -14 q 266 -25 258 -19 q 278 -36 273 -31 q 291 -50 282 -40 q 303 -61 298 -57 q 316 -68 307 -64 q 336 -73 326 -73 q 407 6 378 -73 q 475 281 436 84 l 580 830 q 595 946 599 925 q 566 962 592 962 q 516 934 541 962 q 473 865 491 907 q 443 773 454 823 q 431 679 431 723 q 486 504 431 549 q 495 497 488 503 q 501 488 501 491 q 474 454 501 470 q 414 430 448 438 q 355 422 381 422 q 271 433 310 422 q 205 465 233 445 q 157 510 178 485 q 123 565 136 535 q 105 623 111 594 q 99 680 99 652 z "},"":{"ha":343,"x_min":83,"x_max":254,"o":"m 83 390 q 116 465 83 432 q 187 498 149 498 q 222 488 207 498 q 245 463 237 479 q 254 427 254 447 q 222 351 254 385 q 151 317 190 317 q 102 337 121 317 q 83 390 83 358 z "},"":{"ha":249,"x_min":12,"x_max":222,"o":"m 12 -221 q 12 -211 12 -220 q 12 -199 12 -201 q 17 -189 13 -194 q 26 -181 21 -184 q 35 -178 31 -178 q 58 -188 43 -178 q 85 -198 73 -198 q 134 -183 114 -198 q 158 -147 154 -168 q 152 -108 163 -121 q 123 -94 140 -94 q 83 -105 111 -94 q 75 -97 81 -105 q 73 -85 70 -89 q 104 -46 81 -74 q 134 -6 127 -18 l 164 -6 l 132 -42 l 167 -42 q 208 -64 194 -42 q 216 -117 222 -87 q 186 -180 210 -153 q 130 -221 163 -207 q 59 -235 96 -235 q 33 -231 47 -235 q 12 -221 18 -226 z "},"":{"ha":417,"x_min":83,"x_max":391,"o":"m 85 391 q 84 410 83 395 q 90 425 86 425 q 135 432 102 425 q 170 446 167 438 q 186 499 180 465 l 243 791 q 252 877 257 866 q 246 882 250 882 q 164 860 222 882 q 156 882 156 867 q 161 890 156 888 q 254 937 199 909 q 345 983 310 965 q 382 1002 380 1002 l 383 1002 q 391 983 391 1002 q 365 895 376 952 l 292 529 q 283 446 281 472 q 315 432 284 438 q 355 425 346 425 q 359 417 358 425 q 359 405 360 410 q 357 401 358 404 q 356 397 357 399 q 355 394 356 395 q 354 391 355 392 q 201 396 248 396 q 85 391 192 396 z "},"":{"ha":524,"x_min":98,"x_max":506,"o":"m 98 536 q 121 650 98 592 q 181 753 144 708 q 267 828 218 799 q 366 857 317 857 q 429 845 401 857 q 472 811 456 833 q 497 761 489 790 q 506 697 506 732 q 483 584 506 642 q 422 483 459 527 q 335 410 385 438 q 235 382 285 382 q 157 401 189 382 q 112 455 125 421 q 98 536 98 489 m 190 558 q 198 483 190 515 q 222 433 207 451 q 258 416 237 416 q 324 442 294 416 q 373 508 354 468 q 402 594 392 549 q 413 682 413 640 q 397 786 413 749 q 351 823 382 823 q 284 797 315 823 q 233 731 252 770 q 201 645 213 691 q 190 558 190 600 z "},"":{"ha":749,"x_min":20,"x_max":696,"o":"m 20 136 q 50 169 22 141 q 115 231 77 196 q 190 300 153 266 q 254 358 228 335 l 280 382 q 119 626 119 614 q 151 654 128 642 q 260 537 187 608 q 402 414 334 467 q 418 393 418 404 q 411 371 418 381 q 394 355 404 361 q 305 302 345 328 q 228 251 264 277 q 170 209 192 225 q 108 160 148 192 q 48 113 68 128 q 32 121 41 115 q 20 136 22 127 m 298 136 q 367 206 302 144 q 495 325 432 267 l 558 382 q 397 626 397 614 q 430 654 406 642 q 539 537 465 608 q 680 414 612 467 q 696 393 696 404 q 689 371 696 381 q 673 355 682 361 q 594 309 631 332 q 531 269 557 286 q 475 229 505 251 q 427 192 446 207 q 378 153 409 178 q 326 113 347 128 q 310 121 319 115 q 298 136 300 127 z "},"":{"ha":985,"x_min":58,"x_max":915,"o":"m 60 391 q 60 410 58 395 q 65 425 62 425 q 110 432 78 425 q 145 446 142 438 q 161 499 155 465 l 218 791 q 228 877 232 866 q 221 882 226 882 q 139 860 197 882 q 132 882 132 867 q 136 890 132 888 q 230 937 174 909 q 320 983 285 965 q 357 1002 356 1002 l 359 1002 q 366 983 366 1002 q 340 895 351 952 l 267 529 q 258 446 256 472 q 270 438 259 441 q 293 431 280 434 q 317 427 306 429 q 331 425 328 425 q 334 417 333 425 q 334 405 335 410 q 330 391 330 391 q 176 396 222 396 q 60 391 167 396 m 169 6 q 172 16 169 9 l 863 993 q 866 992 864 993 q 875 991 869 992 q 886 989 882 991 q 895 984 890 987 q 899 976 899 981 q 897 968 899 970 l 208 -9 q 203 -9 207 -9 q 194 -9 199 -9 q 182 -7 188 -8 q 173 -2 176 -5 q 169 6 169 1 m 463 164 q 456 173 458 166 q 456 186 455 180 l 863 615 q 879 623 868 621 q 897 626 890 626 q 909 617 903 626 q 913 603 915 609 l 841 235 l 895 235 q 901 219 900 235 q 899 187 901 202 q 890 164 897 176 l 829 164 l 798 1 q 742 -3 776 -3 q 708 -1 722 -3 q 696 5 694 1 l 727 164 l 463 164 m 557 235 l 741 235 l 793 486 l 557 235 z "},"":{"ha":1065,"x_min":60,"x_max":1005,"o":"m 62 391 q 61 410 60 395 q 66 425 63 425 q 112 432 79 425 q 147 446 144 438 q 162 499 157 465 l 220 791 q 229 877 233 866 q 222 882 227 882 q 140 860 199 882 q 133 882 133 867 q 138 890 133 888 q 231 937 176 909 q 322 983 286 965 q 359 1002 357 1002 l 360 1002 q 368 983 368 1002 q 342 895 353 952 l 269 529 q 260 446 258 472 q 271 438 260 441 q 295 431 281 434 q 319 427 308 429 q 332 425 330 425 q 336 417 334 425 q 336 405 337 410 q 331 391 331 391 q 178 396 224 396 q 62 391 168 396 m 170 6 q 173 16 170 9 l 865 993 q 868 992 866 993 q 877 991 871 992 q 888 989 883 991 q 896 984 892 987 q 900 976 900 981 q 899 968 900 970 l 209 -9 q 204 -9 208 -9 q 195 -9 201 -9 q 184 -7 189 -8 q 174 -2 178 -5 q 170 6 170 1 m 555 28 q 680 145 601 68 q 798 266 760 222 q 884 452 884 366 q 858 515 884 490 q 795 540 831 540 q 756 533 775 540 q 726 518 737 526 q 700 497 714 511 q 683 478 686 482 q 671 463 680 475 q 662 474 667 463 q 659 488 657 486 q 680 517 664 499 q 720 557 695 536 q 782 594 745 578 q 855 609 818 609 q 908 601 882 609 q 956 578 934 593 q 991 538 978 564 q 1005 481 1005 513 q 996 422 1005 450 q 965 364 986 393 q 927 315 945 335 q 878 263 909 294 q 841 228 862 246 q 801 193 821 210 q 760 160 781 176 q 723 131 740 144 q 692 107 705 117 q 671 92 678 98 l 663 87 l 847 87 q 889 99 870 87 q 919 126 907 111 q 940 165 930 142 q 954 172 942 172 q 965 166 956 172 q 976 159 974 161 q 901 3 954 118 l 562 3 q 558 14 560 4 q 555 28 555 24 z "},"":{"ha":1006,"x_min":50,"x_max":938,"o":"m 50 433 q 57 463 50 447 q 77 488 65 478 q 99 498 88 498 q 115 495 108 498 q 127 487 122 492 q 136 477 132 482 q 144 466 139 473 q 151 454 149 458 q 220 430 172 430 q 301 475 264 430 q 337 597 337 521 q 311 672 337 645 q 239 699 284 699 q 190 692 212 699 q 188 696 189 694 q 185 700 186 699 q 184 703 184 701 q 186 725 184 722 q 263 751 226 732 q 327 801 300 770 q 353 866 353 831 q 335 918 353 896 q 289 940 318 940 q 258 934 273 940 q 231 920 242 928 q 211 902 220 911 q 196 886 202 893 q 187 877 189 878 q 178 886 182 877 q 175 903 174 896 q 247 976 209 951 q 334 1002 285 1002 q 381 991 358 1002 q 420 956 404 981 q 437 899 437 932 q 426 852 437 876 q 397 810 415 829 q 360 777 379 791 q 320 750 340 762 q 408 706 370 747 q 447 622 447 666 q 427 534 447 575 q 375 466 406 493 q 306 419 344 439 q 234 391 269 399 q 173 382 200 382 q 59 405 92 382 q 50 433 50 419 m 169 6 q 172 16 169 9 l 863 993 q 866 992 864 993 q 875 991 869 992 q 886 989 882 991 q 895 984 890 987 q 899 976 899 981 q 897 968 899 970 l 208 -9 q 203 -9 207 -9 q 194 -9 199 -9 q 182 -7 188 -8 q 173 -2 176 -5 q 169 6 169 1 m 479 186 l 886 615 q 902 623 891 621 q 920 626 913 626 q 932 617 926 626 q 937 603 938 609 l 865 235 l 918 235 q 924 219 923 235 q 922 187 924 202 q 913 164 920 176 l 852 164 l 821 1 q 766 -3 800 -3 q 732 -1 745 -3 q 719 5 718 1 l 750 164 l 486 164 q 480 173 481 166 q 479 186 478 180 m 580 235 l 764 235 l 817 486 l 580 235 z "},"":{"ha":479,"x_min":-51,"x_max":394,"o":"m -51 -123 q -35 -36 -51 -74 q 17 37 -20 3 q 101 96 38 56 q 195 156 164 135 q 235 196 223 176 q 246 249 246 217 q 225 306 246 278 q 186 348 205 334 q 188 356 186 351 q 194 366 190 361 q 201 372 197 370 q 241 360 216 372 q 291 327 266 347 q 335 276 317 306 q 354 215 354 245 q 334 141 354 170 q 278 87 314 111 q 99 -37 151 0 q 28 -155 28 -87 q 50 -223 28 -199 q 109 -248 73 -248 q 141 -240 127 -248 q 165 -222 156 -233 q 184 -201 175 -212 q 206 -184 193 -191 q 235 -176 219 -176 q 262 -184 251 -176 q 278 -206 273 -193 q 286 -232 283 -220 q 288 -256 288 -244 q 238 -300 281 -276 q 155 -323 195 -323 q 51 -293 99 -323 q -24 -217 3 -263 q -51 -123 -51 -172 m 224 566 q 234 607 224 587 q 258 642 243 627 q 292 665 273 656 q 330 674 311 674 q 376 654 359 674 q 394 603 394 634 q 386 562 394 582 q 363 527 377 541 q 331 504 349 512 q 294 495 313 495 q 258 504 274 495 q 233 530 242 513 q 224 566 224 546 z "},"":{"ha":906,"x_min":-87,"x_max":855,"o":"m -85 -5 q -84 15 -87 -1 q -76 40 -81 32 q -29 48 -58 40 q 12 70 0 56 q 38 100 26 84 q 63 137 50 117 q 85 173 76 158 q 109 215 94 189 l 535 981 q 565 1011 545 998 q 597 1025 586 1025 q 604 1021 600 1025 l 738 195 q 746 145 741 173 q 752 105 750 118 q 755 90 754 92 q 764 71 757 79 q 782 57 772 62 q 803 48 792 52 q 824 43 813 45 q 841 41 835 41 q 852 40 848 40 q 853 16 855 31 q 847 -5 850 0 q 797 -2 833 -4 q 734 2 760 1 q 679 3 707 3 q 634 2 656 3 q 598 0 613 1 q 561 -2 584 -1 q 518 -5 538 -3 q 517 18 513 1 q 527 40 520 35 q 574 45 554 40 q 605 62 594 51 q 615 88 615 73 q 611 164 615 134 l 576 396 l 269 396 q 159 193 195 262 q 115 77 115 106 q 127 58 115 66 q 159 46 140 50 q 190 41 177 43 q 210 40 203 40 q 210 20 212 37 q 204 -5 208 3 q 159 -1 183 -3 q 115 2 136 1 q 66 3 94 3 q 15 2 37 3 q -34 -1 -7 1 q -85 -5 -60 -3 m 297 447 l 568 447 l 509 827 l 297 447 m 365 1231 q 386 1255 365 1244 q 439 1265 407 1265 q 463 1262 448 1265 q 481 1257 477 1259 q 578 1179 511 1238 q 645 1114 645 1121 q 643 1107 645 1111 q 638 1101 641 1103 q 635 1098 636 1098 q 557 1123 623 1098 q 428 1180 491 1147 q 365 1231 365 1213 z "},"":{"ha":906,"x_min":-87,"x_max":855,"o":"m -85 -5 q -84 15 -87 -1 q -76 40 -81 32 q -29 48 -58 40 q 12 70 0 56 q 38 100 26 84 q 63 137 50 117 q 85 173 76 158 q 109 215 94 189 l 535 981 q 565 1011 545 998 q 597 1025 586 1025 q 604 1021 600 1025 l 738 195 q 746 145 741 173 q 752 105 750 118 q 755 90 754 92 q 764 71 757 79 q 782 57 772 62 q 803 48 792 52 q 824 43 813 45 q 841 41 835 41 q 852 40 848 40 q 853 16 855 31 q 847 -5 850 0 q 797 -2 833 -4 q 734 2 760 1 q 679 3 707 3 q 634 2 656 3 q 598 0 613 1 q 561 -2 584 -1 q 518 -5 538 -3 q 517 18 513 1 q 527 40 520 35 q 574 45 554 40 q 605 62 594 51 q 615 88 615 73 q 611 164 615 134 l 576 396 l 269 396 q 159 193 195 262 q 115 77 115 106 q 127 58 115 66 q 159 46 140 50 q 190 41 177 43 q 210 40 203 40 q 210 20 212 37 q 204 -5 208 3 q 159 -1 183 -3 q 115 2 136 1 q 66 3 94 3 q 15 2 37 3 q -34 -1 -7 1 q -85 -5 -60 -3 m 297 447 l 568 447 l 509 827 l 297 447 m 535 1115 q 602 1181 535 1123 q 699 1259 669 1240 q 718 1263 703 1261 q 741 1266 732 1266 q 794 1256 773 1266 q 815 1232 815 1246 q 752 1182 815 1215 q 623 1124 688 1149 q 545 1099 557 1099 q 539 1105 543 1099 q 535 1115 535 1112 z "},"":{"ha":906,"x_min":-87,"x_max":855,"o":"m -85 -5 q -84 15 -87 -1 q -76 40 -81 32 q -29 48 -58 40 q 12 70 0 56 q 38 100 26 84 q 63 137 50 117 q 85 173 76 158 q 109 215 94 189 l 535 981 q 565 1011 545 998 q 597 1025 586 1025 q 604 1021 600 1025 l 738 195 q 746 145 741 173 q 752 105 750 118 q 755 90 754 92 q 764 71 757 79 q 782 57 772 62 q 803 48 792 52 q 824 43 813 45 q 841 41 835 41 q 852 40 848 40 q 853 16 855 31 q 847 -5 850 0 q 797 -2 833 -4 q 734 2 760 1 q 679 3 707 3 q 634 2 656 3 q 598 0 613 1 q 561 -2 584 -1 q 518 -5 538 -3 q 517 18 513 1 q 527 40 520 35 q 574 45 554 40 q 605 62 594 51 q 615 88 615 73 q 611 164 615 134 l 576 396 l 269 396 q 159 193 195 262 q 115 77 115 106 q 127 58 115 66 q 159 46 140 50 q 190 41 177 43 q 210 40 203 40 q 210 20 212 37 q 204 -5 208 3 q 159 -1 183 -3 q 115 2 136 1 q 66 3 94 3 q 15 2 37 3 q -34 -1 -7 1 q -85 -5 -60 -3 m 297 447 l 568 447 l 509 827 l 297 447 m 429 1115 q 633 1282 537 1196 q 654 1293 646 1293 q 669 1282 664 1293 q 790 1115 722 1197 q 786 1107 789 1110 q 777 1101 782 1103 q 767 1099 772 1099 l 629 1191 q 444 1099 518 1137 q 432 1104 437 1099 q 429 1115 427 1108 z "},"":{"ha":906,"x_min":-87,"x_max":855,"o":"m -85 -5 q -84 15 -87 -1 q -76 40 -81 32 q -29 48 -58 40 q 12 70 0 56 q 38 100 26 84 q 63 137 50 117 q 85 173 76 158 q 109 215 94 189 l 535 981 q 565 1011 545 998 q 597 1025 586 1025 q 604 1021 600 1025 l 738 195 q 746 145 741 173 q 752 105 750 118 q 755 90 754 92 q 764 71 757 79 q 782 57 772 62 q 803 48 792 52 q 824 43 813 45 q 841 41 835 41 q 852 40 848 40 q 853 16 855 31 q 847 -5 850 0 q 797 -2 833 -4 q 734 2 760 1 q 679 3 707 3 q 634 2 656 3 q 598 0 613 1 q 561 -2 584 -1 q 518 -5 538 -3 q 517 18 513 1 q 527 40 520 35 q 574 45 554 40 q 605 62 594 51 q 615 88 615 73 q 611 164 615 134 l 576 396 l 269 396 q 159 193 195 262 q 115 77 115 106 q 127 58 115 66 q 159 46 140 50 q 190 41 177 43 q 210 40 203 40 q 210 20 212 37 q 204 -5 208 3 q 159 -1 183 -3 q 115 2 136 1 q 66 3 94 3 q 15 2 37 3 q -34 -1 -7 1 q -85 -5 -60 -3 m 297 447 l 568 447 l 509 827 l 297 447 m 385 1158 q 414 1215 385 1186 q 535 1266 467 1266 q 586 1262 566 1266 q 629 1244 606 1258 q 655 1231 647 1235 q 678 1220 663 1226 q 709 1211 694 1213 q 741 1208 724 1208 q 841 1266 791 1208 q 850 1251 850 1263 q 823 1194 850 1221 q 702 1143 770 1143 q 668 1144 682 1143 q 638 1151 654 1145 q 608 1164 623 1156 q 574 1183 585 1177 q 541 1195 562 1189 q 496 1202 519 1202 q 396 1143 446 1202 q 385 1158 385 1146 z "},"":{"ha":906,"x_min":-87,"x_max":855,"o":"m -85 -5 q -84 15 -87 -1 q -76 40 -81 32 q -29 48 -58 40 q 12 70 0 56 q 38 100 26 84 q 63 137 50 117 q 85 173 76 158 q 109 215 94 189 l 535 981 q 565 1011 545 998 q 597 1025 586 1025 q 604 1021 600 1025 l 738 195 q 746 145 741 173 q 752 105 750 118 q 755 90 754 92 q 764 71 757 79 q 782 57 772 62 q 803 48 792 52 q 824 43 813 45 q 841 41 835 41 q 852 40 848 40 q 853 16 855 31 q 847 -5 850 0 q 797 -2 833 -4 q 734 2 760 1 q 679 3 707 3 q 634 2 656 3 q 598 0 613 1 q 561 -2 584 -1 q 518 -5 538 -3 q 517 18 513 1 q 527 40 520 35 q 574 45 554 40 q 605 62 594 51 q 615 88 615 73 q 611 164 615 134 l 576 396 l 269 396 q 159 193 195 262 q 115 77 115 106 q 127 58 115 66 q 159 46 140 50 q 190 41 177 43 q 210 40 203 40 q 210 20 212 37 q 204 -5 208 3 q 159 -1 183 -3 q 115 2 136 1 q 66 3 94 3 q 15 2 37 3 q -34 -1 -7 1 q -85 -5 -60 -3 m 297 447 l 568 447 l 509 827 l 297 447 m 411 1203 q 419 1228 414 1216 q 434 1249 425 1240 q 452 1266 442 1259 q 474 1277 463 1273 q 498 1280 486 1280 q 545 1258 528 1280 q 555 1203 561 1236 q 523 1148 549 1171 q 467 1126 497 1126 q 421 1148 437 1126 q 411 1203 406 1171 m 671 1203 q 702 1258 677 1236 q 758 1280 728 1280 q 804 1258 788 1280 q 815 1203 821 1236 q 784 1148 809 1171 q 728 1126 758 1126 q 694 1136 709 1126 q 673 1164 680 1146 q 671 1203 667 1181 z "},"":{"ha":906,"x_min":-87,"x_max":855,"o":"m -85 -5 q -84 15 -87 -1 q -76 40 -81 32 q -29 48 -58 40 q 12 70 0 56 q 38 100 26 84 q 63 137 50 117 q 85 173 76 158 q 109 215 94 189 l 535 981 q 565 1011 545 998 q 597 1025 586 1025 q 604 1021 600 1025 l 738 195 q 746 145 741 173 q 752 105 750 118 q 755 90 754 92 q 764 71 757 79 q 782 57 772 62 q 803 48 792 52 q 824 43 813 45 q 841 41 835 41 q 852 40 848 40 q 853 16 855 31 q 847 -5 850 0 q 797 -2 833 -4 q 734 2 760 1 q 679 3 707 3 q 634 2 656 3 q 598 0 613 1 q 561 -2 584 -1 q 518 -5 538 -3 q 517 18 513 1 q 527 40 520 35 q 574 45 554 40 q 605 62 594 51 q 615 88 615 73 q 611 164 615 134 l 576 396 l 269 396 q 159 193 195 262 q 115 77 115 106 q 127 58 115 66 q 159 46 140 50 q 190 41 177 43 q 210 40 203 40 q 210 20 212 37 q 204 -5 208 3 q 159 -1 183 -3 q 115 2 136 1 q 66 3 94 3 q 15 2 37 3 q -34 -1 -7 1 q -85 -5 -60 -3 m 297 447 l 568 447 l 509 827 l 297 447 m 506 1060 q 491 1081 506 1060 q 487 1158 475 1101 q 545 1255 498 1215 q 643 1296 591 1296 q 724 1256 695 1296 q 741 1158 752 1215 q 720 1104 735 1130 q 685 1060 705 1079 q 640 1030 665 1041 q 589 1019 614 1019 q 506 1060 536 1019 m 555 1201 q 547 1191 555 1201 q 535 1158 540 1181 q 537 1115 530 1135 q 561 1083 545 1095 q 598 1072 577 1072 q 658 1097 631 1072 q 693 1158 686 1122 q 682 1219 700 1194 q 633 1243 665 1243 q 590 1232 611 1243 q 555 1201 570 1221 z "},"":{"ha":1213,"x_min":-93,"x_max":1206,"o":"m -92 -5 q -92 17 -93 -3 q -87 37 -91 37 q -36 47 -70 37 q 12 70 -2 56 q 134 215 73 124 l 611 906 q 618 929 618 922 q 607 955 618 944 q 572 966 595 966 q 568 989 568 970 q 572 1015 568 1007 l 724 1016 q 944 1021 788 1016 q 1181 1027 1101 1027 q 1185 957 1182 992 q 1193 881 1188 922 q 1200 817 1198 840 q 1172 808 1192 808 q 1154 819 1154 808 q 1134 896 1147 865 q 1101 943 1121 926 q 1058 967 1081 960 q 1005 974 1035 974 l 882 974 q 848 973 866 974 q 807 968 830 972 q 781 957 784 964 q 759 846 768 928 l 727 536 q 743 529 726 531 q 787 527 760 527 l 863 527 q 906 527 890 527 q 940 530 923 528 q 965 534 956 533 q 983 543 974 536 q 997 554 993 550 q 1008 572 1002 559 q 1019 595 1015 586 q 1029 625 1022 604 q 1034 639 1033 634 q 1058 650 1039 650 q 1079 642 1074 650 l 1048 349 q 1023 343 1042 343 q 1004 355 1006 343 q 989 436 995 417 q 974 464 983 456 q 823 476 956 476 q 719 463 720 476 l 690 169 q 688 150 690 165 q 686 123 687 134 q 685 97 686 111 q 685 73 684 82 q 688 62 686 64 q 702 53 694 56 q 723 48 709 50 q 749 46 737 47 q 789 46 761 46 l 857 46 q 1040 94 972 46 q 1149 250 1105 138 q 1171 260 1154 260 q 1193 257 1181 260 q 1206 250 1204 254 q 1168 170 1198 234 q 1122 65 1139 105 q 1098 -6 1105 24 q 866 -3 1024 -6 q 609 0 709 0 q 528 -1 576 0 q 448 -3 479 -2 l 418 -5 q 418 24 415 2 q 427 48 421 45 q 459 51 437 48 q 507 61 481 54 q 540 77 532 68 q 563 122 557 98 q 574 192 570 146 l 600 475 l 376 475 l 189 203 q 119 77 119 103 q 154 49 119 61 q 208 37 189 37 q 208 28 208 36 q 206 9 208 20 q 203 -5 205 -1 q 156 -1 182 -3 q 107 2 130 1 q 57 3 85 3 q -26 0 19 3 q -92 -5 -71 -3 m 413 527 l 604 527 l 635 850 l 413 527 z "},"":{"ha":997,"x_min":92,"x_max":968,"o":"m 92 410 q 116 591 92 505 q 183 745 140 677 q 285 868 226 813 q 414 959 345 923 q 561 1013 484 994 q 719 1029 639 1031 q 809 1022 761 1029 q 887 1008 857 1015 q 968 989 918 1002 q 952 764 958 821 q 948 758 952 760 q 940 756 945 756 q 905 764 920 756 q 878 874 908 824 q 793 954 847 925 q 674 982 739 982 q 504 943 584 982 q 365 835 425 905 q 272 662 306 766 q 238 436 237 559 q 248 323 238 378 q 282 215 258 268 q 342 121 307 161 q 432 57 378 81 q 553 33 486 33 q 880 267 757 33 q 899 264 888 267 q 917 258 910 261 l 923 255 q 873 143 918 231 q 812 43 828 56 q 682 0 751 12 q 510 -12 614 -12 q 339 22 418 -12 q 207 113 260 56 q 122 247 153 170 q 92 410 92 324 m 351 -254 q 351 -241 351 -253 q 351 -227 350 -229 q 362 -210 353 -218 q 379 -203 371 -203 q 405 -214 388 -203 q 437 -226 422 -226 q 495 -208 472 -226 q 523 -165 517 -191 q 514 -120 528 -136 q 482 -104 501 -104 q 435 -116 464 -104 q 429 -112 433 -116 q 422 -102 425 -108 q 422 -93 420 -96 q 454 -53 425 -90 q 495 0 484 -16 l 530 0 l 492 -42 l 535 -42 q 584 -68 568 -42 q 592 -132 600 -94 q 527 -232 580 -194 q 405 -269 473 -269 q 374 -264 391 -269 q 351 -254 358 -260 z "},"":{"ha":857,"x_min":-12,"x_max":826,"o":"m -7 -5 q -9 18 -12 1 q 0 40 -6 34 q 13 41 5 40 q 33 43 22 41 q 56 46 44 44 q 78 51 68 48 q 96 57 88 54 q 105 65 103 61 q 110 75 107 69 q 114 86 112 81 q 117 100 115 92 q 121 114 119 109 q 124 130 122 119 q 128 145 127 140 q 131 163 129 150 q 134 179 134 176 l 263 840 q 277 954 280 926 q 240 972 276 965 q 182 979 204 979 q 182 1001 179 984 q 192 1023 185 1018 q 245 1020 207 1023 q 309 1017 283 1018 q 360 1016 335 1016 q 584 1021 425 1016 q 824 1027 743 1027 q 823 919 821 1008 q 826 817 826 829 q 798 808 818 808 q 781 819 781 808 q 767 896 778 865 q 738 943 757 926 q 697 967 720 960 q 645 974 675 974 l 521 974 q 488 973 506 974 q 446 968 469 972 q 419 957 422 964 q 388 846 403 924 l 331 549 q 347 542 330 544 q 391 540 363 540 l 467 540 q 510 540 494 540 q 544 543 527 540 q 569 547 560 545 q 588 555 578 548 q 603 567 598 562 q 615 584 608 571 q 627 607 623 597 q 640 637 631 616 q 646 651 644 646 q 671 662 650 662 q 692 654 688 662 l 637 362 q 612 355 631 355 q 592 368 595 355 q 585 449 589 430 q 572 476 581 469 q 422 488 556 488 q 315 475 319 488 l 255 169 q 244 62 235 71 q 265 51 252 54 q 293 47 278 47 q 343 46 307 46 l 411 46 q 603 94 530 46 q 724 250 671 140 q 747 260 728 260 q 768 257 758 260 q 781 250 779 254 q 737 169 771 231 q 683 65 703 106 q 652 -6 663 24 q 422 -3 579 -6 q 164 0 264 0 q 73 -2 128 0 q -7 -5 18 -5 m 376 1231 q 397 1255 376 1244 q 450 1265 418 1265 q 473 1262 458 1265 q 492 1257 488 1259 q 589 1179 522 1238 q 656 1114 656 1121 q 652 1104 656 1110 q 646 1098 648 1098 q 568 1123 633 1098 q 439 1180 502 1147 q 376 1231 376 1213 z "},"":{"ha":857,"x_min":-12,"x_max":826,"o":"m -7 -5 q -9 18 -12 1 q 0 40 -6 34 q 13 41 5 40 q 33 43 22 41 q 56 46 44 44 q 78 51 68 48 q 96 57 88 54 q 105 65 103 61 q 110 75 107 69 q 114 86 112 81 q 117 100 115 92 q 121 114 119 109 q 124 130 122 119 q 128 145 127 140 q 131 163 129 150 q 134 179 134 176 l 263 840 q 277 954 280 926 q 240 972 276 965 q 182 979 204 979 q 182 1001 179 984 q 192 1023 185 1018 q 245 1020 207 1023 q 309 1017 283 1018 q 360 1016 335 1016 q 584 1021 425 1016 q 824 1027 743 1027 q 823 919 821 1008 q 826 817 826 829 q 798 808 818 808 q 781 819 781 808 q 767 896 778 865 q 738 943 757 926 q 697 967 720 960 q 645 974 675 974 l 521 974 q 488 973 506 974 q 446 968 469 972 q 419 957 422 964 q 388 846 403 924 l 331 549 q 347 542 330 544 q 391 540 363 540 l 467 540 q 510 540 494 540 q 544 543 527 540 q 569 547 560 545 q 588 555 578 548 q 603 567 598 562 q 615 584 608 571 q 627 607 623 597 q 640 637 631 616 q 646 651 644 646 q 671 662 650 662 q 692 654 688 662 l 637 362 q 612 355 631 355 q 592 368 595 355 q 585 449 589 430 q 572 476 581 469 q 422 488 556 488 q 315 475 319 488 l 255 169 q 244 62 235 71 q 265 51 252 54 q 293 47 278 47 q 343 46 307 46 l 411 46 q 603 94 530 46 q 724 250 671 140 q 747 260 728 260 q 768 257 758 260 q 781 250 779 254 q 737 169 771 231 q 683 65 703 106 q 652 -6 663 24 q 422 -3 579 -6 q 164 0 264 0 q 73 -2 128 0 q -7 -5 18 -5 m 447 1115 q 480 1150 447 1120 q 552 1214 513 1181 q 611 1259 592 1246 q 618 1261 612 1260 q 629 1264 623 1263 q 642 1265 635 1265 q 652 1266 648 1266 q 706 1256 685 1266 q 727 1232 727 1246 q 664 1182 727 1215 q 535 1124 600 1149 q 456 1099 469 1099 q 454 1101 456 1099 q 451 1105 452 1103 q 448 1110 450 1107 q 447 1115 447 1113 z "},"":{"ha":857,"x_min":-12,"x_max":826,"o":"m -7 -5 q -9 18 -12 1 q 0 40 -6 34 q 13 41 5 40 q 33 43 22 41 q 56 46 44 44 q 78 51 68 48 q 96 57 88 54 q 105 65 103 61 q 110 75 107 69 q 114 86 112 81 q 117 100 115 92 q 121 114 119 109 q 124 130 122 119 q 128 145 127 140 q 131 163 129 150 q 134 179 134 176 l 263 840 q 277 954 280 926 q 240 972 276 965 q 182 979 204 979 q 182 1001 179 984 q 192 1023 185 1018 q 245 1020 207 1023 q 309 1017 283 1018 q 360 1016 335 1016 q 584 1021 425 1016 q 824 1027 743 1027 q 823 919 821 1008 q 826 817 826 829 q 798 808 818 808 q 781 819 781 808 q 767 896 778 865 q 738 943 757 926 q 697 967 720 960 q 645 974 675 974 l 521 974 q 488 973 506 974 q 446 968 469 972 q 419 957 422 964 q 388 846 403 924 l 331 549 q 347 542 330 544 q 391 540 363 540 l 467 540 q 510 540 494 540 q 544 543 527 540 q 569 547 560 545 q 588 555 578 548 q 603 567 598 562 q 615 584 608 571 q 627 607 623 597 q 640 637 631 616 q 646 651 644 646 q 671 662 650 662 q 692 654 688 662 l 637 362 q 612 355 631 355 q 592 368 595 355 q 585 449 589 430 q 572 476 581 469 q 422 488 556 488 q 315 475 319 488 l 255 169 q 244 62 235 71 q 265 51 252 54 q 293 47 278 47 q 343 46 307 46 l 411 46 q 603 94 530 46 q 724 250 671 140 q 747 260 728 260 q 768 257 758 260 q 781 250 779 254 q 737 169 771 231 q 683 65 703 106 q 652 -6 663 24 q 422 -3 579 -6 q 164 0 264 0 q 73 -2 128 0 q -7 -5 18 -5 m 382 1115 q 586 1282 490 1196 q 608 1293 600 1293 q 623 1282 618 1293 q 744 1115 675 1197 q 735 1104 743 1108 q 720 1099 728 1099 l 583 1191 q 397 1099 471 1137 q 391 1100 394 1099 q 386 1103 388 1101 q 382 1108 383 1105 q 382 1115 381 1112 z "},"":{"ha":857,"x_min":-12,"x_max":826,"o":"m -7 -5 q -9 18 -12 1 q 0 40 -6 34 q 13 41 5 40 q 33 43 22 41 q 56 46 44 44 q 78 51 68 48 q 96 57 88 54 q 105 65 103 61 q 110 75 107 69 q 114 86 112 81 q 117 100 115 92 q 121 114 119 109 q 124 130 122 119 q 128 145 127 140 q 131 163 129 150 q 134 179 134 176 l 263 840 q 277 954 280 926 q 240 972 276 965 q 182 979 204 979 q 182 1001 179 984 q 192 1023 185 1018 q 245 1020 207 1023 q 309 1017 283 1018 q 360 1016 335 1016 q 584 1021 425 1016 q 824 1027 743 1027 q 823 919 821 1008 q 826 817 826 829 q 798 808 818 808 q 781 819 781 808 q 767 896 778 865 q 738 943 757 926 q 697 967 720 960 q 645 974 675 974 l 521 974 q 488 973 506 974 q 446 968 469 972 q 419 957 422 964 q 388 846 403 924 l 331 549 q 347 542 330 544 q 391 540 363 540 l 467 540 q 510 540 494 540 q 544 543 527 540 q 569 547 560 545 q 588 555 578 548 q 603 567 598 562 q 615 584 608 571 q 627 607 623 597 q 640 637 631 616 q 646 651 644 646 q 671 662 650 662 q 692 654 688 662 l 637 362 q 612 355 631 355 q 592 368 595 355 q 585 449 589 430 q 572 476 581 469 q 422 488 556 488 q 315 475 319 488 l 255 169 q 244 62 235 71 q 265 51 252 54 q 293 47 278 47 q 343 46 307 46 l 411 46 q 603 94 530 46 q 724 250 671 140 q 747 260 728 260 q 768 257 758 260 q 781 250 779 254 q 737 169 771 231 q 683 65 703 106 q 652 -6 663 24 q 422 -3 579 -6 q 164 0 264 0 q 73 -2 128 0 q -7 -5 18 -5 m 362 1203 q 393 1258 368 1236 q 448 1280 418 1280 q 495 1258 479 1280 q 506 1203 511 1236 q 474 1148 500 1171 q 418 1126 448 1126 q 372 1148 387 1126 q 362 1203 356 1171 m 622 1203 q 653 1258 627 1236 q 708 1280 678 1280 q 755 1258 739 1280 q 766 1203 771 1236 q 734 1148 760 1171 q 679 1126 709 1126 q 645 1136 659 1126 q 624 1164 630 1146 q 622 1203 618 1181 z "},"":{"ha":484,"x_min":-12,"x_max":534,"o":"m -7 -5 q -9 18 -12 1 q 0 40 -6 34 q 13 41 5 40 q 33 43 22 41 q 56 46 44 44 q 78 51 68 48 q 96 57 88 54 q 105 65 103 61 q 110 75 107 69 q 114 86 112 81 q 117 100 115 92 q 121 114 119 109 q 124 130 122 119 q 128 145 127 140 q 131 163 129 150 q 134 179 134 176 l 263 840 q 277 954 280 926 q 240 972 276 965 q 182 979 204 979 q 182 1001 179 984 q 192 1023 185 1018 q 245 1020 207 1023 q 309 1017 283 1018 q 360 1016 335 1016 q 412 1017 385 1016 q 476 1020 438 1018 q 530 1023 514 1023 q 531 1001 534 1017 q 521 979 527 985 q 461 972 499 979 q 418 954 422 965 q 413 944 415 949 q 409 933 411 938 q 405 919 408 928 q 401 905 403 910 q 398 889 400 901 q 395 874 396 878 q 391 857 394 869 q 388 840 389 844 l 260 179 q 258 170 259 176 q 244 65 241 88 q 281 47 245 54 q 338 40 317 40 q 339 18 342 35 q 330 -5 336 1 q 277 -2 313 -4 q 215 2 240 1 q 164 3 189 3 q 113 2 139 3 q 47 -2 86 1 q -7 -5 8 -4 m 187 1231 q 208 1255 187 1244 q 261 1265 229 1265 q 285 1262 270 1265 q 303 1257 300 1259 q 400 1179 333 1238 q 467 1114 467 1121 q 465 1107 467 1111 q 461 1101 463 1103 q 458 1098 458 1098 q 379 1123 445 1098 q 250 1180 313 1147 q 187 1231 187 1213 z "},"":{"ha":484,"x_min":-12,"x_max":551,"o":"m -7 -5 q -9 18 -12 1 q 0 40 -6 34 q 13 41 5 40 q 33 43 22 41 q 56 46 44 44 q 78 51 68 48 q 96 57 88 54 q 105 65 103 61 q 110 75 107 69 q 114 86 112 81 q 117 100 115 92 q 121 114 119 109 q 124 130 122 119 q 128 145 127 140 q 131 163 129 150 q 134 179 134 176 l 263 840 q 277 954 280 926 q 240 972 276 965 q 182 979 204 979 q 182 1001 179 984 q 192 1023 185 1018 q 245 1020 207 1023 q 309 1017 283 1018 q 360 1016 335 1016 q 412 1017 385 1016 q 476 1020 438 1018 q 530 1023 514 1023 q 531 1001 534 1017 q 521 979 527 985 q 461 972 499 979 q 418 954 422 965 q 413 944 415 949 q 409 933 411 938 q 405 919 408 928 q 401 905 403 910 q 398 889 400 901 q 395 874 396 878 q 391 857 394 869 q 388 840 389 844 l 260 179 q 258 170 259 176 q 244 65 241 88 q 281 47 245 54 q 338 40 317 40 q 339 18 342 35 q 330 -5 336 1 q 277 -2 313 -4 q 215 2 240 1 q 164 3 189 3 q 113 2 139 3 q 47 -2 86 1 q -7 -5 8 -4 m 271 1115 q 337 1181 271 1123 q 435 1259 404 1240 q 453 1263 438 1261 q 476 1266 468 1266 q 530 1256 509 1266 q 551 1232 551 1246 q 487 1182 551 1215 q 358 1124 424 1149 q 280 1099 293 1099 q 278 1101 279 1099 q 275 1105 276 1103 q 272 1110 273 1107 q 271 1115 271 1113 z "},"":{"ha":484,"x_min":-12,"x_max":587,"o":"m -7 -5 q -9 18 -12 1 q 0 40 -6 34 q 13 41 5 40 q 33 43 22 41 q 56 46 44 44 q 78 51 68 48 q 96 57 88 54 q 105 65 103 61 q 110 75 107 69 q 114 86 112 81 q 117 100 115 92 q 121 114 119 109 q 124 130 122 119 q 128 145 127 140 q 131 163 129 150 q 134 179 134 176 l 263 840 q 277 954 280 926 q 240 972 276 965 q 182 979 204 979 q 182 1001 179 984 q 192 1023 185 1018 q 245 1020 207 1023 q 309 1017 283 1018 q 360 1016 335 1016 q 412 1017 385 1016 q 476 1020 438 1018 q 530 1023 514 1023 q 531 1001 534 1017 q 521 979 527 985 q 461 972 499 979 q 418 954 422 965 q 413 944 415 949 q 409 933 411 938 q 405 919 408 928 q 401 905 403 910 q 398 889 400 901 q 395 874 396 878 q 391 857 394 869 q 388 840 389 844 l 260 179 q 258 170 259 176 q 244 65 241 88 q 281 47 245 54 q 338 40 317 40 q 339 18 342 35 q 330 -5 336 1 q 277 -2 313 -4 q 215 2 240 1 q 164 3 189 3 q 113 2 139 3 q 47 -2 86 1 q -7 -5 8 -4 m 226 1115 q 430 1282 334 1196 q 452 1293 444 1293 q 467 1282 462 1293 q 587 1115 519 1197 q 586 1110 587 1112 q 582 1105 584 1107 q 576 1102 579 1103 q 570 1100 573 1101 q 564 1099 567 1099 l 427 1191 q 241 1099 315 1137 q 235 1100 238 1099 q 230 1103 232 1101 q 226 1108 227 1105 q 226 1115 225 1112 z "},"":{"ha":484,"x_min":-12,"x_max":603,"o":"m -7 -5 q -9 18 -12 1 q 0 40 -6 34 q 13 41 5 40 q 33 43 22 41 q 56 46 44 44 q 78 51 68 48 q 96 57 88 54 q 105 65 103 61 q 110 75 107 69 q 114 86 112 81 q 117 100 115 92 q 121 114 119 109 q 124 130 122 119 q 128 145 127 140 q 131 163 129 150 q 134 179 134 176 l 263 840 q 277 954 280 926 q 240 972 276 965 q 182 979 204 979 q 182 1001 179 984 q 192 1023 185 1018 q 245 1020 207 1023 q 309 1017 283 1018 q 360 1016 335 1016 q 412 1017 385 1016 q 476 1020 438 1018 q 530 1023 514 1023 q 531 1001 534 1017 q 521 979 527 985 q 461 972 499 979 q 418 954 422 965 q 413 944 415 949 q 409 933 411 938 q 405 919 408 928 q 401 905 403 910 q 398 889 400 901 q 395 874 396 878 q 391 857 394 869 q 388 840 389 844 l 260 179 q 258 170 259 176 q 244 65 241 88 q 281 47 245 54 q 338 40 317 40 q 339 18 342 35 q 330 -5 336 1 q 277 -2 313 -4 q 215 2 240 1 q 164 3 189 3 q 113 2 139 3 q 47 -2 86 1 q -7 -5 8 -4 m 210 1167 q 202 1177 210 1167 q 200 1217 194 1188 q 230 1267 205 1246 q 281 1288 254 1288 q 324 1266 308 1288 q 334 1215 340 1244 q 304 1166 328 1187 q 254 1145 281 1145 q 210 1167 227 1145 m 473 1167 q 465 1177 473 1167 q 462 1217 456 1188 q 493 1267 468 1246 q 546 1288 519 1288 q 588 1266 572 1288 q 597 1215 603 1244 q 567 1166 591 1187 q 516 1145 543 1145 q 473 1167 490 1145 z "},"":{"ha":1057,"x_min":-12,"x_max":1013,"o":"m -7 -5 q -8 18 -12 1 q 1 40 -5 34 q 62 47 23 40 q 105 65 100 54 q 110 75 107 69 q 114 86 112 81 q 117 100 115 92 q 121 114 119 109 q 124 130 122 119 q 128 145 127 140 q 131 163 129 150 q 134 179 134 176 l 263 840 q 264 849 264 843 q 278 954 281 931 q 241 972 277 965 q 184 979 205 979 q 183 1001 180 984 q 192 1023 185 1018 q 245 1020 207 1023 q 309 1017 283 1018 q 360 1016 335 1016 q 462 1017 387 1016 q 569 1017 536 1017 q 720 1000 651 1017 q 840 951 789 983 q 929 874 891 920 q 985 773 966 829 q 1008 653 1004 718 q 998 517 1013 588 q 972 419 987 466 q 934 325 957 372 q 881 236 911 277 q 813 158 851 195 q 727 92 775 121 q 623 41 679 62 q 498 7 567 19 q 353 -5 429 -4 l -7 -5 m 113 484 q 107 490 109 484 q 109 501 106 496 q 109 507 109 502 q 111 515 110 511 q 113 524 111 519 q 117 532 115 528 q 122 540 119 536 l 633 540 q 639 536 637 540 q 640 527 642 532 q 625 484 634 497 l 113 484 m 246 62 q 359 40 256 40 q 489 57 426 40 q 610 110 552 74 q 715 197 668 146 q 797 322 762 249 q 849 484 831 395 q 864 669 870 589 q 831 808 857 750 q 759 903 806 866 q 654 958 713 941 q 523 976 595 976 q 489 975 507 976 q 447 970 471 974 q 419 959 422 966 q 412 943 416 951 q 406 920 409 934 q 400 898 402 905 q 395 870 399 891 q 390 844 391 849 l 258 173 q 248 110 254 151 q 246 62 243 68 z "},"":{"ha":1131,"x_min":-22,"x_max":1198,"o":"m -18 -5 q -19 14 -22 0 q -9 40 -17 28 q 55 50 11 40 q 109 71 99 59 q 128 110 121 88 q 144 176 136 132 l 274 847 q 283 913 282 895 q 280 952 285 932 q 237 971 276 964 q 175 979 197 979 q 174 1005 172 992 q 182 1023 177 1017 q 223 1021 203 1023 q 255 1019 243 1020 q 282 1018 267 1019 q 314 1017 297 1017 q 441 1023 360 1017 q 541 831 461 972 q 715 520 620 690 q 857 250 810 351 l 971 836 q 981 904 980 881 q 976 948 982 927 q 934 970 970 962 q 872 979 897 979 q 871 1002 869 987 q 877 1023 873 1017 q 1034 1017 991 1017 q 1079 1018 1058 1017 q 1114 1019 1100 1019 q 1152 1021 1128 1020 q 1195 1023 1177 1023 q 1197 1005 1198 1019 q 1189 979 1196 990 q 1125 970 1168 979 q 1073 949 1082 962 q 1054 911 1061 932 q 1039 844 1048 890 l 917 215 q 878 -1 888 66 q 852 -7 872 -7 q 830 2 842 -7 q 810 28 818 12 l 347 880 l 210 178 q 202 130 204 145 q 199 99 199 114 q 204 71 199 83 q 228 56 207 64 q 273 44 250 49 q 308 40 296 40 q 308 17 311 31 q 302 -5 306 3 q 252 -1 285 -3 q 194 2 220 1 q 140 3 169 3 q 87 2 111 3 q 35 -1 64 1 q -18 -5 5 -3 m 450 1158 q 479 1215 450 1186 q 600 1266 532 1266 q 651 1262 630 1266 q 694 1244 671 1258 q 728 1226 717 1232 q 761 1214 739 1220 q 806 1208 783 1208 q 906 1266 856 1208 q 916 1251 916 1263 q 888 1194 916 1221 q 767 1143 834 1143 q 716 1147 736 1143 q 673 1164 696 1152 q 638 1183 650 1177 q 606 1195 627 1189 q 562 1202 584 1202 q 460 1143 511 1202 q 450 1158 450 1146 z "},"":{"ha":1097,"x_min":94,"x_max":1039,"o":"m 94 422 q 115 590 94 509 q 174 738 136 671 q 262 859 211 804 q 375 950 314 913 q 504 1008 435 987 q 642 1028 572 1028 q 807 995 732 1028 q 932 902 882 961 q 1011 763 983 844 q 1039 591 1039 683 q 1019 420 1039 502 q 964 272 1000 338 q 877 151 928 205 q 767 60 827 97 q 637 3 707 23 q 493 -17 567 -17 q 326 17 401 -17 q 199 111 250 52 q 122 250 149 170 q 94 422 94 330 m 239 414 q 243 337 239 374 q 256 260 247 299 q 278 188 264 221 q 313 124 292 154 q 361 73 334 94 q 426 40 389 52 q 507 28 463 28 q 618 52 565 28 q 713 117 671 75 q 789 214 755 158 q 846 334 823 270 q 881 469 869 399 q 894 608 894 538 q 890 675 894 642 q 879 747 887 709 q 858 818 871 785 q 824 881 845 850 q 776 934 803 912 q 711 969 749 956 q 628 982 673 982 q 513 955 570 982 q 407 875 456 927 q 320 755 358 823 q 261 598 283 686 q 239 414 239 509 m 437 1231 q 458 1255 437 1244 q 512 1265 479 1265 q 535 1262 520 1265 q 553 1257 550 1259 q 650 1179 583 1238 q 718 1114 718 1121 q 713 1104 718 1110 q 708 1098 709 1098 q 630 1123 695 1098 q 501 1180 564 1147 q 437 1231 437 1213 z "},"":{"ha":1097,"x_min":94,"x_max":1039,"o":"m 94 422 q 115 590 94 509 q 174 738 136 671 q 262 859 211 804 q 375 950 314 913 q 504 1008 435 987 q 642 1028 572 1028 q 807 995 732 1028 q 932 902 882 961 q 1011 763 983 844 q 1039 591 1039 683 q 1019 420 1039 502 q 964 272 1000 338 q 877 151 928 205 q 767 60 827 97 q 637 3 707 23 q 493 -17 567 -17 q 326 17 401 -17 q 199 111 250 52 q 122 250 149 170 q 94 422 94 330 m 239 414 q 243 337 239 374 q 256 260 247 299 q 278 188 264 221 q 313 124 292 154 q 361 73 334 94 q 426 40 389 52 q 507 28 463 28 q 618 52 565 28 q 713 117 671 75 q 789 214 755 158 q 846 334 823 270 q 881 469 869 399 q 894 608 894 538 q 890 675 894 642 q 879 747 887 709 q 858 818 871 785 q 824 881 845 850 q 776 934 803 912 q 711 969 749 956 q 628 982 673 982 q 513 955 570 982 q 407 875 456 927 q 320 755 358 823 q 261 598 283 686 q 239 414 239 509 m 546 1115 q 613 1181 546 1123 q 710 1259 680 1240 q 728 1263 713 1261 q 751 1266 743 1266 q 805 1256 784 1266 q 826 1232 826 1246 q 763 1182 826 1215 q 634 1124 699 1149 q 555 1099 568 1099 q 550 1105 554 1099 q 546 1115 546 1112 z "},"":{"ha":1097,"x_min":94,"x_max":1039,"o":"m 94 422 q 115 590 94 509 q 174 738 136 671 q 262 859 211 804 q 375 950 314 913 q 504 1008 435 987 q 642 1028 572 1028 q 807 995 732 1028 q 932 902 882 961 q 1011 763 983 844 q 1039 591 1039 683 q 1019 420 1039 502 q 964 272 1000 338 q 877 151 928 205 q 767 60 827 97 q 637 3 707 23 q 493 -17 567 -17 q 326 17 401 -17 q 199 111 250 52 q 122 250 149 170 q 94 422 94 330 m 239 414 q 243 337 239 374 q 256 260 247 299 q 278 188 264 221 q 313 124 292 154 q 361 73 334 94 q 426 40 389 52 q 507 28 463 28 q 618 52 565 28 q 713 117 671 75 q 789 214 755 158 q 846 334 823 270 q 881 469 869 399 q 894 608 894 538 q 890 675 894 642 q 879 747 887 709 q 858 818 871 785 q 824 881 845 850 q 776 934 803 912 q 711 969 749 956 q 628 982 673 982 q 513 955 570 982 q 407 875 456 927 q 320 755 358 823 q 261 598 283 686 q 239 414 239 509 m 476 1115 q 680 1282 585 1196 q 702 1293 694 1293 q 718 1282 712 1293 q 838 1115 770 1197 q 833 1107 838 1110 q 825 1101 829 1103 q 815 1099 820 1099 l 677 1191 q 492 1099 566 1137 q 485 1100 488 1099 q 480 1103 482 1101 q 476 1108 477 1105 q 476 1115 475 1112 z "},"":{"ha":1097,"x_min":94,"x_max":1039,"o":"m 94 422 q 115 590 94 509 q 174 738 136 671 q 262 859 211 804 q 375 950 314 913 q 504 1008 435 987 q 642 1028 572 1028 q 807 995 732 1028 q 932 902 882 961 q 1011 763 983 844 q 1039 591 1039 683 q 1019 420 1039 502 q 964 272 1000 338 q 877 151 928 205 q 767 60 827 97 q 637 3 707 23 q 493 -17 567 -17 q 326 17 401 -17 q 199 111 250 52 q 122 250 149 170 q 94 422 94 330 m 239 414 q 243 337 239 374 q 256 260 247 299 q 278 188 264 221 q 313 124 292 154 q 361 73 334 94 q 426 40 389 52 q 507 28 463 28 q 618 52 565 28 q 713 117 671 75 q 789 214 755 158 q 846 334 823 270 q 881 469 869 399 q 894 608 894 538 q 890 675 894 642 q 879 747 887 709 q 858 818 871 785 q 824 881 845 850 q 776 934 803 912 q 711 969 749 956 q 628 982 673 982 q 513 955 570 982 q 407 875 456 927 q 320 755 358 823 q 261 598 283 686 q 239 414 239 509 m 425 1158 q 454 1215 425 1186 q 575 1266 508 1266 q 609 1265 595 1266 q 638 1259 623 1263 q 669 1244 654 1254 q 704 1226 692 1232 q 736 1214 715 1220 q 781 1208 758 1208 q 882 1266 831 1208 q 890 1251 890 1263 q 863 1194 890 1221 q 742 1143 810 1143 q 691 1147 712 1143 q 648 1164 671 1152 q 614 1183 625 1177 q 581 1195 603 1189 q 536 1202 559 1202 q 436 1143 486 1202 q 425 1158 425 1146 z "},"":{"ha":1097,"x_min":94,"x_max":1039,"o":"m 94 422 q 115 590 94 509 q 174 738 136 671 q 262 859 211 804 q 375 950 314 913 q 504 1008 435 987 q 642 1028 572 1028 q 807 995 732 1028 q 932 902 882 961 q 1011 763 983 844 q 1039 591 1039 683 q 1019 420 1039 502 q 964 272 1000 338 q 877 151 928 205 q 767 60 827 97 q 637 3 707 23 q 493 -17 567 -17 q 326 17 401 -17 q 199 111 250 52 q 122 250 149 170 q 94 422 94 330 m 239 414 q 243 337 239 374 q 256 260 247 299 q 278 188 264 221 q 313 124 292 154 q 361 73 334 94 q 426 40 389 52 q 507 28 463 28 q 618 52 565 28 q 713 117 671 75 q 789 214 755 158 q 846 334 823 270 q 881 469 869 399 q 894 608 894 538 q 890 675 894 642 q 879 747 887 709 q 858 818 871 785 q 824 881 845 850 q 776 934 803 912 q 711 969 749 956 q 628 982 673 982 q 513 955 570 982 q 407 875 456 927 q 320 755 358 823 q 261 598 283 686 q 239 414 239 509 m 454 1203 q 466 1233 458 1219 q 486 1258 474 1248 q 512 1274 497 1268 q 541 1280 526 1280 q 588 1258 571 1280 q 598 1203 604 1236 q 587 1173 595 1187 q 567 1148 578 1158 q 540 1132 555 1138 q 510 1126 525 1126 q 465 1148 480 1126 q 454 1203 449 1171 m 714 1203 q 726 1233 718 1219 q 745 1258 734 1248 q 771 1274 757 1268 q 801 1280 786 1280 q 847 1258 831 1280 q 858 1203 864 1236 q 827 1148 852 1171 q 772 1126 802 1126 q 725 1148 741 1126 q 714 1203 709 1171 z "},"":{"ha":635,"x_min":22,"x_max":597,"o":"m 22 167 l 260 376 q 263 380 263 379 q 260 388 263 382 q 255 394 256 393 l 105 600 q 122 633 105 614 q 147 651 140 651 q 149 650 149 651 q 151 648 150 650 q 153 645 152 646 l 314 427 q 320 424 317 424 l 323 425 l 568 643 q 576 648 572 648 q 591 627 585 648 q 597 585 597 606 l 360 374 q 357 371 356 370 q 359 368 357 370 l 513 158 q 501 124 513 142 q 479 105 488 105 q 469 110 471 105 l 309 326 q 304 330 306 330 q 298 326 302 330 l 50 110 q 42 105 45 105 q 33 115 37 105 q 25 140 28 125 q 22 167 22 155 z "},"":{"ha":1097,"x_min":94,"x_max":1039,"o":"m 94 422 q 115 590 94 509 q 174 738 136 671 q 262 859 211 804 q 375 950 314 913 q 504 1008 435 987 q 642 1028 572 1028 q 807 995 732 1028 q 932 902 882 961 q 1011 763 983 844 q 1039 591 1039 683 q 1019 420 1039 502 q 964 272 1000 338 q 877 151 928 205 q 767 60 827 97 q 637 3 707 23 q 493 -17 567 -17 q 326 17 401 -17 q 199 111 250 52 q 122 250 149 170 q 94 422 94 330 m 149 16 l 946 1031 q 972 1016 958 1029 q 982 998 987 1004 l 182 -20 q 157 -3 171 -16 q 149 16 143 9 m 239 414 q 243 337 239 374 q 256 260 247 299 q 278 188 264 221 q 313 124 292 154 q 361 73 334 94 q 426 40 389 52 q 507 28 463 28 q 618 52 565 28 q 713 117 671 75 q 789 214 755 158 q 846 334 823 270 q 881 469 869 399 q 894 608 894 538 q 890 675 894 642 q 879 747 887 709 q 858 818 871 785 q 824 881 845 850 q 776 934 803 912 q 711 969 749 956 q 628 982 673 982 q 513 955 570 982 q 407 875 456 927 q 320 755 358 823 q 261 598 283 686 q 239 414 239 509 z "},"":{"ha":1022,"x_min":116,"x_max":1114,"o":"m 150 388 l 238 840 q 240 849 239 843 q 254 954 256 931 q 217 972 252 965 q 159 979 181 979 q 159 1001 155 984 q 169 1023 162 1018 q 222 1020 184 1023 q 285 1017 259 1018 q 336 1016 311 1016 q 387 1017 361 1016 q 451 1020 413 1018 q 506 1023 489 1023 q 506 1001 510 1017 q 496 979 503 985 q 436 972 475 979 q 393 954 398 965 q 388 944 391 949 q 384 933 386 938 q 380 919 382 928 q 377 905 378 910 q 373 889 376 900 q 370 874 371 878 q 367 857 370 869 q 363 840 364 844 l 289 458 q 297 186 254 274 q 484 83 348 83 q 545 88 517 83 q 602 104 574 93 q 654 134 630 116 q 700 178 677 151 q 740 240 722 205 q 774 321 758 275 q 801 424 789 368 l 883 843 q 891 891 889 876 q 894 922 894 906 q 889 949 894 937 q 849 970 885 960 q 791 981 812 981 q 791 1003 789 990 q 798 1025 793 1017 q 837 1023 814 1024 q 873 1020 859 1021 q 909 1018 888 1019 q 952 1017 930 1017 q 1005 1019 982 1017 q 1057 1022 1029 1020 q 1110 1025 1086 1024 q 1112 1006 1114 1021 q 1103 981 1110 992 q 1037 971 1082 981 q 983 949 992 962 q 964 911 971 932 q 949 844 958 890 l 867 427 q 806 229 845 312 q 713 94 768 146 q 590 18 658 43 q 436 -6 522 -6 q 293 23 355 -6 q 192 105 231 52 q 150 388 116 213 m 469 1231 q 490 1255 469 1244 q 543 1265 511 1265 q 566 1262 551 1265 q 585 1257 581 1259 q 682 1179 614 1238 q 749 1114 749 1121 q 745 1104 749 1110 q 739 1098 741 1098 q 661 1123 726 1098 q 532 1180 595 1147 q 469 1231 469 1213 z "},"":{"ha":1022,"x_min":116,"x_max":1114,"o":"m 150 388 l 238 840 q 240 849 239 843 q 254 954 256 931 q 217 972 252 965 q 159 979 181 979 q 159 1001 155 984 q 169 1023 162 1018 q 222 1020 184 1023 q 285 1017 259 1018 q 336 1016 311 1016 q 387 1017 361 1016 q 451 1020 413 1018 q 506 1023 489 1023 q 506 1001 510 1017 q 496 979 503 985 q 436 972 475 979 q 393 954 398 965 q 388 944 391 949 q 384 933 386 938 q 380 919 382 928 q 377 905 378 910 q 373 889 376 900 q 370 874 371 878 q 367 857 370 869 q 363 840 364 844 l 289 458 q 297 186 254 274 q 484 83 348 83 q 545 88 517 83 q 602 104 574 93 q 654 134 630 116 q 700 178 677 151 q 740 240 722 205 q 774 321 758 275 q 801 424 789 368 l 883 843 q 891 891 889 876 q 894 922 894 906 q 889 949 894 937 q 849 970 885 960 q 791 981 812 981 q 791 1003 789 990 q 798 1025 793 1017 q 837 1023 814 1024 q 873 1020 859 1021 q 909 1018 888 1019 q 952 1017 930 1017 q 1005 1019 982 1017 q 1057 1022 1029 1020 q 1110 1025 1086 1024 q 1112 1006 1114 1021 q 1103 981 1110 992 q 1037 971 1082 981 q 983 949 992 962 q 964 911 971 932 q 949 844 958 890 l 867 427 q 806 229 845 312 q 713 94 768 146 q 590 18 658 43 q 436 -6 522 -6 q 293 23 355 -6 q 192 105 231 52 q 150 388 116 213 m 625 1115 q 692 1181 625 1123 q 789 1259 759 1240 q 807 1263 792 1261 q 830 1266 822 1266 q 884 1256 863 1266 q 905 1232 905 1246 q 841 1182 905 1215 q 712 1124 778 1149 q 634 1099 647 1099 q 629 1105 633 1099 q 625 1115 625 1112 z "},"":{"ha":1022,"x_min":116,"x_max":1114,"o":"m 150 388 l 238 840 q 240 849 239 843 q 254 954 256 931 q 217 972 252 965 q 159 979 181 979 q 159 1001 155 984 q 169 1023 162 1018 q 222 1020 184 1023 q 285 1017 259 1018 q 336 1016 311 1016 q 387 1017 361 1016 q 451 1020 413 1018 q 506 1023 489 1023 q 506 1001 510 1017 q 496 979 503 985 q 436 972 475 979 q 393 954 398 965 q 388 944 391 949 q 384 933 386 938 q 380 919 382 928 q 377 905 378 910 q 373 889 376 900 q 370 874 371 878 q 367 857 370 869 q 363 840 364 844 l 289 458 q 297 186 254 274 q 484 83 348 83 q 545 88 517 83 q 602 104 574 93 q 654 134 630 116 q 700 178 677 151 q 740 240 722 205 q 774 321 758 275 q 801 424 789 368 l 883 843 q 891 891 889 876 q 894 922 894 906 q 889 949 894 937 q 849 970 885 960 q 791 981 812 981 q 791 1003 789 990 q 798 1025 793 1017 q 837 1023 814 1024 q 873 1020 859 1021 q 909 1018 888 1019 q 952 1017 930 1017 q 1005 1019 982 1017 q 1057 1022 1029 1020 q 1110 1025 1086 1024 q 1112 1006 1114 1021 q 1103 981 1110 992 q 1037 971 1082 981 q 983 949 992 962 q 964 911 971 932 q 949 844 958 890 l 867 427 q 806 229 845 312 q 713 94 768 146 q 590 18 658 43 q 436 -6 522 -6 q 293 23 355 -6 q 192 105 231 52 q 150 388 116 213 m 482 1115 q 686 1282 591 1196 q 708 1293 700 1293 q 724 1282 718 1293 q 844 1115 777 1197 q 836 1104 843 1108 q 821 1099 829 1099 l 684 1191 q 498 1099 572 1137 q 491 1100 494 1099 q 486 1103 488 1101 q 483 1108 484 1105 q 482 1115 482 1112 z "},"":{"ha":1022,"x_min":116,"x_max":1114,"o":"m 150 388 l 238 840 q 240 849 239 843 q 254 954 256 931 q 217 972 252 965 q 159 979 181 979 q 159 1001 155 984 q 169 1023 162 1018 q 222 1020 184 1023 q 285 1017 259 1018 q 336 1016 311 1016 q 387 1017 361 1016 q 451 1020 413 1018 q 506 1023 489 1023 q 506 1001 510 1017 q 496 979 503 985 q 436 972 475 979 q 393 954 398 965 q 388 944 391 949 q 384 933 386 938 q 380 919 382 928 q 377 905 378 910 q 373 889 376 900 q 370 874 371 878 q 367 857 370 869 q 363 840 364 844 l 289 458 q 297 186 254 274 q 484 83 348 83 q 545 88 517 83 q 602 104 574 93 q 654 134 630 116 q 700 178 677 151 q 740 240 722 205 q 774 321 758 275 q 801 424 789 368 l 883 843 q 891 891 889 876 q 894 922 894 906 q 889 949 894 937 q 849 970 885 960 q 791 981 812 981 q 791 1003 789 990 q 798 1025 793 1017 q 837 1023 814 1024 q 873 1020 859 1021 q 909 1018 888 1019 q 952 1017 930 1017 q 1005 1019 982 1017 q 1057 1022 1029 1020 q 1110 1025 1086 1024 q 1112 1006 1114 1021 q 1103 981 1110 992 q 1037 971 1082 981 q 983 949 992 962 q 964 911 971 932 q 949 844 958 890 l 867 427 q 806 229 845 312 q 713 94 768 146 q 590 18 658 43 q 436 -6 522 -6 q 293 23 355 -6 q 192 105 231 52 q 150 388 116 213 m 486 1203 q 503 1242 490 1224 q 534 1270 515 1260 q 572 1280 552 1280 q 619 1258 602 1280 q 629 1203 635 1236 q 597 1148 623 1171 q 541 1126 572 1126 q 495 1148 511 1126 q 486 1203 479 1171 m 745 1203 q 762 1242 749 1224 q 793 1270 775 1260 q 832 1280 812 1280 q 879 1258 862 1280 q 889 1203 895 1236 q 872 1164 885 1181 q 841 1136 859 1146 q 802 1126 823 1126 q 756 1148 772 1126 q 745 1203 739 1171 z "},"":{"ha":859,"x_min":84,"x_max":982,"o":"m 91 1004 q 100 1023 95 1019 q 158 1020 125 1023 q 219 1017 192 1018 q 278 1016 247 1016 q 464 1023 317 1016 q 464 1013 465 1020 q 462 998 463 1005 q 458 984 460 990 q 453 979 456 979 q 430 977 444 979 q 401 969 417 975 q 372 954 385 964 q 357 929 360 943 q 365 883 354 918 l 490 512 q 596 665 537 578 q 702 822 656 751 q 761 916 748 892 q 770 939 768 926 q 768 946 770 942 q 760 956 766 951 q 742 966 753 962 q 713 974 732 971 q 673 977 695 977 q 672 999 669 981 q 679 1022 675 1017 q 725 1019 695 1021 q 777 1016 754 1017 q 823 1015 799 1015 q 881 1016 856 1015 q 934 1019 905 1017 q 982 1022 963 1021 q 977 997 982 1017 q 970 977 972 977 q 958 977 964 977 q 939 975 953 977 q 913 969 926 974 q 885 959 900 965 q 857 941 871 953 q 832 916 842 930 l 515 465 q 507 450 509 458 q 502 430 504 443 q 499 418 500 418 l 452 179 q 450 170 451 176 q 436 65 433 88 q 457 51 437 57 q 499 42 478 45 q 530 40 519 40 q 532 18 534 35 q 523 -5 529 1 q 470 -2 507 -4 q 407 2 433 1 q 355 3 380 3 q 304 2 330 3 q 238 -2 277 1 q 184 -5 199 -4 q 183 18 180 1 q 193 40 187 34 q 226 42 205 40 q 271 51 248 45 q 297 65 294 57 q 301 75 299 69 q 306 86 304 81 q 309 100 307 92 q 313 114 311 109 q 316 130 314 119 q 319 145 319 140 q 323 163 320 150 q 326 179 326 176 l 371 413 q 370 456 375 439 l 241 847 q 211 912 228 889 q 167 954 195 935 q 142 967 157 962 q 114 976 127 973 q 92 979 100 979 q 91 1004 84 979 m 515 1115 q 582 1181 515 1123 q 679 1259 649 1240 q 697 1263 682 1261 q 720 1266 712 1266 q 759 1261 742 1266 q 786 1249 777 1257 q 795 1232 795 1241 q 732 1182 795 1215 q 603 1124 669 1149 q 524 1099 537 1099 q 519 1105 523 1099 q 515 1115 515 1112 z "},"":{"ha":726,"x_min":-12,"x_max":764,"o":"m -7 -5 q -9 18 -12 1 q 0 40 -6 34 q 13 41 5 40 q 33 43 22 41 q 56 46 44 44 q 78 51 68 48 q 96 57 88 54 q 105 65 103 61 q 110 75 107 69 q 114 86 112 81 q 117 100 115 92 q 121 114 119 109 q 124 130 122 119 q 128 145 127 140 q 131 163 129 150 q 134 179 134 176 l 263 840 q 277 954 280 926 q 240 972 276 965 q 182 979 204 979 q 182 1001 179 984 q 192 1023 185 1018 q 245 1020 207 1023 q 309 1017 283 1018 q 360 1016 335 1016 q 412 1017 385 1016 q 476 1020 438 1018 q 530 1023 514 1023 q 531 1001 534 1017 q 521 979 527 985 q 461 972 499 979 q 418 954 422 965 q 413 944 415 949 q 409 933 411 938 q 405 919 408 928 q 401 905 403 910 q 398 889 400 901 q 395 874 396 878 q 391 857 394 869 q 388 840 389 844 l 374 773 q 484 790 418 790 q 686 726 608 790 q 764 557 764 661 q 734 419 764 484 q 654 307 704 353 q 539 234 605 261 q 404 208 473 208 q 361 212 381 208 q 334 222 340 217 q 326 234 331 226 q 321 248 321 242 q 328 254 321 250 q 379 248 340 248 q 466 269 422 248 q 545 326 509 290 q 604 417 581 362 q 626 535 626 473 q 447 745 626 745 q 427 744 437 745 q 401 740 416 743 q 375 728 386 736 q 362 708 364 720 l 260 179 q 258 170 259 176 q 244 65 241 88 q 281 47 245 54 q 338 40 317 40 q 339 18 342 35 q 330 -5 336 1 q 277 -2 313 -4 q 215 2 240 1 q 164 3 189 3 q 113 2 139 3 q 47 -2 86 1 q -7 -5 8 -4 z "},"":{"ha":773,"x_min":-193,"x_max":699,"o":"m -193 -321 q -192 -295 -193 -304 q -177 -252 -188 -269 q -147 -235 -165 -235 q -130 -238 -138 -235 q -114 -246 -121 -240 q -101 -257 -106 -252 q -88 -271 -96 -261 q -76 -282 -81 -278 q -63 -290 -72 -286 q -43 -294 -54 -294 q 29 -215 0 -294 q 96 60 58 -137 l 189 581 l 57 581 q 54 586 54 581 q 78 619 54 600 q 125 639 101 639 l 198 639 q 251 811 216 731 q 330 944 287 890 q 423 1029 374 998 q 518 1059 472 1059 q 567 1053 543 1059 q 616 1033 592 1046 q 658 999 640 1019 q 688 949 676 979 q 699 884 699 920 q 692 823 699 852 q 674 775 684 794 q 648 736 665 755 q 620 706 631 716 q 590 680 608 695 q 564 659 572 665 q 556 651 562 656 q 527 623 536 633 q 503 598 517 613 q 484 570 490 583 q 478 545 478 557 q 487 512 478 530 q 504 484 496 494 q 533 450 513 473 q 559 420 553 428 q 590 387 568 411 q 622 351 612 363 q 647 317 631 340 q 670 278 663 295 q 684 238 677 262 q 690 189 690 214 q 629 49 690 104 q 476 -6 568 -6 q 417 -1 444 -6 q 372 14 390 4 q 343 32 353 24 q 321 50 332 39 q 313 90 311 81 q 332 137 315 121 q 374 153 349 153 q 394 145 385 153 q 412 124 404 136 q 430 97 420 111 q 450 70 440 82 q 476 48 460 57 q 509 40 491 40 q 572 67 552 40 q 592 136 592 95 q 583 179 592 155 q 564 220 574 203 q 534 264 554 238 q 505 301 513 291 q 476 334 496 311 q 449 365 456 357 q 427 393 442 373 q 407 427 412 414 q 395 460 401 440 q 390 501 390 480 q 393 532 390 518 q 402 557 397 547 q 419 582 407 568 q 442 605 432 595 q 474 636 452 615 q 512 673 495 656 q 553 719 537 698 q 582 774 569 741 q 594 846 594 808 q 555 953 594 913 q 464 993 515 993 q 383 912 415 993 q 315 639 351 831 q 266 370 301 563 q 210 66 231 178 q 157 -106 192 -26 q 78 -242 121 -187 q -15 -329 35 -297 q -110 -360 -64 -360 q -163 -349 -141 -360 q -193 -321 -184 -338 z "},"":{"ha":694,"x_min":29,"x_max":631,"o":"m 29 175 q 49 305 29 240 q 102 424 68 370 q 180 524 136 477 q 273 604 224 571 q 374 654 322 636 q 471 673 425 673 q 592 652 538 673 l 498 164 q 495 153 496 159 q 493 138 494 147 q 491 121 492 130 q 491 105 490 113 q 493 90 492 96 q 498 80 494 83 q 507 76 502 76 q 526 82 515 76 q 549 98 538 89 q 572 119 559 107 q 592 140 584 131 q 608 157 601 149 q 615 165 615 165 q 625 154 619 165 q 631 136 631 143 q 602 101 624 124 q 551 53 580 78 q 488 9 522 28 q 429 -9 454 -9 q 390 13 404 -9 q 376 71 376 36 q 387 153 376 96 q 394 201 393 190 q 368 158 384 182 q 327 104 351 134 q 277 50 302 74 q 222 9 252 25 q 167 -7 193 -7 q 67 43 104 -7 q 29 175 29 93 m 144 233 q 222 82 144 82 q 306 136 260 82 q 388 270 352 191 q 439 424 425 350 l 471 587 q 440 605 462 598 q 401 611 418 611 q 310 577 357 611 q 228 489 264 543 q 168 367 191 436 q 144 233 144 298 m 261 932 q 273 960 261 949 q 297 975 284 971 q 321 979 310 979 q 379 963 357 979 q 460 876 395 952 q 526 791 526 800 q 521 782 526 788 q 513 777 517 777 q 439 809 501 777 q 319 880 378 842 q 261 932 261 919 z "},"":{"ha":694,"x_min":29,"x_max":639,"o":"m 29 175 q 49 305 29 240 q 102 424 68 370 q 180 524 136 477 q 273 604 224 571 q 374 654 322 636 q 471 673 425 673 q 592 652 538 673 l 498 164 q 495 153 496 159 q 493 138 494 147 q 491 121 492 130 q 491 105 490 113 q 493 90 492 96 q 498 80 494 83 q 507 76 502 76 q 526 82 515 76 q 549 98 538 89 q 572 119 559 107 q 592 140 584 131 q 608 157 601 149 q 615 165 615 165 q 625 154 619 165 q 631 136 631 143 q 602 101 624 124 q 551 53 580 78 q 488 9 522 28 q 429 -9 454 -9 q 390 13 404 -9 q 376 71 376 36 q 387 153 376 96 q 394 201 393 190 q 368 158 384 182 q 327 104 351 134 q 277 50 302 74 q 222 9 252 25 q 167 -7 193 -7 q 67 43 104 -7 q 29 175 29 93 m 144 233 q 222 82 144 82 q 306 136 260 82 q 388 270 352 191 q 439 424 425 350 l 471 587 q 440 605 462 598 q 401 611 418 611 q 310 577 357 611 q 228 489 264 543 q 168 367 191 436 q 144 233 144 298 m 374 791 q 440 876 374 800 q 521 963 505 952 q 578 979 543 979 q 603 975 590 979 q 627 960 616 971 q 639 932 639 949 q 581 880 639 919 q 460 809 522 842 q 387 777 398 777 q 379 782 383 777 q 374 791 374 788 z "},"":{"ha":694,"x_min":29,"x_max":631,"o":"m 29 175 q 49 305 29 240 q 102 424 68 370 q 180 524 136 477 q 273 604 224 571 q 374 654 322 636 q 471 673 425 673 q 592 652 538 673 l 498 164 q 495 153 496 159 q 493 138 494 147 q 491 121 492 130 q 491 105 490 113 q 493 90 492 96 q 498 80 494 83 q 507 76 502 76 q 526 82 515 76 q 549 98 538 89 q 572 119 559 107 q 592 140 584 131 q 608 157 601 149 q 615 165 615 165 q 625 154 619 165 q 631 136 631 143 q 602 101 624 124 q 551 53 580 78 q 488 9 522 28 q 429 -9 454 -9 q 390 13 404 -9 q 376 71 376 36 q 387 153 376 96 q 394 201 393 190 q 368 158 384 182 q 327 104 351 134 q 277 50 302 74 q 222 9 252 25 q 167 -7 193 -7 q 67 43 104 -7 q 29 175 29 93 m 144 233 q 222 82 144 82 q 306 136 260 82 q 388 270 352 191 q 439 424 425 350 l 471 587 q 440 605 462 598 q 401 611 418 611 q 310 577 357 611 q 228 489 264 543 q 168 367 191 436 q 144 233 144 298 m 260 781 q 439 960 370 886 q 458 972 452 972 q 471 960 465 972 q 576 781 521 867 q 569 769 576 774 q 557 764 563 764 q 526 788 543 774 q 493 815 509 802 q 465 839 478 827 q 444 857 452 850 l 436 863 q 274 764 334 802 q 263 769 268 764 q 260 781 258 774 z "},"":{"ha":694,"x_min":29,"x_max":648,"o":"m 29 175 q 49 305 29 240 q 102 424 68 370 q 180 524 136 477 q 273 604 224 571 q 374 654 322 636 q 471 673 425 673 q 592 652 538 673 l 498 164 q 495 153 496 159 q 493 138 494 147 q 491 121 492 130 q 491 105 490 113 q 493 90 492 96 q 498 80 494 83 q 507 76 502 76 q 526 82 515 76 q 549 98 538 89 q 572 119 559 107 q 592 140 584 131 q 608 157 601 149 q 615 165 615 165 q 625 154 619 165 q 631 136 631 143 q 602 101 624 124 q 551 53 580 78 q 488 9 522 28 q 429 -9 454 -9 q 390 13 404 -9 q 376 71 376 36 q 387 153 376 96 q 394 201 393 190 q 368 158 384 182 q 327 104 351 134 q 277 50 302 74 q 222 9 252 25 q 167 -7 193 -7 q 67 43 104 -7 q 29 175 29 93 m 144 233 q 222 82 144 82 q 306 136 260 82 q 388 270 352 191 q 439 424 425 350 l 471 587 q 440 605 462 598 q 401 611 418 611 q 310 577 357 611 q 228 489 264 543 q 168 367 191 436 q 144 233 144 298 m 198 798 q 229 854 203 830 q 351 903 282 903 q 437 883 397 903 q 460 872 446 880 q 483 860 474 864 q 507 851 492 855 q 538 847 522 847 q 553 848 545 847 q 567 852 560 850 q 580 857 573 854 q 592 864 587 861 q 603 871 597 867 q 613 879 609 876 q 622 886 616 882 q 629 893 627 891 q 634 899 631 895 q 639 903 638 903 q 644 901 642 902 q 647 897 645 901 q 648 889 648 894 q 636 858 646 873 q 615 832 627 842 q 495 783 562 783 q 410 804 456 783 q 389 815 407 806 q 362 827 370 824 q 338 834 355 830 q 306 838 322 838 q 292 837 299 838 q 278 833 284 836 q 264 828 271 831 q 253 822 258 825 q 241 814 248 819 q 232 807 235 810 q 223 799 228 804 q 216 792 218 794 q 210 786 214 790 q 205 783 206 783 q 198 798 196 785 z "},"":{"ha":694,"x_min":29,"x_max":632,"o":"m 29 175 q 49 305 29 240 q 102 424 68 370 q 180 524 136 477 q 273 604 224 571 q 374 654 322 636 q 471 673 425 673 q 592 652 538 673 l 498 164 q 495 153 496 159 q 493 138 494 147 q 491 121 492 130 q 491 105 490 113 q 493 90 492 96 q 498 80 494 83 q 507 76 502 76 q 526 82 515 76 q 549 98 538 89 q 572 119 559 107 q 592 140 584 131 q 608 157 601 149 q 615 165 615 165 q 625 154 619 165 q 631 136 631 143 q 602 101 624 124 q 551 53 580 78 q 488 9 522 28 q 429 -9 454 -9 q 390 13 404 -9 q 376 71 376 36 q 387 153 376 96 q 394 201 393 190 q 368 158 384 182 q 327 104 351 134 q 277 50 302 74 q 222 9 252 25 q 167 -7 193 -7 q 67 43 104 -7 q 29 175 29 93 m 144 233 q 222 82 144 82 q 306 136 260 82 q 388 270 352 191 q 439 424 425 350 l 471 587 q 440 605 462 598 q 401 611 418 611 q 310 577 357 611 q 228 489 264 543 q 168 367 191 436 q 144 233 144 298 m 240 811 q 231 822 240 811 q 229 861 223 833 q 259 911 235 890 q 311 932 284 932 q 353 910 338 932 q 363 860 369 888 q 347 825 359 841 q 318 799 335 808 q 283 790 300 790 q 240 811 256 790 m 503 811 q 494 822 503 811 q 492 861 486 833 q 523 911 497 890 q 575 932 548 932 q 617 911 602 932 q 626 860 632 889 q 597 810 621 831 q 546 790 573 790 q 503 811 519 790 z "},"":{"ha":694,"x_min":29,"x_max":631,"o":"m 29 175 q 49 305 29 240 q 102 424 68 370 q 180 524 136 477 q 273 604 224 571 q 374 654 322 636 q 471 673 425 673 q 592 652 538 673 l 498 164 q 495 153 496 159 q 493 138 494 147 q 491 121 492 130 q 491 105 490 113 q 493 90 492 96 q 498 80 494 83 q 507 76 502 76 q 526 82 515 76 q 549 98 538 89 q 572 119 559 107 q 592 140 584 131 q 608 157 601 149 q 615 165 615 165 q 625 154 619 165 q 631 136 631 143 q 602 101 624 124 q 551 53 580 78 q 488 9 522 28 q 429 -9 454 -9 q 390 13 404 -9 q 376 71 376 36 q 387 153 376 96 q 394 201 393 190 q 368 158 384 182 q 327 104 351 134 q 277 50 302 74 q 222 9 252 25 q 167 -7 193 -7 q 67 43 104 -7 q 29 175 29 93 m 144 233 q 222 82 144 82 q 306 136 260 82 q 388 270 352 191 q 439 424 425 350 l 471 587 q 440 605 462 598 q 401 611 418 611 q 310 577 357 611 q 228 489 264 543 q 168 367 191 436 q 144 233 144 298 m 340 906 q 361 959 346 934 q 397 1003 376 985 q 444 1033 418 1022 q 495 1044 469 1044 q 575 1003 547 1044 q 592 906 604 963 q 536 808 581 849 q 441 767 492 767 q 359 808 389 767 q 340 906 329 849 m 388 906 q 399 845 381 870 q 450 819 418 819 q 492 831 471 819 q 527 862 512 842 q 546 906 541 882 q 535 966 553 942 q 484 991 517 991 q 423 966 451 991 q 388 906 395 942 z "},"":{"ha":864,"x_min":9,"x_max":829,"o":"m 9 123 q 38 214 9 172 q 100 278 66 256 q 160 301 111 286 q 276 337 210 317 q 359 362 342 357 q 364 365 362 363 q 367 370 366 366 q 369 377 368 374 q 371 387 370 380 q 372 397 372 393 l 390 490 q 393 523 393 503 q 369 584 393 555 q 306 614 345 614 q 254 592 273 614 q 218 524 234 570 q 139 454 192 454 q 104 499 104 454 q 121 551 104 524 q 168 586 140 567 q 233 626 196 605 q 311 660 269 646 q 388 673 353 673 q 464 641 433 673 q 499 566 494 609 q 602 642 539 612 q 724 673 664 673 q 775 664 753 673 q 806 644 796 655 q 822 616 817 633 q 828 591 827 600 q 829 572 829 583 q 802 494 829 533 q 734 425 775 455 q 643 369 692 394 q 547 328 593 343 q 465 308 501 313 q 459 244 459 271 q 486 125 459 169 q 568 82 513 82 q 593 86 579 82 q 618 98 606 91 q 644 114 631 104 q 668 133 658 123 q 690 152 679 142 q 707 169 701 162 q 719 182 713 176 q 725 189 725 189 q 736 178 729 189 q 744 158 743 167 q 630 41 698 92 q 507 -9 563 -9 q 409 23 456 -9 q 347 109 362 55 q 247 35 326 81 q 139 -12 169 -12 q 91 -4 114 -12 q 50 19 68 3 q 20 62 31 35 q 9 123 9 89 m 127 156 q 146 95 127 119 q 197 71 166 71 q 253 93 219 71 q 311 137 287 114 q 336 167 335 159 l 359 311 q 208 263 257 290 q 127 156 127 222 m 473 355 q 521 364 492 355 q 584 390 551 373 q 647 430 618 408 q 695 484 676 452 q 714 547 714 515 q 695 592 714 575 q 651 609 675 609 q 584 585 616 609 q 530 524 553 562 q 493 443 508 486 q 473 355 479 399 z "},"":{"ha":555,"x_min":37,"x_max":535,"o":"m 37 216 q 50 319 37 268 q 86 415 63 371 q 140 500 109 460 q 206 571 170 540 q 279 625 241 602 q 354 661 316 648 q 425 673 391 673 q 468 666 448 673 q 498 652 488 659 q 521 634 507 646 q 527 625 524 631 q 532 609 530 618 q 535 592 535 600 q 522 543 535 564 q 482 523 508 523 q 450 531 466 523 q 427 553 435 540 q 416 569 420 564 q 405 584 412 575 q 389 597 397 592 q 371 605 382 602 q 347 609 359 609 q 281 582 315 609 q 220 508 248 554 q 175 394 193 462 q 158 250 158 326 q 159 219 158 234 q 163 183 160 203 q 175 145 167 162 q 194 114 182 129 q 223 91 205 99 q 264 82 241 82 q 288 85 275 82 q 312 95 300 89 q 335 109 323 101 q 358 125 347 116 q 378 142 369 134 q 396 159 388 151 q 410 173 404 168 q 419 184 415 179 q 424 189 423 189 q 435 176 427 189 q 442 158 442 164 q 421 129 436 148 q 380 86 406 111 q 328 41 355 62 q 269 5 301 20 q 209 -9 236 -9 q 82 50 127 -9 q 37 216 37 109 m 76 -214 q 75 -203 76 -213 q 76 -192 75 -193 q 80 -181 77 -186 q 89 -173 84 -176 q 99 -170 94 -170 q 121 -180 106 -170 q 149 -190 136 -190 q 198 -175 178 -190 q 221 -139 218 -160 q 215 -100 227 -114 q 187 -87 203 -87 q 147 -98 174 -87 q 138 -90 144 -98 q 136 -77 133 -81 q 155 -53 143 -68 q 179 -22 168 -37 q 198 1 191 -7 l 227 1 l 195 -34 l 231 -34 q 272 -56 258 -34 q 280 -110 286 -79 q 225 -195 270 -163 q 122 -227 180 -227 q 96 -223 110 -227 q 76 -214 82 -218 z "},"":{"ha":561,"x_min":35,"x_max":526,"o":"m 35 215 q 52 328 35 271 q 97 436 68 386 q 163 530 125 486 q 244 605 201 574 q 333 654 286 636 q 424 673 380 673 q 472 664 452 673 q 504 642 493 656 q 520 611 515 627 q 526 576 526 595 q 505 505 526 541 q 452 438 485 468 q 378 382 419 409 q 297 337 338 355 q 220 309 256 319 q 159 298 183 298 q 156 249 156 289 q 182 127 156 173 q 263 82 208 82 q 290 86 275 82 q 316 98 304 91 q 342 115 329 105 q 367 134 356 124 q 388 153 378 143 q 405 170 399 163 q 417 183 412 177 q 422 189 422 189 q 433 176 426 189 q 441 158 441 164 q 409 117 432 142 q 353 62 385 91 q 280 12 320 33 q 205 -9 239 -9 q 79 49 123 -9 q 35 215 35 107 m 162 337 q 211 348 181 337 q 276 378 241 358 q 341 424 311 399 q 391 482 372 449 q 411 547 411 515 q 391 593 411 576 q 347 609 371 609 q 287 588 316 609 q 237 536 258 568 q 200 467 216 505 q 174 396 183 429 q 162 337 165 362 m 210 932 q 222 960 210 949 q 246 975 233 971 q 271 979 258 979 q 328 963 306 979 q 409 876 344 952 q 475 791 475 800 q 470 782 475 788 q 463 777 466 777 q 389 809 450 777 q 269 880 327 842 q 210 932 210 919 z "},"":{"ha":561,"x_min":35,"x_max":600,"o":"m 35 215 q 52 328 35 271 q 97 436 68 386 q 163 530 125 486 q 244 605 201 574 q 333 654 286 636 q 424 673 380 673 q 472 664 452 673 q 504 642 493 656 q 520 611 515 627 q 526 576 526 595 q 505 505 526 541 q 452 438 485 468 q 378 382 419 409 q 297 337 338 355 q 220 309 256 319 q 159 298 183 298 q 156 249 156 289 q 182 127 156 173 q 263 82 208 82 q 290 86 275 82 q 316 98 304 91 q 342 115 329 105 q 367 134 356 124 q 388 153 378 143 q 405 170 399 163 q 417 183 412 177 q 422 189 422 189 q 433 176 426 189 q 441 158 441 164 q 409 117 432 142 q 353 62 385 91 q 280 12 320 33 q 205 -9 239 -9 q 79 49 123 -9 q 35 215 35 107 m 162 337 q 211 348 181 337 q 276 378 241 358 q 341 424 311 399 q 391 482 372 449 q 411 547 411 515 q 391 593 411 576 q 347 609 371 609 q 287 588 316 609 q 237 536 258 568 q 200 467 216 505 q 174 396 183 429 q 162 337 165 362 m 336 791 q 401 876 336 800 q 482 963 467 952 q 540 979 505 979 q 564 975 551 979 q 589 960 577 971 q 600 932 600 949 q 542 880 600 919 q 421 809 484 842 q 348 777 359 777 q 340 782 345 777 q 336 791 336 788 z "},"":{"ha":561,"x_min":35,"x_max":538,"o":"m 35 215 q 52 328 35 271 q 97 436 68 386 q 163 530 125 486 q 244 605 201 574 q 333 654 286 636 q 424 673 380 673 q 472 664 452 673 q 504 642 493 656 q 520 611 515 627 q 526 576 526 595 q 505 505 526 541 q 452 438 485 468 q 378 382 419 409 q 297 337 338 355 q 220 309 256 319 q 159 298 183 298 q 156 249 156 289 q 182 127 156 173 q 263 82 208 82 q 290 86 275 82 q 316 98 304 91 q 342 115 329 105 q 367 134 356 124 q 388 153 378 143 q 405 170 399 163 q 417 183 412 177 q 422 189 422 189 q 433 176 426 189 q 441 158 441 164 q 409 117 432 142 q 353 62 385 91 q 280 12 320 33 q 205 -9 239 -9 q 79 49 123 -9 q 35 215 35 107 m 162 337 q 211 348 181 337 q 276 378 241 358 q 341 424 311 399 q 391 482 372 449 q 411 547 411 515 q 391 593 411 576 q 347 609 371 609 q 287 588 316 609 q 237 536 258 568 q 200 467 216 505 q 174 396 183 429 q 162 337 165 362 m 221 781 q 401 960 332 886 q 419 972 413 972 q 433 960 427 972 q 538 781 482 867 q 531 769 537 774 q 518 764 524 764 q 466 805 496 781 q 417 846 436 830 l 397 863 q 235 764 295 802 q 224 769 229 764 q 221 781 220 774 z "},"":{"ha":561,"x_min":35,"x_max":578,"o":"m 35 215 q 52 328 35 271 q 97 436 68 386 q 163 530 125 486 q 244 605 201 574 q 333 654 286 636 q 424 673 380 673 q 472 664 452 673 q 504 642 493 656 q 520 611 515 627 q 526 576 526 595 q 505 505 526 541 q 452 438 485 468 q 378 382 419 409 q 297 337 338 355 q 220 309 256 319 q 159 298 183 298 q 156 249 156 289 q 182 127 156 173 q 263 82 208 82 q 290 86 275 82 q 316 98 304 91 q 342 115 329 105 q 367 134 356 124 q 388 153 378 143 q 405 170 399 163 q 417 183 412 177 q 422 189 422 189 q 433 176 426 189 q 441 158 441 164 q 409 117 432 142 q 353 62 385 91 q 280 12 320 33 q 205 -9 239 -9 q 79 49 123 -9 q 35 215 35 107 m 162 337 q 211 348 181 337 q 276 378 241 358 q 341 424 311 399 q 391 482 372 449 q 411 547 411 515 q 391 593 411 576 q 347 609 371 609 q 287 588 316 609 q 237 536 258 568 q 200 467 216 505 q 174 396 183 429 q 162 337 165 362 m 177 826 q 174 834 177 826 q 175 861 171 842 q 191 897 178 880 q 222 923 204 913 q 256 932 239 932 q 299 910 283 932 q 309 860 315 888 q 280 810 304 831 q 229 790 256 790 q 198 800 212 790 q 177 826 184 809 m 448 811 q 440 822 448 811 q 438 861 432 833 q 469 911 444 890 q 521 932 494 932 q 563 911 548 932 q 572 860 578 889 q 561 833 569 846 q 543 810 553 820 q 518 795 532 801 q 492 790 505 790 q 448 811 465 790 z "},"":{"ha":405,"x_min":43,"x_max":342,"o":"m 43 527 q 71 563 51 540 q 119 611 92 585 q 180 654 147 636 q 238 673 213 673 q 261 667 250 673 q 280 650 272 661 q 294 624 289 640 q 298 592 298 609 q 288 510 298 567 l 209 164 q 203 115 203 133 q 218 76 203 76 q 237 82 226 76 q 259 98 248 89 q 283 119 271 107 q 303 140 295 131 q 319 157 312 149 q 326 165 326 165 q 332 160 328 165 q 339 148 336 155 q 342 136 342 140 q 313 101 334 124 q 262 53 291 78 q 199 9 233 28 q 139 -9 165 -9 q 101 13 115 -9 q 87 71 87 36 q 98 153 87 96 l 176 499 q 182 549 182 536 q 167 587 182 587 q 151 583 160 587 q 132 571 142 578 q 112 554 122 563 q 93 535 102 545 q 77 518 83 526 q 64 504 70 510 q 59 498 59 498 q 49 509 55 498 q 43 527 43 520 m 45 882 q 56 909 45 898 q 80 924 68 920 q 105 928 93 928 q 162 912 140 928 q 208 866 172 905 q 277 786 244 826 q 309 741 309 747 q 305 731 309 737 q 297 725 300 725 q 223 758 285 725 q 103 829 161 791 q 45 882 45 868 z "},"":{"ha":405,"x_min":43,"x_max":416,"o":"m 43 527 q 71 563 51 540 q 119 611 92 585 q 180 654 147 636 q 238 673 213 673 q 261 667 250 673 q 280 650 272 661 q 294 624 289 640 q 298 592 298 609 q 288 510 298 567 l 209 164 q 203 115 203 133 q 218 76 203 76 q 237 82 226 76 q 259 98 248 89 q 283 119 271 107 q 303 140 295 131 q 319 157 312 149 q 326 165 326 165 q 332 160 328 165 q 339 148 336 155 q 342 136 342 140 q 313 101 334 124 q 262 53 291 78 q 199 9 233 28 q 139 -9 165 -9 q 101 13 115 -9 q 87 71 87 36 q 98 153 87 96 l 176 499 q 182 549 182 536 q 167 587 182 587 q 151 583 160 587 q 132 571 142 578 q 112 554 122 563 q 93 535 102 545 q 77 518 83 526 q 64 504 70 510 q 59 498 59 498 q 49 509 55 498 q 43 527 43 520 m 151 791 q 217 876 151 800 q 298 963 283 952 q 355 979 321 979 q 380 975 368 979 q 405 960 393 971 q 416 932 416 949 q 358 880 416 919 q 238 809 300 842 q 164 777 176 777 q 156 782 161 777 q 151 791 151 788 z "},"":{"ha":405,"x_min":43,"x_max":397,"o":"m 43 527 q 71 563 51 540 q 119 611 92 585 q 180 654 147 636 q 238 673 213 673 q 261 667 250 673 q 280 650 272 661 q 294 624 289 640 q 298 592 298 609 q 288 510 298 567 l 209 164 q 203 115 203 133 q 218 76 203 76 q 237 82 226 76 q 259 98 248 89 q 283 119 271 107 q 303 140 295 131 q 319 157 312 149 q 326 165 326 165 q 332 160 328 165 q 339 148 336 155 q 342 136 342 140 q 313 101 334 124 q 262 53 291 78 q 199 9 233 28 q 139 -9 165 -9 q 101 13 115 -9 q 87 71 87 36 q 98 153 87 96 l 176 499 q 182 549 182 536 q 167 587 182 587 q 151 583 160 587 q 132 571 142 578 q 112 554 122 563 q 93 535 102 545 q 77 518 83 526 q 64 504 70 510 q 59 498 59 498 q 49 509 55 498 q 43 527 43 520 m 81 781 q 260 960 191 886 q 278 972 272 972 q 292 960 286 972 q 397 781 342 867 q 390 769 396 774 q 377 764 383 764 q 347 788 364 774 q 314 815 329 802 q 286 839 299 827 q 264 857 272 850 l 256 863 q 94 764 155 802 q 84 769 88 764 q 81 781 79 774 z "},"":{"ha":405,"x_min":43,"x_max":441,"o":"m 43 527 q 71 563 51 540 q 119 611 92 585 q 180 654 147 636 q 238 673 213 673 q 261 667 250 673 q 280 650 272 661 q 294 624 289 640 q 298 592 298 609 q 288 510 298 567 l 209 164 q 203 115 203 133 q 218 76 203 76 q 237 82 226 76 q 259 98 248 89 q 283 119 271 107 q 303 140 295 131 q 319 157 312 149 q 326 165 326 165 q 332 160 328 165 q 339 148 336 155 q 342 136 342 140 q 313 101 334 124 q 262 53 291 78 q 199 9 233 28 q 139 -9 165 -9 q 101 13 115 -9 q 87 71 87 36 q 98 153 87 96 l 176 499 q 182 549 182 536 q 167 587 182 587 q 151 583 160 587 q 132 571 142 578 q 112 554 122 563 q 93 535 102 545 q 77 518 83 526 q 64 504 70 510 q 59 498 59 498 q 49 509 55 498 q 43 527 43 520 m 99 852 q 121 913 99 888 q 178 939 144 939 q 219 920 202 939 q 235 877 235 901 q 211 812 235 840 q 151 784 186 784 q 113 804 127 784 q 99 852 99 825 m 304 852 q 327 913 304 888 q 383 939 349 939 q 424 920 408 939 q 441 877 441 901 q 416 812 441 840 q 357 784 392 784 q 329 794 341 784 q 310 819 316 804 q 304 852 304 834 z "},"":{"ha":675,"x_min":60,"x_max":627,"o":"m 60 216 q 72 309 60 259 q 105 410 84 359 q 157 508 125 461 q 225 592 189 555 q 307 651 261 629 q 401 673 353 673 q 484 659 460 673 q 465 775 485 711 q 405 895 444 840 l 241 787 q 228 811 233 793 q 227 836 222 828 l 376 934 q 209 1039 304 1015 q 216 1056 210 1048 q 229 1064 221 1064 q 430 971 345 1044 l 608 1088 q 621 1064 615 1082 q 623 1040 627 1046 l 465 935 q 566 760 531 862 q 600 546 600 657 q 579 359 600 448 q 522 204 558 270 q 440 90 486 138 q 341 17 394 41 q 237 -7 289 -7 q 165 6 197 -7 q 115 41 134 19 q 83 92 96 62 q 65 153 71 122 q 60 216 60 183 m 181 244 q 183 196 181 220 q 190 143 184 172 q 205 93 196 114 q 232 57 215 71 q 271 42 248 42 q 343 72 307 42 q 408 152 380 102 q 454 273 437 201 q 471 422 471 345 q 467 546 471 515 q 439 600 463 577 q 388 623 415 623 q 313 593 351 623 q 247 512 276 562 q 199 390 218 461 q 181 244 181 319 z "},"":{"ha":768,"x_min":34,"x_max":708,"o":"m 34 527 q 62 563 41 540 q 110 611 83 585 q 171 654 138 636 q 229 673 203 673 q 252 667 241 673 q 271 650 263 661 q 284 624 279 640 q 289 592 289 609 q 277 510 289 562 l 249 380 q 267 409 254 389 q 300 455 279 428 q 344 512 320 482 q 395 570 368 541 q 450 622 423 599 q 504 659 477 644 q 552 673 531 673 q 608 660 587 673 q 639 626 630 648 q 648 570 648 604 q 626 402 648 507 l 575 164 q 569 115 569 133 q 585 76 569 76 q 604 82 592 76 q 626 98 615 89 q 649 119 637 107 q 670 140 661 131 q 685 157 678 149 q 692 165 692 165 q 702 154 696 165 q 708 136 708 143 q 679 101 701 124 q 628 53 657 78 q 565 9 600 28 q 506 -9 531 -9 q 467 13 481 -9 q 453 71 453 36 q 464 153 453 96 l 518 408 q 525 450 521 420 q 529 492 529 480 q 528 519 529 509 q 525 539 528 530 q 516 554 522 549 q 499 558 509 558 q 452 539 482 558 q 385 484 421 519 q 314 403 348 448 q 252 301 279 358 q 214 189 224 243 q 175 0 208 157 q 119 -6 150 -6 q 65 0 90 -6 l 167 499 q 173 549 173 536 q 158 587 173 587 q 139 581 150 587 q 116 565 127 574 q 93 544 105 556 q 72 523 81 532 q 57 506 64 514 q 50 498 50 498 q 40 509 46 498 q 34 527 34 520 m 201 798 q 232 854 205 830 q 354 903 286 903 q 441 883 401 903 q 463 872 448 880 q 486 860 477 864 q 511 851 496 855 q 541 847 526 847 q 556 848 549 847 q 569 852 563 850 q 583 857 576 854 q 595 864 589 861 q 606 871 600 867 q 616 879 612 876 q 625 886 620 882 q 632 893 630 891 q 638 899 634 895 q 642 903 642 903 q 647 901 645 902 q 650 897 648 901 q 651 889 652 894 q 640 858 649 873 q 618 832 630 842 q 498 783 565 783 q 413 804 459 783 q 392 815 410 806 q 366 827 374 824 q 341 834 358 830 q 309 838 325 838 q 295 837 302 838 q 281 833 288 836 q 268 828 275 831 q 256 822 261 825 q 244 814 250 819 q 234 807 238 810 q 225 799 231 804 q 218 792 220 794 q 213 786 216 790 q 209 783 209 783 q 201 798 199 785 z "},"":{"ha":640,"x_min":37,"x_max":569,"o":"m 37 214 q 56 344 37 277 q 110 469 75 411 q 188 573 144 527 q 284 646 231 619 q 388 673 336 673 q 523 611 477 673 q 569 446 569 549 q 550 315 569 382 q 496 192 530 249 q 417 90 461 135 q 321 18 374 44 q 216 -7 269 -7 q 82 51 127 -7 q 37 214 37 110 m 158 244 q 181 96 158 151 q 246 42 204 42 q 316 66 283 42 q 373 131 349 91 q 414 221 397 172 q 440 323 431 271 q 448 422 448 375 q 428 570 448 517 q 366 623 408 623 q 295 599 329 623 q 237 534 261 574 q 194 445 212 494 q 167 343 176 395 q 158 244 158 291 m 220 882 q 231 909 220 898 q 255 924 242 920 q 280 928 268 928 q 337 912 315 928 q 418 825 353 901 q 484 741 484 749 q 479 731 484 737 q 471 725 475 725 q 422 745 463 725 q 337 792 382 766 q 256 845 292 819 q 220 882 220 871 z "},"":{"ha":640,"x_min":37,"x_max":575,"o":"m 37 214 q 56 344 37 277 q 110 469 75 411 q 188 573 144 527 q 284 646 231 619 q 388 673 336 673 q 523 611 477 673 q 569 446 569 549 q 550 315 569 382 q 496 192 530 249 q 417 90 461 135 q 321 18 374 44 q 216 -7 269 -7 q 82 51 127 -7 q 37 214 37 110 m 158 244 q 181 96 158 151 q 246 42 204 42 q 316 66 283 42 q 373 131 349 91 q 414 221 397 172 q 440 323 431 271 q 448 422 448 375 q 428 570 448 517 q 366 623 408 623 q 295 599 329 623 q 237 534 261 574 q 194 445 212 494 q 167 343 176 395 q 158 244 158 291 m 311 791 q 376 876 311 800 q 458 963 441 952 q 515 979 479 979 q 540 975 527 979 q 564 960 553 971 q 575 932 575 949 q 551 905 575 924 q 493 864 528 886 q 422 823 458 843 q 358 790 386 803 q 323 777 330 777 q 315 782 320 777 q 311 791 311 788 z "},"":{"ha":640,"x_min":37,"x_max":569,"o":"m 37 214 q 56 344 37 277 q 110 469 75 411 q 188 573 144 527 q 284 646 231 619 q 388 673 336 673 q 523 611 477 673 q 569 446 569 549 q 550 315 569 382 q 496 192 530 249 q 417 90 461 135 q 321 18 374 44 q 216 -7 269 -7 q 82 51 127 -7 q 37 214 37 110 m 158 244 q 181 96 158 151 q 246 42 204 42 q 316 66 283 42 q 373 131 349 91 q 414 221 397 172 q 440 323 431 271 q 448 422 448 375 q 428 570 448 517 q 366 623 408 623 q 295 599 329 623 q 237 534 261 574 q 194 445 212 494 q 167 343 176 395 q 158 244 158 291 m 227 781 q 407 960 338 886 q 425 972 419 972 q 439 960 433 972 q 545 781 488 867 q 537 769 543 774 q 524 764 530 764 q 473 805 503 781 q 423 846 443 830 l 404 863 q 241 764 301 802 q 231 769 235 764 q 227 781 227 774 z "},"":{"ha":640,"x_min":37,"x_max":627,"o":"m 37 214 q 56 344 37 277 q 110 469 75 411 q 188 573 144 527 q 284 646 231 619 q 388 673 336 673 q 523 611 477 673 q 569 446 569 549 q 550 315 569 382 q 496 192 530 249 q 417 90 461 135 q 321 18 374 44 q 216 -7 269 -7 q 82 51 127 -7 q 37 214 37 110 m 158 244 q 181 96 158 151 q 246 42 204 42 q 316 66 283 42 q 373 131 349 91 q 414 221 397 172 q 440 323 431 271 q 448 422 448 375 q 428 570 448 517 q 366 623 408 623 q 295 599 329 623 q 237 534 261 574 q 194 445 212 494 q 167 343 176 395 q 158 244 158 291 m 176 798 q 208 854 181 830 q 330 903 261 903 q 416 883 376 903 q 443 869 422 880 q 480 852 465 857 q 517 847 496 847 q 531 848 524 847 q 545 852 538 850 q 558 857 551 854 q 570 864 565 861 q 581 871 575 867 q 591 879 587 876 q 600 886 595 882 q 607 893 605 891 q 613 899 609 895 q 617 903 616 903 q 622 901 621 902 q 625 897 624 901 q 626 889 627 894 q 620 868 625 879 q 608 847 614 857 q 594 832 601 838 q 473 783 540 783 q 388 804 434 783 q 367 815 385 806 q 341 827 349 824 q 317 834 333 830 q 285 838 300 838 q 270 837 277 838 q 256 833 262 836 q 243 828 250 831 q 231 822 236 825 q 220 814 226 819 q 210 807 214 810 q 201 799 206 804 q 194 792 196 794 q 188 786 192 790 q 184 783 184 783 q 176 798 174 785 z "},"":{"ha":640,"x_min":37,"x_max":615,"o":"m 37 214 q 56 344 37 277 q 110 469 75 411 q 188 573 144 527 q 284 646 231 619 q 388 673 336 673 q 523 611 477 673 q 569 446 569 549 q 550 315 569 382 q 496 192 530 249 q 417 90 461 135 q 321 18 374 44 q 216 -7 269 -7 q 82 51 127 -7 q 37 214 37 110 m 158 244 q 181 96 158 151 q 246 42 204 42 q 316 66 283 42 q 373 131 349 91 q 414 221 397 172 q 440 323 431 271 q 448 422 448 375 q 428 570 448 517 q 366 623 408 623 q 295 599 329 623 q 237 534 261 574 q 194 445 212 494 q 167 343 176 395 q 158 244 158 291 m 222 811 q 214 822 222 811 q 212 861 206 833 q 242 911 218 890 q 294 932 267 932 q 336 910 321 932 q 347 860 352 888 q 330 825 342 841 q 301 799 318 808 q 266 790 283 790 q 222 811 239 790 m 485 811 q 477 822 485 811 q 474 861 469 833 q 506 911 480 890 q 558 932 531 932 q 600 911 585 932 q 609 860 615 889 q 579 810 604 831 q 529 790 555 790 q 485 811 502 790 z "},"":{"ha":783,"x_min":51,"x_max":722,"o":"m 51 362 q 56 392 51 374 q 66 419 60 410 l 718 419 q 722 407 722 419 q 703 347 722 377 l 57 347 q 51 362 51 347 m 261 74 q 267 107 261 92 q 283 135 273 123 q 309 154 294 146 q 340 161 323 161 q 380 142 364 161 q 396 99 396 124 q 372 34 396 62 q 314 6 349 6 q 286 16 298 6 q 267 42 273 26 q 261 74 261 57 m 376 671 q 386 714 376 694 q 414 746 395 734 q 454 758 432 758 q 495 739 479 758 q 512 696 512 721 q 488 631 512 659 q 429 603 463 603 q 390 623 404 603 q 376 671 376 644 z "},"":{"ha":640,"x_min":37,"x_max":569,"o":"m 37 214 q 56 344 37 277 q 110 469 75 411 q 188 573 144 527 q 284 646 231 619 q 388 673 336 673 q 523 611 477 673 q 569 446 569 549 q 550 315 569 382 q 496 192 530 249 q 417 90 461 135 q 321 18 374 44 q 216 -7 269 -7 q 82 51 127 -7 q 37 214 37 110 m 51 31 l 527 648 q 550 633 539 642 q 557 618 561 625 l 81 0 q 58 15 70 5 q 51 31 47 25 m 158 244 q 181 96 158 151 q 246 42 204 42 q 316 66 283 42 q 373 131 349 91 q 414 221 397 172 q 440 323 431 271 q 448 422 448 375 q 428 570 448 517 q 366 623 408 623 q 295 599 329 623 q 237 534 261 574 q 194 445 212 494 q 167 343 176 395 q 158 244 158 291 z "},"":{"ha":759,"x_min":31,"x_max":696,"o":"m 31 527 q 59 563 38 540 q 107 611 79 585 q 167 654 134 636 q 226 673 200 673 q 249 667 238 673 q 268 650 260 661 q 281 624 276 640 q 286 592 286 609 q 275 510 286 567 l 221 255 q 214 213 218 243 q 210 172 210 183 q 211 146 210 157 q 215 125 212 136 q 224 110 218 115 q 239 105 230 105 q 286 126 256 105 q 351 186 316 148 q 419 273 386 225 q 479 379 452 320 q 517 493 506 438 q 533 574 522 521 q 551 663 544 628 q 598 669 571 669 q 659 663 634 669 l 563 164 q 557 115 557 133 q 572 76 557 76 q 591 82 580 76 q 613 98 602 89 q 637 119 625 107 q 657 140 649 131 q 673 157 666 149 q 680 165 680 165 q 690 154 684 165 q 696 136 696 143 q 667 101 689 124 q 616 53 645 78 q 553 9 587 28 q 493 -9 519 -9 q 455 13 469 -9 q 441 71 441 36 q 452 153 441 96 q 460 197 456 176 q 470 243 465 218 q 479 288 475 269 q 428 204 464 254 q 348 107 392 155 q 254 25 304 59 q 169 -9 205 -9 q 92 102 92 -9 q 113 261 92 157 l 164 499 q 170 549 170 536 q 155 587 170 587 q 136 581 147 587 q 113 565 124 574 q 90 544 102 556 q 70 523 78 532 q 54 506 61 514 q 46 498 47 498 q 37 509 43 498 q 31 527 31 520 m 239 882 q 251 909 239 898 q 275 924 262 920 q 300 928 288 928 q 357 912 335 928 q 438 825 373 901 q 504 741 504 749 q 499 731 504 737 q 492 725 495 725 q 418 758 480 725 q 298 829 356 791 q 239 882 239 868 z "},"":{"ha":759,"x_min":31,"x_max":696,"o":"m 31 527 q 59 563 38 540 q 107 611 79 585 q 167 654 134 636 q 226 673 200 673 q 249 667 238 673 q 268 650 260 661 q 281 624 276 640 q 286 592 286 609 q 275 510 286 567 l 221 255 q 214 213 218 243 q 210 172 210 183 q 211 146 210 157 q 215 125 212 136 q 224 110 218 115 q 239 105 230 105 q 286 126 256 105 q 351 186 316 148 q 419 273 386 225 q 479 379 452 320 q 517 493 506 438 q 533 574 522 521 q 551 663 544 628 q 598 669 571 669 q 659 663 634 669 l 563 164 q 557 115 557 133 q 572 76 557 76 q 591 82 580 76 q 613 98 602 89 q 637 119 625 107 q 657 140 649 131 q 673 157 666 149 q 680 165 680 165 q 690 154 684 165 q 696 136 696 143 q 667 101 689 124 q 616 53 645 78 q 553 9 587 28 q 493 -9 519 -9 q 455 13 469 -9 q 441 71 441 36 q 452 153 441 96 q 460 197 456 176 q 470 243 465 218 q 479 288 475 269 q 428 204 464 254 q 348 107 392 155 q 254 25 304 59 q 169 -9 205 -9 q 92 102 92 -9 q 113 261 92 157 l 164 499 q 170 549 170 536 q 155 587 170 587 q 136 581 147 587 q 113 565 124 574 q 90 544 102 556 q 70 523 78 532 q 54 506 61 514 q 46 498 47 498 q 37 509 43 498 q 31 527 31 520 m 334 791 q 399 876 334 800 q 481 963 465 952 q 538 979 503 979 q 563 975 550 979 q 587 960 576 971 q 598 932 598 949 q 540 880 598 919 q 420 809 482 842 q 347 777 358 777 q 341 779 344 777 q 336 786 338 782 q 334 791 334 789 z "},"":{"ha":759,"x_min":31,"x_max":696,"o":"m 31 527 q 59 563 38 540 q 107 611 79 585 q 167 654 134 636 q 226 673 200 673 q 249 667 238 673 q 268 650 260 661 q 281 624 276 640 q 286 592 286 609 q 275 510 286 567 l 221 255 q 214 213 218 243 q 210 172 210 183 q 211 146 210 157 q 215 125 212 136 q 224 110 218 115 q 239 105 230 105 q 286 126 256 105 q 351 186 316 148 q 419 273 386 225 q 479 379 452 320 q 517 493 506 438 q 533 574 522 521 q 551 663 544 628 q 598 669 571 669 q 659 663 634 669 l 563 164 q 557 115 557 133 q 572 76 557 76 q 591 82 580 76 q 613 98 602 89 q 637 119 625 107 q 657 140 649 131 q 673 157 666 149 q 680 165 680 165 q 690 154 684 165 q 696 136 696 143 q 667 101 689 124 q 616 53 645 78 q 553 9 587 28 q 493 -9 519 -9 q 455 13 469 -9 q 441 71 441 36 q 452 153 441 96 q 460 197 456 176 q 470 243 465 218 q 479 288 475 269 q 428 204 464 254 q 348 107 392 155 q 254 25 304 59 q 169 -9 205 -9 q 92 102 92 -9 q 113 261 92 157 l 164 499 q 170 549 170 536 q 155 587 170 587 q 136 581 147 587 q 113 565 124 574 q 90 544 102 556 q 70 523 78 532 q 54 506 61 514 q 46 498 47 498 q 37 509 43 498 q 31 527 31 520 m 250 781 q 430 960 361 886 q 448 972 442 972 q 463 960 456 972 q 568 781 512 867 q 560 769 566 774 q 547 764 553 764 q 516 788 534 774 q 484 815 499 802 q 455 839 469 827 q 435 857 442 850 l 427 863 q 264 764 325 802 q 254 769 258 764 q 250 781 250 774 z "},"":{"ha":759,"x_min":31,"x_max":696,"o":"m 31 527 q 59 563 38 540 q 107 611 79 585 q 167 654 134 636 q 226 673 200 673 q 249 667 238 673 q 268 650 260 661 q 281 624 276 640 q 286 592 286 609 q 275 510 286 567 l 221 255 q 214 213 218 243 q 210 172 210 183 q 211 146 210 157 q 215 125 212 136 q 224 110 218 115 q 239 105 230 105 q 286 126 256 105 q 351 186 316 148 q 419 273 386 225 q 479 379 452 320 q 517 493 506 438 q 533 574 522 521 q 551 663 544 628 q 598 669 571 669 q 659 663 634 669 l 563 164 q 557 115 557 133 q 572 76 557 76 q 591 82 580 76 q 613 98 602 89 q 637 119 625 107 q 657 140 649 131 q 673 157 666 149 q 680 165 680 165 q 690 154 684 165 q 696 136 696 143 q 667 101 689 124 q 616 53 645 78 q 553 9 587 28 q 493 -9 519 -9 q 455 13 469 -9 q 441 71 441 36 q 452 153 441 96 q 460 197 456 176 q 470 243 465 218 q 479 288 475 269 q 428 204 464 254 q 348 107 392 155 q 254 25 304 59 q 169 -9 205 -9 q 92 102 92 -9 q 113 261 92 157 l 164 499 q 170 549 170 536 q 155 587 170 587 q 136 581 147 587 q 113 565 124 574 q 90 544 102 556 q 70 523 78 532 q 54 506 61 514 q 46 498 47 498 q 37 509 43 498 q 31 527 31 520 m 232 861 q 249 897 236 880 q 279 923 261 913 q 314 932 296 932 q 356 910 340 932 q 366 860 372 888 q 337 810 361 831 q 286 790 313 790 q 243 811 259 790 q 232 861 227 833 m 495 861 q 526 911 500 890 q 578 932 551 932 q 620 911 605 932 q 629 860 635 889 q 600 810 623 831 q 549 790 576 790 q 518 800 532 790 q 497 826 504 809 q 495 861 491 842 z "},"":{"ha":691,"x_min":-172,"x_max":626,"o":"m -172 -297 q -162 -257 -172 -276 q -136 -229 -153 -238 q -78 -249 -119 -239 q -12 -258 -38 -258 q 105 -225 55 -258 q 198 -130 156 -191 q 215 -95 208 -115 q 223 -45 221 -75 q 226 1 225 -16 q 227 54 227 17 q 226 96 226 91 q 222 249 226 172 q 208 406 218 326 q 179 537 199 487 q 133 587 160 587 q 114 581 125 587 q 92 565 102 574 q 68 544 81 556 q 48 523 56 532 q 32 506 39 514 q 24 498 25 498 q 15 509 21 498 q 9 527 9 520 q 37 563 16 540 q 85 611 58 585 q 146 654 113 636 q 204 673 179 673 q 248 649 228 673 q 282 584 268 626 q 306 493 296 542 q 323 383 317 444 q 333 271 329 322 q 339 164 337 220 q 341 79 340 108 q 342 23 342 50 q 382 77 361 47 q 428 151 403 106 q 473 240 454 195 q 506 339 493 286 q 519 441 519 393 q 512 519 519 484 q 499 569 505 555 q 481 606 493 583 q 511 655 490 637 q 558 673 531 673 q 626 551 626 673 q 588 358 626 463 q 490 153 551 252 q 352 -40 429 54 q 197 -205 275 -135 q 46 -317 119 -275 q -79 -360 -28 -360 q -145 -341 -119 -360 q -172 -297 -172 -323 m 354 791 q 419 876 354 800 q 501 963 485 952 q 558 979 523 979 q 583 975 570 979 q 607 960 595 971 q 618 932 618 949 q 582 896 618 922 q 501 843 546 869 q 416 797 456 817 q 366 777 375 777 q 362 778 365 777 q 358 782 360 780 q 355 787 357 785 q 354 791 354 790 z "},"":{"ha":694,"x_min":-85,"x_max":631,"o":"m -79 -363 q -84 -342 -85 -362 q -77 -319 -83 -322 q -16 -294 -36 -319 q 9 -227 -1 -275 l 132 387 l 57 313 q 48 343 48 324 q 53 354 48 349 l 144 452 l 222 866 q 228 894 224 876 q 234 927 232 913 q 237 948 237 941 q 142 977 237 977 q 141 994 139 982 q 149 1010 144 1005 q 353 1061 233 1017 q 362 1031 362 1055 q 342 916 362 1016 q 303 719 339 899 q 267 535 268 539 q 496 673 416 673 q 559 659 532 673 q 601 620 585 645 q 624 561 616 594 q 631 486 631 528 q 609 342 631 415 q 548 208 587 270 q 460 97 509 146 q 354 20 412 48 q 241 -7 296 -7 q 170 12 182 -7 l 119 -224 q 115 -267 115 -245 q 117 -279 115 -272 q 124 -294 119 -286 q 136 -303 129 -301 q 209 -308 156 -308 q 212 -329 214 -309 q 204 -351 210 -349 q 176 -350 194 -351 q 150 -349 158 -349 q -79 -363 37 -349 m 201 203 q 202 122 193 159 q 231 66 211 85 q 274 46 250 46 q 329 60 301 46 q 379 98 356 74 q 424 154 403 122 q 462 225 446 186 q 491 304 479 264 q 510 387 503 345 q 517 469 517 429 q 435 587 517 587 q 341 548 397 587 q 252 464 284 509 l 201 203 z "},"":{"ha":691,"x_min":-172,"x_max":626,"o":"m -172 -297 q -162 -257 -172 -276 q -136 -229 -153 -238 q -78 -249 -119 -239 q -12 -258 -38 -258 q 105 -225 55 -258 q 198 -130 156 -191 q 215 -95 208 -115 q 223 -45 221 -75 q 226 1 225 -16 q 227 54 227 17 q 226 96 226 91 q 222 249 226 172 q 208 406 218 326 q 179 537 199 487 q 133 587 160 587 q 114 581 125 587 q 92 565 102 574 q 68 544 81 556 q 48 523 56 532 q 32 506 39 514 q 24 498 25 498 q 15 509 21 498 q 9 527 9 520 q 37 563 16 540 q 85 611 58 585 q 146 654 113 636 q 204 673 179 673 q 248 649 228 673 q 282 584 268 626 q 306 493 296 542 q 323 383 317 444 q 333 271 329 322 q 339 164 337 220 q 341 79 340 108 q 342 23 342 50 q 382 77 361 47 q 428 151 403 106 q 473 240 454 195 q 506 339 493 286 q 519 441 519 393 q 512 519 519 484 q 499 569 505 555 q 481 606 493 583 q 511 655 490 637 q 558 673 531 673 q 626 551 626 673 q 588 358 626 463 q 490 153 551 252 q 352 -40 429 54 q 197 -205 275 -135 q 46 -317 119 -275 q -79 -360 -28 -360 q -145 -341 -119 -360 q -172 -297 -172 -323 m 205 826 q 202 834 205 826 q 202 861 199 842 q 219 897 206 880 q 250 923 232 913 q 285 932 267 932 q 327 910 311 932 q 337 860 343 888 q 308 810 332 831 q 256 790 283 790 q 225 800 239 790 q 205 826 212 809 m 476 811 q 468 822 476 811 q 466 861 460 833 q 497 911 471 890 q 549 932 522 932 q 591 911 576 932 q 600 860 606 889 q 570 810 594 831 q 519 790 547 790 q 476 811 492 790 z "},"":{"ha":1370,"x_min":88,"x_max":1382,"o":"m 88 424 q 108 584 88 506 q 162 729 127 662 q 248 851 197 795 q 359 947 298 907 q 491 1008 419 986 q 639 1029 563 1029 q 787 1022 694 1029 q 928 1016 879 1015 q 1146 1021 992 1016 q 1381 1027 1300 1027 q 1380 919 1377 1008 q 1382 817 1382 829 q 1354 808 1375 808 q 1337 819 1337 808 q 1324 896 1335 865 q 1295 943 1313 926 q 1254 967 1276 960 q 1202 974 1232 974 l 1078 974 q 1044 973 1063 974 q 1003 968 1026 972 q 976 957 979 964 q 945 846 960 924 l 888 549 q 903 542 886 544 q 948 540 920 540 l 1023 540 q 1067 540 1050 540 q 1100 543 1084 540 q 1126 547 1117 545 q 1145 555 1135 548 q 1159 567 1155 562 q 1172 584 1164 571 q 1183 607 1179 597 q 1197 637 1187 616 q 1203 651 1201 646 q 1227 662 1207 662 q 1249 654 1244 662 l 1194 362 q 1169 355 1187 355 q 1149 368 1152 355 q 1141 449 1145 430 q 1128 476 1137 469 q 979 488 1113 488 q 872 475 875 488 l 812 169 q 807 143 810 157 q 802 110 805 130 q 799 79 799 90 q 801 62 799 68 q 814 53 807 56 q 834 48 821 50 q 860 46 848 47 q 900 46 872 46 l 968 46 q 1160 94 1086 46 q 1280 250 1228 140 q 1303 260 1285 260 q 1324 257 1314 260 q 1337 250 1335 254 q 1294 169 1328 231 q 1239 65 1259 106 q 1209 -6 1219 24 q 989 -2 1151 -6 q 720 0 827 2 q 601 -9 675 -1 q 503 -17 526 -17 q 374 -1 433 -17 q 269 45 314 16 q 190 116 224 75 q 133 205 155 156 q 99 310 111 255 q 88 424 88 365 m 233 420 q 302 130 233 231 q 503 28 372 28 q 574 36 543 28 q 624 56 606 43 q 650 78 642 68 q 663 96 659 87 q 669 107 667 104 q 674 118 671 111 q 679 130 677 125 q 683 142 680 135 q 687 159 685 150 q 691 179 689 168 l 819 861 q 814 911 825 889 q 784 946 804 933 q 735 968 764 960 q 680 980 707 977 q 625 983 652 983 q 515 960 568 983 q 419 897 462 937 q 342 802 377 857 q 283 685 307 747 q 246 555 259 623 q 233 420 233 487 z "},"":{"ha":949,"x_min":37,"x_max":913,"o":"m 37 214 q 56 344 37 277 q 110 469 75 411 q 188 573 144 527 q 284 646 231 619 q 388 673 336 673 q 498 637 456 673 q 558 538 541 602 q 617 594 586 569 q 680 636 648 618 q 746 663 713 654 q 812 673 780 673 q 861 664 840 673 q 893 642 882 656 q 909 611 904 627 q 913 576 913 595 q 899 515 913 546 q 858 457 884 484 q 800 405 832 430 q 732 361 767 380 q 662 328 696 342 q 598 306 628 313 q 547 298 568 298 q 545 249 545 289 q 570 127 545 173 q 651 82 596 82 q 810 189 713 83 q 821 176 814 189 q 829 158 829 164 q 797 117 820 142 q 741 62 773 91 q 668 12 709 33 q 594 -9 628 -9 q 495 22 535 -9 q 437 111 455 53 q 331 24 388 56 q 216 -7 274 -7 q 82 51 127 -7 q 37 214 37 110 m 158 244 q 181 96 158 151 q 246 42 204 42 q 306 61 276 42 q 361 115 336 79 q 406 196 387 150 q 437 301 426 243 q 448 422 448 360 q 428 570 448 517 q 366 623 408 623 q 295 599 329 623 q 237 534 261 574 q 194 445 212 494 q 167 343 176 395 q 158 244 158 291 m 551 337 q 593 346 568 338 q 646 368 618 355 q 701 402 673 382 q 750 444 728 422 q 786 493 772 466 q 800 547 800 521 q 780 593 800 576 q 734 609 760 609 q 681 592 707 609 q 633 546 654 574 q 594 481 612 517 q 566 408 576 446 q 551 337 555 371 z "},"":{"ha":859,"x_min":84,"x_max":982,"o":"m 91 1004 q 100 1023 95 1019 q 158 1020 125 1023 q 219 1017 192 1018 q 278 1016 247 1016 q 464 1023 317 1016 q 464 1013 465 1020 q 462 998 463 1005 q 458 984 460 990 q 453 979 456 979 q 430 977 444 979 q 401 969 417 975 q 372 954 385 964 q 357 929 360 943 q 365 883 354 918 l 490 512 q 596 665 537 578 q 702 822 656 751 q 761 916 748 892 q 770 939 768 926 q 768 946 770 942 q 760 956 766 951 q 742 966 753 962 q 713 974 732 971 q 673 977 695 977 q 672 999 669 981 q 679 1022 675 1017 q 725 1019 695 1021 q 777 1016 754 1017 q 823 1015 799 1015 q 881 1016 856 1015 q 934 1019 905 1017 q 982 1022 963 1021 q 977 997 982 1017 q 970 977 972 977 q 958 977 964 977 q 939 975 953 977 q 913 969 926 974 q 885 959 900 965 q 857 941 871 953 q 832 916 842 930 l 515 465 q 507 450 509 458 q 502 430 504 443 q 499 418 500 418 l 452 179 q 450 170 451 176 q 436 65 433 88 q 457 51 437 57 q 499 42 478 45 q 530 40 519 40 q 532 18 534 35 q 523 -5 529 1 q 470 -2 507 -4 q 407 2 433 1 q 355 3 380 3 q 304 2 330 3 q 238 -2 277 1 q 184 -5 199 -4 q 183 18 180 1 q 193 40 187 34 q 226 42 205 40 q 271 51 248 45 q 297 65 294 57 q 301 75 299 69 q 306 86 304 81 q 309 100 307 92 q 313 114 311 109 q 316 130 314 119 q 319 145 319 140 q 323 163 320 150 q 326 179 326 176 l 371 413 q 370 456 375 439 l 241 847 q 211 912 228 889 q 167 954 195 935 q 142 967 157 962 q 114 976 127 973 q 92 979 100 979 q 91 1004 84 979 m 390 1203 q 406 1242 393 1224 q 438 1270 419 1260 q 476 1280 456 1280 q 523 1258 507 1280 q 534 1203 539 1236 q 502 1148 528 1171 q 446 1126 475 1126 q 400 1148 416 1126 q 390 1203 384 1171 m 650 1203 q 681 1258 655 1236 q 736 1280 706 1280 q 783 1258 766 1280 q 793 1203 799 1236 q 762 1148 787 1171 q 707 1126 737 1126 q 672 1136 687 1126 q 652 1164 658 1146 q 650 1203 646 1181 z "},"":{"ha":380,"x_min":30,"x_max":348,"o":"m 31 774 q 210 954 141 880 q 229 966 222 966 q 243 954 237 966 q 348 774 292 861 q 340 763 347 768 q 328 758 334 758 q 276 799 307 774 q 227 840 246 823 l 208 857 q 45 758 105 796 q 34 763 39 758 q 31 774 30 768 z "},"":{"ha":689,"x_min":960,"x_max":1413,"o":"m 962 773 q 993 829 966 806 q 1115 878 1046 878 q 1202 858 1161 878 q 1229 844 1207 856 q 1266 827 1250 832 q 1302 823 1282 823 q 1316 824 1309 823 q 1330 827 1324 825 q 1343 833 1337 829 q 1355 839 1350 836 q 1367 846 1360 842 q 1376 854 1373 851 q 1385 861 1380 857 q 1392 868 1390 866 q 1398 874 1394 870 q 1402 878 1402 878 q 1408 876 1406 877 q 1411 872 1409 876 q 1412 865 1413 869 q 1400 833 1409 849 q 1379 807 1390 817 q 1259 758 1326 758 q 1174 779 1219 758 q 1153 790 1171 781 q 1126 802 1135 799 q 1102 809 1118 805 q 1070 813 1086 813 q 1055 812 1063 813 q 1042 808 1048 810 q 1028 803 1036 806 q 1016 797 1021 800 q 1005 789 1011 794 q 995 782 999 785 q 986 774 991 779 q 979 768 981 770 q 974 762 977 766 q 970 758 970 758 q 962 773 960 761 z "},"":{"ha":648,"x_min":0,"x_max":0,"o":""},"":{"ha":1296,"x_min":0,"x_max":0,"o":""},"":{"ha":648,"x_min":0,"x_max":0,"o":""},"":{"ha":1296,"x_min":0,"x_max":0,"o":""},"":{"ha":432,"x_min":0,"x_max":0,"o":""},"":{"ha":323,"x_min":0,"x_max":0,"o":""},"":{"ha":216,"x_min":0,"x_max":0,"o":""},"":{"ha":216,"x_min":0,"x_max":0,"o":""},"":{"ha":161,"x_min":0,"x_max":0,"o":""},"":{"ha":259,"x_min":0,"x_max":0,"o":""},"":{"ha":72,"x_min":0,"x_max":0,"o":""},"":{"ha":573,"x_min":82,"x_max":475,"o":"m 82 331 q 93 375 82 347 q 115 404 103 403 l 465 422 q 475 404 475 422 q 469 375 475 393 q 455 341 464 357 q 439 325 446 326 l 90 308 q 82 331 82 308 z "},"":{"ha":573,"x_min":82,"x_max":475,"o":"m 82 331 q 93 375 82 347 q 115 404 103 403 l 465 422 q 475 404 475 422 q 469 375 475 393 q 455 341 464 357 q 439 325 446 326 l 90 308 q 82 331 82 308 z "},"":{"ha":573,"x_min":82,"x_max":475,"o":"m 82 331 q 93 375 82 347 q 115 404 103 403 l 465 422 q 475 404 475 422 q 469 375 475 393 q 455 341 464 357 q 439 325 446 326 l 90 308 q 82 331 82 308 z "},"":{"ha":871,"x_min":82,"x_max":768,"o":"m 82 330 q 93 372 82 347 q 116 405 103 397 l 759 405 q 768 385 768 405 q 764 358 768 374 q 751 329 760 343 q 734 309 743 315 l 92 309 q 82 330 82 309 z "},"":{"ha":1236,"x_min":82,"x_max":1133,"o":"m 82 330 q 93 372 82 347 q 116 405 103 397 l 1124 405 q 1133 385 1133 405 q 1129 358 1133 374 q 1116 329 1124 343 q 1099 309 1108 315 l 92 309 q 82 330 82 309 z "},"":{"ha":283,"x_min":152,"x_max":383,"o":"m 159 750 q 152 797 153 765 q 158 858 152 829 q 188 938 165 899 q 238 1003 211 977 q 293 1051 265 1030 q 339 1082 320 1072 q 362 1092 357 1092 q 383 1064 378 1092 q 333 1029 356 1048 q 297 994 311 1010 q 274 963 283 979 q 260 938 264 947 q 255 923 256 928 q 259 895 252 909 q 274 868 265 880 q 290 842 283 857 q 294 812 296 826 q 256 765 288 785 q 187 745 223 745 q 159 750 173 745 z "},"":{"ha":298,"x_min":128,"x_max":361,"o":"m 128 777 q 189 819 162 795 q 229 863 216 843 q 250 896 243 883 q 258 917 256 909 q 255 945 261 930 q 240 971 248 960 q 225 998 231 983 q 221 1028 218 1014 q 259 1075 227 1055 q 326 1095 291 1095 q 354 1090 340 1095 q 360 1043 361 1074 q 354 982 360 1013 q 324 902 347 941 q 274 837 301 863 q 220 789 248 810 q 175 759 193 768 q 151 749 156 749 q 144 750 148 749 q 137 756 140 752 q 132 765 134 760 q 128 777 130 770 z "}}}
